<?xml version="1.0" encoding="utf-8"?>
<!-- Generator: Adobe Illustrator 24.0.1, SVG Export Plug-In . SVG Version: 6.00 Build 0)  -->
<svg version="1.1" id="Layer_1" xmlns="http://www.w3.org/2000/svg" xmlns:xlink="http://www.w3.org/1999/xlink" x="0px" y="0px"
	 viewBox="0 0 800 800" style="enable-background:new 0 0 800 800;" xml:space="preserve">
<style type="text/css">
	.st0{opacity:0.5;fill:none;stroke:#273339;stroke-width:3;stroke-linecap:round;stroke-linejoin:round;stroke-miterlimit:10;}
	.st1{fill:none;stroke:#E0E0E0;stroke-width:3;stroke-linecap:round;stroke-linejoin:round;stroke-miterlimit:10;}
	.st2{opacity:0.8;fill:none;stroke:#FCC26B;stroke-width:3;stroke-linecap:round;stroke-linejoin:round;stroke-miterlimit:10;}
	.st3{opacity:0.8;fill:none;stroke:#F97A68;stroke-width:3;stroke-linecap:round;stroke-linejoin:round;stroke-miterlimit:10;}
	.st4{opacity:0.8;fill:none;stroke:#52DEB8;stroke-width:3;stroke-linecap:round;stroke-linejoin:round;stroke-miterlimit:10;}
	.st5{fill:none;stroke:#616262;stroke-width:3;stroke-miterlimit:10;}
	.st6{fill:#FFFFFF;stroke:#616262;stroke-width:3;stroke-linecap:round;stroke-linejoin:round;stroke-miterlimit:10;}
	.st7{fill:none;stroke:#616262;stroke-width:3;stroke-linecap:round;stroke-linejoin:round;stroke-miterlimit:10;}
	.st8{fill:#616262;stroke:#616262;stroke-miterlimit:10;}
	.st9{fill:#616262;stroke:#616262;stroke-width:3;stroke-linecap:round;stroke-linejoin:round;stroke-miterlimit:10;}
	.st10{fill:#FFFFFF;stroke:#52DEB8;stroke-width:3;stroke-linecap:round;stroke-linejoin:round;stroke-miterlimit:10;}
	.st11{fill:#616262;}
	.st12{fill:#FFFFFF;}
	.st13{fill:#FFFFFF;stroke:#FCC26B;stroke-width:5;stroke-linecap:round;stroke-linejoin:round;stroke-miterlimit:10;}
	.st14{fill:#E0E0E0;stroke:#E0E0E0;stroke-linecap:round;stroke-linejoin:round;stroke-miterlimit:10;}
	.st15{fill:none;stroke:#616262;stroke-linecap:round;stroke-linejoin:round;stroke-miterlimit:10;}
	.st16{opacity:0.8;fill:none;stroke:#616262;stroke-width:4;stroke-linecap:round;stroke-linejoin:round;stroke-miterlimit:10;}
	.st17{fill:none;stroke:#616262;stroke-width:4;stroke-miterlimit:10;}
	.st18{fill:none;stroke:#273339;stroke-width:3;stroke-linecap:round;stroke-linejoin:round;stroke-miterlimit:10;}
	.st19{fill:#E0E0E0;stroke:#E0E0E0;stroke-width:3;stroke-linecap:round;stroke-linejoin:round;stroke-miterlimit:10;}
	.st20{opacity:0.8;fill:#F97A68;stroke:#F97A68;stroke-width:3;stroke-linecap:round;stroke-linejoin:round;stroke-miterlimit:10;}
	.st21{opacity:0.4;fill:none;stroke:#F97A68;stroke-width:3;stroke-linecap:round;stroke-linejoin:round;stroke-miterlimit:10;}
	.st22{fill:none;stroke:#F97A68;stroke-width:3;stroke-linecap:round;stroke-linejoin:round;stroke-miterlimit:10;}
</style>
<polyline class="st0" points="216.2,147 231.4,147 231.4,624.5 "/>
<line class="st0" x1="212.1" y1="147" x2="212.1" y2="505"/>
<line class="st1" x1="-16.5" y1="290.7" x2="210.1" y2="290.7"/>
<polyline class="st1" points="60.4,290.7 60.4,449.8 58.4,524 "/>
<line class="st1" x1="177.7" y1="292" x2="177.7" y2="511.6"/>
<line class="st1" x1="78.6" y1="341.2" x2="78.6" y2="290.7"/>
<polyline class="st1" points="159.5,291 159.5,337.2 78.6,337.2 "/>
<polyline class="st1" points="85.7,355.4 159.5,355.4 159.5,415.1 90.7,415.1 "/>
<polyline class="st1" points="110,431.3 159.5,431.3 159.5,492 143.3,492 "/>
<line class="st1" x1="68.5" y1="202.6" x2="210.1" y2="202.6"/>
<line class="st2" x1="88.7" y1="188.5" x2="191.9" y2="188.5"/>
<line class="st3" x1="8.8" y1="258.3" x2="36.1" y2="209.7"/>
<line class="st4" x1="165.3" y1="610.6" x2="196.8" y2="530.2"/>
<path class="st4" d="M176.7,616.4c5.7-4.6,11.8-10.9,17.2-19.2c19.2-29.8,12.8-63.1,10.6-72.7"/>
<line class="st4" x1="137.2" y1="616.5" x2="174.7" y2="616.5"/>
<path class="st4" d="M101.9,541.5c2.5-3.8,6.7-8.9,13.2-13.2c7.9-5.2,17-7.4,42.5-7.1c11.7,0.2,26.8,0.9,44.5,3"/>
<path class="st3" d="M-3.3,253.2c3.8,3,10.6,7.5,20.2,10.1c10.5,2.8,19.4,1.9,24.3,1c9.1-18.2,18.2-36.4,27.3-54.6
	c1.2-3.5,0.8-5.7,0-7.1c-3.3-6-14.5-0.8-33.4-5.1c-9.1-2.1-12.5-4.7-22.3-5.1c-5.5-0.2-10.1,0.4-13.2,1"/>
<path class="st2" d="M82.7,196.6l-12.1-8.1c20.1-20.9,40.5-27.8,50.6-30.3c34-8.6,79.6-0.5,86,20.2c1.3,4.3,0.7,8.4,0,11.1
	c-5.1,3-10.1,6.1-15.2,9.1"/>
<line class="st5" x1="4.3" y1="655.1" x2="791.3" y2="655.1"/>
<g>
	<polyline class="st6" points="300.8,626.2 319.7,717.8 328.4,717.8 339.7,626.2 	"/>
	<polyline class="st6" points="383.2,626.2 389.9,717.8 397.6,717.8 417.5,626.2 	"/>
	<path class="st7" d="M393.5,712.6c0,0-6.3,21.5,14,18.6c20.3-2.9,16.2-9.1,16.2-9.1"/>
	<path class="st7" d="M324.2,714.5c0,0,1,31.9-32.8,13.1"/>
	<path class="st8" d="M362,267.6c0,0-11.6-16.1-28-6.6c-16.4,9.6-13.5,29.7-32.2,30.4s-33.3,1.4-35.7,12.1
		c-2.4,10.8,0.3,19.1,9.7,22.9c0,0-4.2,29.1,20.3,24.2c0,0,2.1,4.1,5.8,2.2c3.7-1.9,52.2-25.9,52.7-26.4c0.4-0.5-2.5-22.9-2.5-22.9
		s-1-25.2,0.1-25.9C353.4,276.9,362,267.6,362,267.6z"/>
	<path class="st6" d="M373.7,323c0,0,8.7-53.6-14.7-56.1c-23.4-2.5-20,30.2-20,30.2s-8.4-0.1-3.4,7.8c5,7.9,8.2,4.6,11.6,9.6
		c3.4,5,2.1,10.5,2.1,10.5"/>
	<path class="st9" d="M305.2,432.9c0,0-64.9,68.8-4.4,193.3h121.6c0,0,44.8-104.3-10.5-189.4"/>
	<path class="st10" d="M416.8,443c-24.3,19.3-115.5-6-115.5-6L289,402.4l5.6-20.5l127.8,21L416.8,443z"/>
	<path class="st10" d="M311,404.4l-26.1,4.4c0,0-5.4-34.8,23.3-62.7c0,0,28.8-28.8,72.7-22c6.5,1,11.2,2.8,12.5,3.3
		c18.6,7.3,27.8,22.2,30.3,26.3c4.6,7.4,8,16.8,9.1,28.5c3.3,35.3-9,66.1-29.4,65.6l-11.3-18.2c0,0,14.3-9.7,12.3-22.5l-90.4-26.1
		C314.1,380.9,307.4,392.9,311,404.4z"/>
	<g>
		<g>
			<path class="st11" d="M370.5,277.5c-1.8-1-4-0.1-5.4,1c-1.7,1.3-2.3,3.3-1.5,5.4c0.8,1.9,2.5,3.6,4,5c0.7,0.7,1.6,1.3,2.3,2
				c0.5,0.5,1.2,1.2,0.6,1.9c-0.6,0.8-1.8,1.3-2.7,1.8c-1.1,0.6-2.3,1.2-3.5,1.7c-0.5,0.2-0.6,0.9-0.4,1.4c0.3,0.5,0.9,0.6,1.4,0.4
				c1.9-0.8,3.8-1.7,5.4-2.9c0.8-0.5,1.5-1.2,1.8-2.1c0.3-0.9,0.1-1.8-0.4-2.6c-0.5-0.7-1.2-1.3-1.9-1.9c-0.8-0.7-1.5-1.4-2.2-2.1
				c-0.7-0.7-1.4-1.5-1.9-2.3c-0.5-0.7-1-1.6-0.8-2.5c0.2-0.9,0.9-1.5,1.7-1.9c0.7-0.4,1.8-1,2.6-0.5
				C370.6,279.9,371.6,278.2,370.5,277.5L370.5,277.5z"/>
		</g>
	</g>
	<g>
		<g>
			<path class="st11" d="M368.1,303.5c0,1.6-1.7,2.4-3,2.7c-1.5,0.4-3.5,0.7-4.8-0.3c-0.4-0.3-1-0.4-1.4,0c-0.4,0.4-0.4,1.1,0,1.4
				c2,1.6,4.6,1.5,6.9,0.8c2.2-0.6,4.4-2.1,4.4-4.6C370.1,302.3,368.1,302.3,368.1,303.5L368.1,303.5z"/>
		</g>
	</g>
	<g>
		<g>
			<path class="st11" d="M356.5,282.3c-1.6-0.7-3.5-0.2-5,0.6c-0.7,0.4-1.4,1-1.8,1.7c-0.5,0.8-0.5,1.8-0.4,2.7c0,0.5,0.4,1,1,1
				c0.5,0,1-0.4,1-1c0-0.4-0.1-0.7,0-1.1c0-0.1,0-0.2,0-0.1c0-0.1,0-0.2,0.1-0.3c0-0.1,0.1-0.2,0-0.1c0-0.1,0.1-0.2,0.1-0.2
				c0-0.1,0.1-0.1,0.1-0.1c-0.1,0.2,0-0.1,0.1-0.1c0.1-0.1,0.2-0.2,0.3-0.3c0,0,0.2-0.2,0.1-0.1c-0.1,0.1,0.1-0.1,0.1-0.1
				c0.1-0.1,0.3-0.2,0.4-0.3c0.1-0.1,0.3-0.2,0.4-0.2c0.1,0,0.2-0.1,0.1,0c0.1,0,0.2-0.1,0.2-0.1c0.3-0.1,0.7-0.2,1-0.3
				c-0.1,0,0,0,0.1,0c0.1,0,0.2,0,0.2,0c0.2,0,0.3,0,0.5,0c0.3,0-0.2,0,0.1,0c0.1,0,0.2,0,0.2,0.1c0.2,0,0.3,0.1,0.5,0.2
				c0.5,0.2,1.1-0.2,1.2-0.7C357.3,282.9,357,282.5,356.5,282.3L356.5,282.3z"/>
		</g>
	</g>
	<g>
		<g>
			<path class="st12" d="M351.8,489.1c0.6,0,0.6-1,0-1C351.2,488.1,351.2,489.1,351.8,489.1L351.8,489.1z"/>
		</g>
	</g>
	<path class="st13" d="M307.1,361.7c-1.8,5.3-2.6,12.5-1.2,22c0,0,27.4,59.7,70.2,45.1c42.8-14.6,32-32.3,21.5-38.7
		c-9-5.5-39.3-32.1-62.7-41.1C323.7,344.7,310.9,350.4,307.1,361.7z"/>
	<ellipse class="st14" cx="318.6" cy="365.3" rx="17.1" ry="15.8"/>
	<path class="st15" d="M308.9,367.2c1,1.4,3,1.6,4.3,0.6c1.4-1,1.6-3,0.6-4.3"/>
	<path class="st15" d="M321.8,355.5c1.4,1.4,1.4,3.6,0,4.9c-1.4,1.4-3.6,1.4-4.9,0l5.5,4.4c0.2,0.3,0.5,0.8,0.4,1.4
		c-0.1,1-1,2-2.3,2.3"/>
	<circle class="st15" cx="326.1" cy="370.9" r="1.9"/>
	<path class="st16" d="M300.5,406.5c3.3,3.8,21.7,24.6,52,26c3.1,0.1,33.9,1.1,53-20c1.8-2,3.1-3.8,4-5"/>
	<path class="st16" d="M397.5,437.5c-7.3,1.9-25.1,5.4-45-2c-33.2-12.3-44.5-44.4-46-49"/>
</g>
<path class="st17" d="M3475,619"/>
<line class="st18" x1="387.5" y1="98.2" x2="387.5" y2="271.4"/>
<polyline class="st18" points="399.4,57.7 688.2,57.7 688.2,86.4 "/>
<polyline class="st18" points="688.2,110.1 688.2,376.2 488.4,376.2 "/>
<polyline class="st18" points="421.1,71.5 636.1,71.5 674.4,71.5 "/>
<line class="st18" x1="634.8" y1="350.5" x2="634.8" y2="71.5"/>
<line class="st18" x1="648.7" y1="336.7" x2="648.7" y2="262.5"/>
<polyline class="st18" points="466.6,397 710,397 710,382.2 "/>
<line class="st1" x1="581.4" y1="149.7" x2="606.1" y2="149.7"/>
<line class="st1" x1="560.6" y1="183.3" x2="594.3" y2="183.3"/>
<line class="st1" x1="475.5" y1="249.6" x2="547.8" y2="249.6"/>
<line class="st1" x1="520.1" y1="271.4" x2="577.4" y2="271.4"/>
<path class="st19" d="M525,177.4c-16,12.9-37.1,15-51.4,5.9c-19.3-12.2-25.6-44.3-6.9-68.3c0.2,4.3,1.9,31.8,24.7,49.5
	C504.6,174.7,518.5,176.8,525,177.4z"/>
<polyline class="st0" points="531.5,531.5 531.5,515.5 827.5,517.5 "/>
<line class="st0" x1="543.5" y1="531.5" x2="806.5" y2="531.5"/>
<line class="st0" x1="543.5" y1="551.5" x2="543.5" y2="591.5"/>
<polyline class="st1" points="560.5,576.5 560.5,551.5 581.5,551.5 581.5,591.5 "/>
<polyline class="st1" points="613.5,556.5 606.5,556.5 606.5,596.5 "/>
<line class="st1" x1="621.5" y1="563.5" x2="621.5" y2="576.5"/>
<polyline class="st1" points="655.5,556.5 635.5,556.5 635.5,596.5 "/>
<line class="st1" x1="655.5" y1="581.5" x2="655.5" y2="596.5"/>
<polyline class="st1" points="679.5,591.5 679.5,556.5 695.5,556.5 695.5,576.5 "/>
<polyline class="st1" points="727.5,556.5 711.5,556.5 711.5,596.5 "/>
<line class="st1" x1="733.5" y1="596.5" x2="733.5" y2="581.5"/>
<polyline class="st1" points="755.5,596.5 755.5,551.5 772.5,551.5 "/>
<polygon class="st20" points="549.5,486.5 549.5,521.5 569.5,521.5 569.5,505.5 590.5,505.5 590.5,523.5 609.5,523.5 609.5,486.5 
	"/>
<path class="st21" d="M549.5,464.5c-0.7,0.6-3.6,3.4-4,8c-0.5,5.8,3.5,9.5,4,10"/>
<path class="st21" d="M610.5,464.5c0.5,0.5,4.5,4.2,4,10c-0.4,4.6-3.3,7.4-4,8"/>
<polygon class="st22" points="552.5,459.5 606.5,459.5 581.5,434.5 "/>
<circle class="st20" cx="652" cy="507" r="15.5"/>
</svg>
