<?xml version="1.0" encoding="utf-8"?>
<!-- Generator: Adobe Illustrator 24.0.1, SVG Export Plug-In . SVG Version: 6.00 Build 0)  -->
<svg version="1.1" id="Layer_1" xmlns="http://www.w3.org/2000/svg" xmlns:xlink="http://www.w3.org/1999/xlink" x="0px" y="0px"
	 viewBox="0 0 800 800" style="enable-background:new 0 0 800 800;" xml:space="preserve">
<style type="text/css">
	.st0{fill:#52DEB8;stroke:#52DEB8;stroke-width:2;stroke-miterlimit:10;}
	.st1{fill:none;stroke:#616262;stroke-width:2;stroke-miterlimit:10;}
	.st2{fill:none;stroke:#263238;stroke-width:2.4908;stroke-miterlimit:10;}
	.st3{fill:#52DEB8;stroke:#52DEB8;stroke-width:3;stroke-linecap:round;stroke-linejoin:round;stroke-miterlimit:10;}
	.st4{fill:#FFFFFF;stroke:#616262;stroke-width:3;stroke-linecap:round;stroke-linejoin:round;stroke-miterlimit:10;}
	.st5{fill:none;stroke:#616262;stroke-width:3;stroke-linecap:round;stroke-linejoin:round;stroke-miterlimit:10;}
	.st6{fill:#FFFFFF;stroke:#FCC26B;stroke-width:3;stroke-linecap:round;stroke-linejoin:round;stroke-miterlimit:10;}
	.st7{fill:none;stroke:#616262;stroke-width:2;stroke-linecap:round;stroke-linejoin:round;stroke-miterlimit:10;}
	.st8{fill:#5EC1A2;stroke:#616262;stroke-width:3;stroke-linecap:round;stroke-linejoin:round;stroke-miterlimit:10;}
	.st9{fill:#616262;}
	.st10{fill:#6CC5AB;stroke:#6CC5AB;stroke-miterlimit:10;}
	.st11{fill:none;stroke:#F9C06A;stroke-width:2;stroke-miterlimit:10;}
	.st12{fill:#5C78BA;stroke:#5C78BA;stroke-miterlimit:10;}
	.st13{fill:none;stroke:#E0E0E0;stroke-width:3;stroke-miterlimit:10;}
	.st14{opacity:0.8;fill:#6CC5AC;stroke:#5280FF;stroke-width:4;stroke-miterlimit:10;}
	.st15{fill:#FFFFFF;stroke:#616262;stroke-width:2;stroke-miterlimit:10;}
	.st16{fill:#DFDFDE;stroke:#616463;stroke-miterlimit:10;}
	.st17{fill:#DFDFDE;stroke:#DFDFDE;stroke-width:3;stroke-miterlimit:10;}
	.st18{fill:none;stroke:#616463;stroke-miterlimit:10;}
	.st19{fill:none;stroke:#616262;stroke-width:2;stroke-miterlimit:10;stroke-dasharray:7;}
	.st20{fill:#52DEB8;}
	.st21{fill:#7499FF;stroke:#7499FF;stroke-miterlimit:10;}
	.st22{fill:none;stroke:#DFDFDF;stroke-width:4;stroke-miterlimit:10;}
	.st23{fill:none;stroke:#6CC5AC;stroke-width:4;stroke-miterlimit:10;}
	.st24{opacity:0.7;fill:none;stroke:#FBC16B;stroke-width:5;stroke-miterlimit:10;}
	.st25{fill:none;stroke:#000000;stroke-miterlimit:10;}
	.st26{fill:#DFDFDF;stroke:#DFDFDF;stroke-width:5;stroke-miterlimit:10;}
	.st27{fill:none;stroke:#2962FF;stroke-width:3;stroke-miterlimit:10;}
	.st28{opacity:0.8;fill:none;stroke:#2962FF;stroke-width:2;stroke-linecap:round;stroke-linejoin:round;stroke-miterlimit:10;}
	.st29{opacity:0.8;}
	.st30{fill:#FCC26B;}
	.st31{opacity:0.8;fill:#2962FF;stroke:#2962FF;stroke-width:1.5;stroke-miterlimit:10;}
	.st32{opacity:0.4;fill:#2962FF;stroke:#2962FF;stroke-miterlimit:10;}
	.st33{fill:#2962FF;stroke:#2962FF;stroke-miterlimit:10;}
	.st34{fill:#E0E0E0;stroke:#E0E0E0;stroke-miterlimit:10;}
	.st35{fill:#8BAAFF;stroke:#616262;stroke-miterlimit:10;}
	.st36{fill:#E0E0E0;stroke:#E0E0E0;stroke-width:2;stroke-miterlimit:10;}
	.st37{fill:#FFFFFF;stroke:#52DEB8;stroke-miterlimit:10;}
	.st38{fill:none;stroke:#E0E0E0;stroke-width:5;stroke-miterlimit:10;}
	.st39{fill:#E0E0E0;}
	.st40{fill:#F97A68;}
	.st41{fill:#8BAAFF;}
	.st42{opacity:0.95;fill:#F97A68;stroke:#616262;stroke-width:0.5;stroke-miterlimit:10;}
	.st43{fill:#E0E0E0;stroke:#616262;stroke-miterlimit:10;}
	.st44{fill:#F85744;stroke:#616262;stroke-width:0.5;stroke-miterlimit:10;}
	.st45{fill:#F97A68;stroke:#616262;stroke-width:0.5;stroke-miterlimit:10;}
	.st46{fill:#FFFFFF;stroke:#8BAAFF;stroke-width:2;stroke-miterlimit:10;}
	.st47{fill:none;stroke:#8BAAFF;stroke-width:2;stroke-miterlimit:10;}
	.st48{fill:none;stroke:#FCC26B;stroke-width:2;stroke-miterlimit:10;}
	.st49{fill:none;stroke:#5280FF;stroke-width:2;stroke-miterlimit:10;}
	.st50{opacity:0.9;fill:#5280FF;stroke:#5280FF;stroke-miterlimit:10;}
	.st51{fill:none;stroke:#FCC26B;stroke-miterlimit:10;}
	.st52{fill:#E0E0E0;stroke:#E0E0E0;stroke-width:0.5;stroke-miterlimit:10;}
	.st53{opacity:0.5;fill:none;stroke:#52DEB8;stroke-width:2;stroke-miterlimit:10;}
</style>
<path class="st0" d="M170.9,282.8v-22.1c0-2.4-1.9-4.3-4.3-4.3H116c-2.4,0-4.3,1.9-4.3,4.3v20.8v1.3"/>
<path class="st1" d="M134.1,260.4c5.3-1.2,9.4,1.8,9.7,4.3c0.3,2.4-2.7,5.7-7.4,6.4c4,4.2,8.1,8.5,12.1,12.7"/>
<line class="st1" x1="134.1" y1="265.5" x2="149.5" y2="265.5"/>
<line class="st2" x1="2.9" y1="616.8" x2="797.2" y2="616.8"/>
<path class="st3" d="M518.2,468.3c82.1,66,11.8,231.2,0,240.8c-11.8,9.6-21.6,0.7-22.1-12.2c-0.5-12.8,10.8-111.9,3.8-145.3
	c-7-33.4-32.5-46.8-32.5-46.8S353.9,719.6,354.1,722c0.2,2.4-24.3-12.8-24.3-12.8c18.5-32.5,75.1-256.7,75.1-256.7L518.2,468.3z"/>
<path class="st4" d="M408.8,454.2c0,0,25.4,28.6,96.5,19.7l6.5-135.8c-13.6-1.8-27.1-3.6-40.7-5.4l-47.9-6.5l-14,126.4"/>
<path class="st5" d="M467.3,332.2l28.6,4.1c5.3,0.8,9,5.7,8.3,11l-7.5,55.3c-0.8,5.6-6.1,9.4-11.6,8.2l-38-7.9"/>
<path class="st4" d="M481.7,289.1c0,0-7.9-19.3-11.3-30.2c-3.4-11-9.9-41.1,14-48.6c3.2-1,9.3-2.6,15.3,0c4.3,1.9,7.1,5.3,7.8,6.2
	c0,0,1.1,1.4,5,9l0,0c5.4-0.7,10.1,1.4,11.8,5c1.3,2.6,0.6,5.3,0.5,5.5c-2.7,11-9.6,8.9-9.6,8.9s-1,40.7-8.9,46.2
	C506.4,291.1,486.6,301.4,481.7,289.1z"/>
<path class="st6" d="M505.3,286.6c0,0,30.5-4.4,53.7,45.9s14.7,130.4-53.7,141.4c0,0-16.8-22.9-17.8-28.8
	C486.5,439.3,508.4,307.2,505.3,286.6z"/>
<path class="st6" d="M484.1,279.1c0,0-17.7-7.2-45.5,1.7c-27.7,8.9-68.5,52-63.3,109.2s33.5,64.2,33.5,64.2s27-9.8,28.1-15.2
	C437.9,433.5,479.9,284.9,484.1,279.1z"/>
<line class="st7" x1="515.4" y1="334.6" x2="545.2" y2="342.8"/>
<path class="st7" d="M521.1,336.1l4.2-18.4c0.2-1,1.2-1.6,2.2-1.4l14.7,3.7c1,0.2,1.6,1.2,1.3,2.2l-4.6,18.8"/>
<path class="st5" d="M414.4,295.1c0,0-85.7,39.9-84.7,112.8s48.8,68.1,49.5,67.6s3.1-4.8-6.2-6.5"/>
<path class="st5" d="M342.8,709.2c0,0-20.5,54.3,18,32.8"/>
<path class="st5" d="M505.3,707.3c0,0-18,36.4,4.6,36.7c22.6,0.3,15.4-2.8,15.4-2.8"/>
<path class="st8" d="M507.1,248c-1.3-3.5-4.9,4.2-8.7,4c-3.9-0.2-16.4-3.8-23.1-2c-6.7,1.8-17.2,19-14.6,26.5
	c2.6,7.4,21.6,12.1,33.6,5.6C506.4,275.8,509.4,254.5,507.1,248z"/>
<g>
	<g>
		<path class="st9" d="M466.4,230.8c1.8-1.1,4-1.3,6-0.7c0.2,0,1,0.3,1,0.4c-0.2,0.5-0.1-0.2-0.1-0.2c0.3,0.1,0,0.3,0,0.2
			c-0.1,0.3-0.2,0.5-0.3,0.7c-0.6,1.1-1.2,2.2-1.8,3.4c-1.1,2.4-2,4.9-2.3,7.5c-0.1,1.1-0.2,2.5,0.2,3.6c0.5,1.4,1.7,2,3.1,2.2
			c1.4,0.2,2.9,0.1,4.4,0.1c1.4-0.1,3.1-0.3,3.5-2c0.2-0.8-0.2-1.6-1-1.8c-0.7-0.2-1.7,0.3-1.8,1c0-0.1,0.2-0.2,0.3-0.3
			c0.1-0.1,0.1,0.1-0.1,0c-0.1,0-0.2,0.1-0.1,0c-0.1,0-0.3,0-0.4,0c-0.7,0-1.3,0-2,0c-0.6,0-1.3,0-1.9-0.1c-0.4,0-0.9,0-1.1-0.2
			c0.1,0.1,0,0.2,0-0.1c0-0.2,0-0.3,0-0.6c0-0.6,0-1.2,0-1.8c0.1-1.1,0.4-2.3,0.7-3.4c0.7-2.3,1.9-4.3,3-6.4c0.6-1.2,1-2.6,0.1-3.8
			c-0.7-1-2-1.4-3.1-1.7c-2.6-0.6-5.4-0.2-7.7,1.2C463.2,229.2,464.7,231.8,466.4,230.8L466.4,230.8z"/>
	</g>
</g>
<g>
	<g>
		<path class="st9" d="M483.3,231.2c1.1-0.1,2.2-0.3,3.3-0.6c1-0.2,1.8-0.4,2.7-0.4c0.2,0,0.4,0,0.5,0c0.2,0-0.2,0,0,0
			c0.1,0,0.2,0,0.3,0.1c0.2,0,0.4,0.1,0.5,0.1c0.1,0,0.2,0.1,0.3,0.1c-0.1-0.1-0.1-0.1,0,0c0.2,0.1,0.3,0.2,0.5,0.3
			c0.1,0.1,0.1,0.1,0,0c0.1,0.1,0.1,0.1,0.2,0.2c0.1,0.1,0.1,0.2,0.2,0.2c0.1,0.2-0.1-0.2,0,0c0,0.1,0.1,0.1,0.1,0.2
			c0,0.1,0.1,0.3,0,0.1c0.3,0.8,1,1.3,1.8,1c0.7-0.2,1.3-1.1,1-1.8c-0.8-2.1-2.8-3.2-4.9-3.5c-2.3-0.3-4.5,0.8-6.7,1
			c-0.8,0.1-1.5,0.6-1.5,1.5C481.8,230.5,482.4,231.3,483.3,231.2L483.3,231.2z"/>
	</g>
</g>
<g>
	<polyline class="st1" points="101.5,586 113.3,572.3 128.9,578.1 	"/>
	<path class="st10" d="M58.1,584.8l17.8-10.1c5.4-3.1,11.6-2.4,13.8,1.5h0c2.2,3.9-0.4,9.6-5.8,12.6L66.1,599
		c-5.4,3.1-11.6,2.4-13.8-1.5h0C50.1,593.5,52.7,587.9,58.1,584.8z"/>
	<line class="st11" x1="34.8" y1="577.4" x2="48.9" y2="581.3"/>
	<line class="st11" x1="33.1" y1="606.1" x2="47.8" y2="604.9"/>
	<line class="st11" x1="30.2" y1="592.5" x2="46.9" y2="593"/>
	<path class="st12" d="M75,593.9l11.9-6.8c4.2-2.4,5.8-7.5,3.6-11.4h0c-2.2-3.9-7.4-5.2-11.6-2.8L67,579.8L75,593.9z"/>
	<line class="st13" x1="69.6" y1="547.3" x2="136.1" y2="547.3"/>
	<path class="st13" d="M76.4,544.3v-22.1c0-4,3.3-7.3,7.3-7.3H122c4,0,7.3,3.3,7.3,7.3v22.1"/>
	<g>
		<line class="st14" x1="104" y1="521.8" x2="104" y2="540.1"/>
		<line class="st14" x1="95" y1="531.4" x2="113.2" y2="531.4"/>
	</g>
	<polyline class="st15" points="52.3,602.6 99.2,575.2 109,592.8 109,608.5 	"/>
	<rect x="133.6" y="561.5" class="st16" width="19.6" height="4.9"/>
	<rect x="132.9" y="587.6" class="st17" width="21.2" height="17.9"/>
	<polyline class="st1" points="74.8,607.5 74.8,601.6 94.3,601.6 94.3,607.5 	"/>
	<polyline class="st18" points="137.8,566.4 128.7,576.2 128.7,610.4 158,610.4 158,578.6 148.3,566.4 	"/>
</g>
<polyline class="st15" points="550.1,101.6 572.9,128.2 582.4,122.5 580.5,88.3 "/>
<polyline class="st15" points="480.2,100.6 470.7,87.3 482.1,81.6 495.4,91.1 "/>
<path class="st19" d="M591.9,53.7c9.3-10.6,11.5-25.1,5.7-36c-8-15.2-28.2-17.6-39.8-13.3c-1.5,0.6-1.8,0.9-20.9,17.1
	c-11.4,9.7-17.2,14.6-22.8,15.2c-4.2,0.4-7.6-0.5-16,0.5c-6.8,0.8-9.1,1.3-9.1,1.3c-3.9,0.8-4.8,1.2-7.3,1.2c-3.1,0-3.6-0.7-5.8-0.2
	c-0.6,0.1-4.2,0.9-5.8,3.8c-0.7,1.3-0.8,2.6-0.8,3.8c0,5.2,1.3,9.3,2,11.8c1.2,4.6,1.4,8.7,1.3,11.1c-0.1,3.2-0.8,8.2-4.1,14.2"/>
<path class="st20" d="M568.9,65.3c-0.4,1.4-0.8,2.8-1.2,4.1c-0.3,1-1.3,4.1-2.7,2.1c-0.5-0.8-0.1-1.8,0.2-2.5
	c0.4-0.9-0.1-1.3,0.1-2.2c0.3-1,1.6-1,2.1-1.7c0.4-0.5,0.7-1.2,1-1.8C568.6,64,568.8,64.6,568.9,65.3z"/>
<path class="st15" d="M523.6,80.2c-9.3,3.8-19.6,8.7-30.4,15.2c-6.3,3.8-12,7.6-17.1,11.4c-0.6,1.8-1.1,4,0,5.7c4.4,7,31-2,53.1-9.5
	c12.3-4.2,18.3-6.8,37.9-13.3c0.2-0.1,3.9-1.3,11.4-3.8c18.9-6.3,28.4-9.6,32.3-15.2c1.4-2.1,3.3-5.7,3.8-11.4
	c-2.7-1.9-7.2-4.5-13.3-5.7c-3.8-0.8-7.9-0.8-13.3,0C573,56,557.5,64,552,66.9c-18-6-36-12-54.1-18l-9.5,7.6
	C500.2,64.4,511.9,72.3,523.6,80.2z"/>
<path class="st1" d="M580.5,68.8c2.2-0.1,6.8-0.7,11.4-3.8c2.8-1.9,4.6-4.1,5.7-5.7"/>
<path class="st21" d="M509.3,106.6c0.4-7.9,3.9-13.7,11-16.8c7-3.1,13.6-2,19.3,3.1c5.8,5.3,7.5,12.1,5.2,19.6
	c-2.7,9.2-8.8,16-15.7,22.1c-0.6,0.5-2.4,0.6-2.9,0.1c-7.6-6.7-14.1-14.1-16.4-24.4C509.5,109,509.5,107.8,509.3,106.6z M527.6,97.6
	c-3.9,0-6.9,3-6.8,6.8c0,3.8,3.2,6.9,6.9,6.9c3.6,0,6.7-3.2,6.7-6.8C534.4,100.7,531.3,97.6,527.6,97.6z"/>
<g>
	<polygon class="st22" points="79.5,391.8 91.9,491 195.2,478.6 182.8,379.4 	"/>
	<line class="st23" x1="84.3" y1="408.3" x2="182.2" y2="395.9"/>
	<line class="st24" x1="96" y1="379.4" x2="96" y2="400.1"/>
	<path class="st25" d="M116.7,379.4"/>
	<line class="st24" x1="162.2" y1="369.1" x2="162.2" y2="389.7"/>
	<line class="st24" x1="137.4" y1="373.2" x2="137.4" y2="393.9"/>
	<line class="st24" x1="116.7" y1="377.3" x2="116.7" y2="398"/>
	<rect x="96" y="420.7" transform="matrix(0.9935 -0.114 0.114 0.9935 -47.7839 14.1885)" class="st26" width="8.3" height="8.3"/>
	
		<rect x="101.2" y="443.2" transform="matrix(0.9935 -0.114 0.114 0.9935 -50.3134 14.9216)" class="st26" width="8.3" height="8.3"/>
	
		<rect x="142.5" y="439.1" transform="matrix(0.9935 -0.114 0.114 0.9935 -49.5727 19.6072)" class="st26" width="8.3" height="8.3"/>
	
		<rect x="163.2" y="434.9" transform="matrix(0.9935 -0.114 0.114 0.9935 -48.9667 21.9365)" class="st26" width="8.3" height="8.3"/>
	<rect x="105.3" y="468" transform="matrix(0.9935 -0.114 0.114 0.9935 -53.1139 15.5546)" class="st26" width="8.3" height="8.3"/>
	<rect x="126" y="463.9" transform="matrix(0.9935 -0.114 0.114 0.9935 -52.5079 17.8839)" class="st26" width="8.3" height="8.3"/>
	
		<rect x="146.6" y="459.7" transform="matrix(0.9935 -0.114 0.114 0.9935 -51.9019 20.2132)" class="st26" width="8.3" height="8.3"/>
	
		<rect x="167.3" y="455.6" transform="matrix(0.9935 -0.114 0.114 0.9935 -51.2959 22.5425)" class="st26" width="8.3" height="8.3"/>
	<rect x="159" y="410.1" transform="matrix(0.9935 -0.114 0.114 0.9935 -46.1661 21.3035)" class="st26" width="8.3" height="8.3"/>
	
		<rect x="138.4" y="414.3" transform="matrix(0.9935 -0.114 0.114 0.9935 -46.7721 18.9742)" class="st26" width="8.3" height="8.3"/>
	
		<rect x="117.7" y="418.4" transform="matrix(0.9935 -0.114 0.114 0.9935 -47.3781 16.6449)" class="st26" width="8.3" height="8.3"/>
	<polyline class="st27" points="116.7,445.5 125,453.8 133.2,429 	"/>
</g>
<path class="st5" d="M745.7,288.3l16.3,1.6c-23.4,12.5-86.4,42-164.5,27.9c-32.2-5.8-57.9-17.4-76.2-27.9"/>
<path class="st28" d="M353.9,52.6v94.6c0,4.9,3.9,8.8,8.8,8.8h62.7c4.9,0,8.8-3.9,8.8-8.8V52.6c0-4.9-3.9-8.8-8.8-8.8h-62.7
	C357.8,43.8,353.9,47.7,353.9,52.6z"/>
<g class="st29">
	<g>
		<path class="st30" d="M348.7,99.9c4.3,0,8.5,0.1,12.8,0.1c1,0,2-0.9,2-2c0-1.1-0.9-2-2-2c-4.3,0-8.5-0.1-12.8-0.1c-1,0-2,0.9-2,2
			C346.8,99,347.6,99.9,348.7,99.9L348.7,99.9z"/>
	</g>
</g>
<line class="st31" x1="366.4" y1="27.1" x2="373.3" y2="6.1"/>
<line class="st31" x1="341" y1="43.4" x2="320" y2="36.3"/>
<line class="st31" x1="350" y1="31.7" x2="340.8" y2="11.5"/>
<g class="st29">
	<g>
		<path class="st30" d="M347.5,57.9c4.3,0,8.5,0.1,12.8,0.1c1,0,2-0.9,2-2c0-1.1-0.9-2-2-2c-4.3,0-8.5-0.1-12.8-0.1c-1,0-2,0.9-2,2
			C345.6,57,346.4,57.9,347.5,57.9L347.5,57.9z"/>
	</g>
</g>
<g class="st29">
	<g>
		<path class="st30" d="M348.1,79.5c4.3,0,8.5,0.1,12.8,0.1c1,0,2-0.9,2-2c0-1.1-0.9-2-2-2c-4.3,0-8.5-0.1-12.8-0.1c-1,0-2,0.9-2,2
			C346.1,78.6,347,79.5,348.1,79.5L348.1,79.5z"/>
	</g>
</g>
<g class="st29">
	<g>
		<path class="st30" d="M348,121.5c4.3,0,8.5,0.1,12.8,0.1c1,0,2-0.9,2-2c0-1.1-0.9-2-2-2c-4.3,0-8.5-0.1-12.8-0.1c-1,0-2,0.9-2,2
			C346,120.6,346.9,121.5,348,121.5L348,121.5z"/>
	</g>
</g>
<g class="st29">
	<g>
		<path class="st30" d="M348.3,143.5c4.3,0,8.5,0.1,12.8,0.1c1,0,2-0.9,2-2c0-1.1-0.9-2-2-2c-4.3,0-8.5-0.1-12.8-0.1c-1,0-2,0.9-2,2
			C346.4,142.6,347.2,143.5,348.3,143.5L348.3,143.5z"/>
	</g>
</g>
<rect x="372.5" y="67.6" class="st32" width="42.5" height="54.3"/>
<line class="st33" x1="385.9" y1="100.8" x2="400.9" y2="100.8"/>
<line class="st33" x1="385.9" y1="88.7" x2="400.9" y2="88.7"/>
<path class="st34" d="M219.1,45.9l-11.6,6.4c-1.5,0.8-3.4,0.3-4.3-1.2l-14.4-24.4c-0.9-1.6-0.3-3.6,1.3-4.4l11.4-5.9
	c1.5-0.8,3.3-0.3,4.2,1.2l11,18.1l3.6,5.9C221.2,43,220.7,45,219.1,45.9z"/>
<path class="st35" d="M250.6,110.9c-6.5,3.8-9.7,5.8-12.1,8.4c-1.3,1.5-7.8,8.8-6.5,17.8c0.6,3.8,2.4,6.7,3.6,8.5
	c2.6,4,5.9,6.7,8.9,9.1c4.7,3.8,6.6,4.2,8.1,7.2c1.4,2.8,1.2,5.4,1.2,6.8c-0.4,10,3.7,20.7,4.7,23.1c3.9,9.3,14,17.6,25.3,18.9
	c7.8,0.9,13.8-1.8,18.9-4.1c6.8-3.1,18.8-8.4,22.8-21.3c3-9.6,0.8-20.9-5.1-28c-3-3.6-4.3-3-16.4-13.7c-5.3-4.7-6.8-6.5-8.2-8.8
	c-3.9-6.5-2.1-9.6-4.8-15.3c-3.6-7.8-12.3-13.6-20-14.4c-4.7-0.5-8.9,0.6-10.7,1.1C259.2,106.6,256.5,107.5,250.6,110.9z"/>
<circle class="st36" cx="273.5" cy="149.3" r="10.5"/>
<path class="st34" d="M302.2,169.7L276.5,184c-0.5,0.3-0.6,0.8-0.4,1.3l2.6,4.8c0.3,0.5,0.9,0.7,1.4,0.4l25.7-14.3
	c0.5-0.3,0.6-0.8,0.4-1.3l-2.6-4.8C303.4,169.6,302.7,169.4,302.2,169.7z"/>
<line class="st37" x1="297.1" y1="176.2" x2="204" y2="21.2"/>
<line class="st37" x1="286" y1="181.9" x2="192.9" y2="26.9"/>
<line class="st37" x1="289.4" y1="179.4" x2="196.3" y2="24.4"/>
<line class="st37" x1="293.2" y1="177.8" x2="200.1" y2="22.8"/>
<path class="st13" d="M219.9,34c-0.9,0.6-1.8,1.1-2.6,1.7"/>
<line class="st13" x1="221.1" y1="36.9" x2="217.8" y2="31.6"/>
<path class="st13" d="M211.6,20.3c-0.9,0.6-1.8,1.1-2.6,1.7"/>
<line class="st13" x1="212.8" y1="23.2" x2="209.4" y2="17.9"/>
<path class="st13" d="M195.4,44.1c0.9-0.5,1.8-1,2.7-1.6"/>
<line class="st13" x1="194.3" y1="41.2" x2="197.4" y2="46.6"/>
<path class="st13" d="M187.7,31.5c0.9-0.5,1.8-1,2.7-1.6"/>
<line class="st13" x1="186.6" y1="28.6" x2="189.7" y2="34.1"/>
<g>
	<circle class="st38" cx="220.8" cy="178.8" r="31.1"/>
	<circle class="st39" cx="221.8" cy="177.8" r="15.6"/>
	<path class="st40" d="M228.1,173.9h-11.2c-1.6,0-2.9-1-2.9-2.3v-1.3c0-1.3,1.3-2.3,2.9-2.3h11.2c1.6,0,2.9,1,2.9,2.3v1.3
		C231,172.9,229.7,173.9,228.1,173.9z"/>
	<circle class="st41" cx="221.8" cy="177.8" r="1.9"/>
</g>
<path class="st42" d="M531.1,184.6c-0.9-4.4-20.5-21.6-22.4-23.2c-1.2-1.2-2.5-2-3.9-2.2c-11.7-1.7-26.8,37.5-31.2,49.8
	c0.3,0.1,0.5,0.2,0.8,0.3c4.8,2.5,13,4.9,22.4,6.2c9.4,1.3,18,1.3,23.3,0.3c0.3-0.1,0.6-0.1,0.8-0.1c-0.4-5.9-1.3-17.9-3.4-29.3
	C525,188.4,531.9,188.7,531.1,184.6z"/>
<path class="st43" d="M524.3,218.5c-0.1-1.8-2.1-3.2-4-2.8c-5.3,1.1-13.8,1.1-23.3-0.3c-9.4-1.3-17.6-3.7-22.4-6.2
	c-1.8-0.9-4-0.2-4.6,1.5c-0.6,1.5-1,2.7-1.2,3.3c-0.1,0.2-0.2,0.4-0.2,0.7c-0.5,3.9,11.5,8.8,27,11c15.5,2.2,28.5,0.8,29-3.1
	c0-0.2,0-0.5,0-0.7C524.4,221.4,524.4,220.1,524.3,218.5L524.3,218.5z"/>
<ellipse transform="matrix(0.14 -0.9901 0.9901 0.14 273.7817 691.5399)" class="st43" cx="535" cy="188.2" rx="5.1" ry="5.7"/>
<path class="st44" d="M517.4,186.6"/>
<path class="st45" d="M518.4,191c-0.2-1.1-0.5-2.6-1-4.3c-0.2-0.6-0.8-2.9-2-6.5c-1.5-4.3-2.4-6.7-4.1-9.8c-0.4-0.8-1-1.6-2.1-3.3
	c-2.2-3.3-4-5.9-5.2-7.7"/>
<image style="overflow:visible;" width="670" height="364" xlink:href="C:\Users\Quicko\Desktop\Reference Desktop\Hi Oscar vectors refference\Screen-Shot-2018-04-26-at-3.30.28-PM_670.png"  transform="matrix(1.3105 0 0 1.3105 -2086 40)">
</image>
<path class="st46" d="M97.5,284.2v44.9c0,0.8,0.7,1.5,1.5,1.5h84c0.8,0,1.5-0.7,1.5-1.5v-44.9c0-0.8-0.7-1.5-1.5-1.5H99
	C98.2,282.7,97.5,283.4,97.5,284.2z"/>
<path class="st47" d="M98,284.5l-25.9-26.2c-0.3-0.3-0.3-0.8,0-1.1l0.6-0.6c0.3-0.3,0.8-0.3,1.1,0L99,282.5"/>
<path class="st47" d="M184.3,284.4l25.9-26.2c0.3-0.3,0.3-0.8,0-1.1l-0.6-0.6c-0.3-0.3-0.8-0.3-1.1,0l-25.2,25.9"/>
<line class="st48" x1="91" y1="245.7" x2="98.4" y2="251.7"/>
<line class="st48" x1="113.8" y1="232.3" x2="118.1" y2="240"/>
<line class="st48" x1="142.2" y1="228" x2="142.2" y2="238.4"/>
<line class="st48" x1="166.9" y1="241" x2="175.6" y2="233"/>
<line class="st49" x1="179.3" y1="257.8" x2="186" y2="253.7"/>
<path class="st50" d="M181.9,300.9L181.9,300.9c-0.3,0.6-0.5,1.1-0.5,1.7v15.6c0,1,0.4,1.9,1.1,2.6l2.2,2c0.7,0.6,1.5,1,2.4,0.9
	l60.2-0.3c0.6,0,1.2-0.2,1.8-0.5l3.1-1.8c1.1-0.6,1.8-1.8,1.8-3.1v-1.2c0-1.5-0.9-2.8-2.3-3.3L214,298.6c-0.9-0.3-1.8-0.3-2.7,0
	c-2.9,1.2-7.5,2.8-13.4,2.7c-4.8,0-8.7-1.1-11.5-2.1C184.7,298.7,182.8,299.3,181.9,300.9z"/>
<circle class="st13" cx="208.7" cy="305.9" r="1.5"/>
<circle class="st13" cx="229.1" cy="311.6" r="1.5"/>
<circle class="st13" cx="222.4" cy="309.9" r="1.5"/>
<circle class="st13" cx="215.1" cy="307.9" r="1.5"/>
<path class="st51" d="M208.4,305.9c-2-13.3,0.8-19.7,4-23.1c1.9-1.9,5.1-4.2,7-9c0.1-0.3,2.6-6.8,0.3-8.4c-1.2-0.9-3.4-0.1-4.7,1
	c-1.1,0.9-2.4,2.9-1.7,4.3c0.6,1.2,2.2,1.3,2.3,1.3c1.6,0.1,2.8-0.9,3.3-1.3c2-1.7,13.3-13.2,8-23.4c-2-3.8-5.4-5.7-6.7-6.4
	c-5.4-2.8-10.7-1.9-13.7-1.3c-11.3,2-18.3,10.3-20.7,13.4"/>
<path class="st52" d="M181.6,327.1v4.2c0,0.4,0.3,0.8,0.8,0.8h69.2c0.2,0,0.4-0.1,0.5-0.2l2.1-1.9c0.2-0.2,0.3-0.4,0.3-0.7
	c0-0.6,0-1.3,0.1-1.9c-0.1-0.8-0.4-1.3-0.7-1.3c-0.2,0-0.5,0.2-1,0.7c0,0,0,0,0,0c-0.8,0.7-1.8,0.7-2,0.7
	c-21.4,0.1-42.7,0.2-64.1,0.3c-0.1,0-0.2,0-0.2,0l-3.9-1.3C182.2,326.2,181.6,326.5,181.6,327.1z"/>
<path class="st53" d="M182.3,324l2.4,1.6c0.4,0.3,0.9,0.4,1.4,0.4h63.6c0.6,0,1.1-0.2,1.6-0.5l2.7-2.1"/>
<path class="st51" d="M215.9,306.7c0.4-0.9,1-2.1,2-3.3c0.9-1.2,1.9-2.1,2.7-2.7"/>
<path class="st51" d="M223.3,308.7c0.3-0.8,0.8-1.9,1.7-3c0.7-0.9,1.4-1.5,2-2"/>
<path class="st51" d="M230,311.1c0.4-0.9,0.9-1.9,1.7-3c0.7-1,1.4-1.7,2-2.3"/>
</svg>
