<?xml version="1.0" encoding="utf-8"?>
<!-- Generator: Adobe Illustrator 24.0.1, SVG Export Plug-In . SVG Version: 6.00 Build 0)  -->
<svg version="1.1" id="Layer_1" xmlns="http://www.w3.org/2000/svg" xmlns:xlink="http://www.w3.org/1999/xlink" x="0px" y="0px"
	 viewBox="0 0 1000 1000" style="enable-background:new 0 0 1000 1000;" xml:space="preserve">
<style type="text/css">
	.st0{fill:none;stroke:#52DEB8;stroke-width:4;stroke-linecap:round;stroke-linejoin:round;stroke-miterlimit:10;}
	.st1{opacity:0.7;fill:#273339;stroke:#273339;stroke-miterlimit:10;}
	.st2{fill:none;stroke:#E0E0E0;stroke-width:4;stroke-miterlimit:10;}
	.st3{fill:#E0E0E0;}
	.st4{opacity:0.7;}
	.st5{fill:#2962FF;}
	.st6{fill:none;stroke:#263238;stroke-width:2.4908;stroke-miterlimit:10;}
	.st7{fill:#BCBCBC;}
	.st8{fill:#E0E0E0;stroke:#E0E0E0;stroke-width:4;stroke-miterlimit:10;}
	.st9{fill:#E0E0E0;stroke:#E0E0E0;stroke-miterlimit:10;}
	.st10{fill:#E0E0E0;stroke:#616262;stroke-width:4;stroke-miterlimit:10;}
	.st11{fill:#616262;}
	.st12{fill:#9D2328;}
	.st13{fill:#FFFFFF;stroke:#616262;stroke-width:3;stroke-miterlimit:10;}
	.st14{fill:#FFFFFF;stroke:#616262;stroke-width:4;stroke-miterlimit:10;}
	.st15{fill:none;stroke:#FCC26B;stroke-width:4;stroke-miterlimit:10;}
	.st16{fill:#E0E0E0;stroke:#E0E0E0;stroke-width:4;stroke-linecap:round;stroke-linejoin:round;stroke-miterlimit:10;}
	.st17{fill:#52DEB8;stroke:#52DEB8;stroke-width:0.25;stroke-miterlimit:10;}
	.st18{opacity:0.8;fill:none;stroke:#273339;stroke-width:4;stroke-miterlimit:10;}
	.st19{fill:none;stroke:#E0E0E0;stroke-width:3;stroke-miterlimit:10;}
	.st20{opacity:0.7;fill:none;stroke:#F85744;stroke-width:3;stroke-linecap:round;stroke-linejoin:round;stroke-miterlimit:10;}
	.st21{opacity:0.5;fill:none;stroke:#263238;stroke-width:2;stroke-linecap:round;stroke-linejoin:round;stroke-miterlimit:10;}
	.st22{opacity:0.5;fill:#263238;stroke:#263238;stroke-linecap:round;stroke-linejoin:round;stroke-miterlimit:10;}
	.st23{opacity:0.5;}
	.st24{fill:none;stroke:#273339;stroke-width:3;stroke-linecap:round;stroke-linejoin:round;stroke-miterlimit:10;}
	.st25{opacity:0.7;fill:#273339;stroke:#273339;stroke-width:2;stroke-miterlimit:10;}
	.st26{fill:#FFFFFF;stroke:#273339;stroke-width:3;stroke-linecap:round;stroke-linejoin:round;stroke-miterlimit:10;}
	.st27{fill:#273339;}
	.st28{opacity:0.7;fill:#FFFFFF;stroke:#52DEB8;stroke-width:2;stroke-linecap:round;stroke-linejoin:round;stroke-miterlimit:10;}
	.st29{fill:none;stroke:#231F20;stroke-width:1.1903;stroke-miterlimit:10;}
	.st30{fill:#EAE6F1;stroke:#263238;stroke-miterlimit:10;}
	.st31{fill:#273339;stroke:#263238;stroke-miterlimit:10;}
	.st32{opacity:0.7;fill:#FFFFFF;stroke:#FCC26B;stroke-width:2;stroke-linecap:round;stroke-linejoin:round;stroke-miterlimit:10;}
	.st33{opacity:0.7;fill:#3B4348;stroke:#273339;stroke-width:2;stroke-miterlimit:10;}
	.st34{opacity:0.5;fill:#273339;}
	.st35{fill:#273339;stroke:#273339;stroke-miterlimit:10;}
	.st36{opacity:0.7;fill:#FFFFFF;stroke:#3566F6;stroke-width:2;stroke-linecap:round;stroke-linejoin:round;stroke-miterlimit:10;}
	.st37{opacity:0.7;fill:#2962FF;stroke:#2962FF;stroke-width:2;stroke-miterlimit:10;}
	.st38{opacity:0.7;fill:#FFFFFF;stroke:#52DEB8;stroke-linecap:round;stroke-linejoin:round;stroke-miterlimit:10;}
	.st39{fill:#E4E4E4;stroke:#E4E4E4;stroke-miterlimit:10;}
	.st40{fill:#52DEB8;stroke:#52DEB8;stroke-width:2;stroke-miterlimit:10;}
	.st41{opacity:0.7;fill:#FFFFFF;stroke:#F97A68;stroke-width:2;stroke-linecap:round;stroke-linejoin:round;stroke-miterlimit:10;}
</style>
<path class="st0" d="M608.3,459.7l8.1-8.6c-5.9,0.4-25.5,2.3-39.7,16.2c-6.4,6.2-10.5,13.7-11.2,14.9c-4.3,7.8-5.9,14.8-6.6,18
	c-1.6,8.1-4.1,20.7,2.4,33.1c6.6,12.5,19.3,18.9,23.2,20.8c0.4,0.2,0.7,0.4,1.2,0.6c4,1.8,13.5,4.6,34.6,0.5
	c12-2.3,30.3-7.3,50.8-19.3"/>
<polyline class="st1" points="625.4,155.7 640.8,162.9 640.8,155.4 "/>
<g>
	<line class="st2" x1="185" y1="341" x2="185" y2="395"/>
	<line class="st2" x1="164.8" y1="399.4" x2="292.7" y2="399.4"/>
	<polyline class="st2" points="189.5,362.3 215.6,362.3 215.6,393.7 	"/>
	<polyline class="st2" points="197.8,356.5 228.8,356.5 228.8,393.7 	"/>
	<g>
		<g>
			<path class="st3" d="M192.5,409c15.1,0.5,30.2,0.7,45.3,0.6c4.2,0,8.5-0.1,12.7-0.1c1,0,2-0.9,2-2c0-1.1-0.9-2-2-2
				c-15.1,0.2-30.2,0.2-45.3-0.2c-4.2-0.1-8.5-0.2-12.7-0.3c-1,0-2,0.9-2,2C190.5,408.1,191.4,409,192.5,409L192.5,409z"/>
		</g>
	</g>
</g>
<g class="st4">
	<path class="st5" d="M540.8,376.1c1,1.1,1.6,2.5,1.6,4.4c0,1.8-0.5,3.3-1.6,4.4c-1,1.1-2.4,1.7-4.2,1.7c-1.7,0-3.1-0.6-4.2-1.7
		c-1-1.1-1.6-2.6-1.6-4.4c0-1.8,0.5-3.3,1.6-4.4c1-1.1,2.4-1.6,4.2-1.6C538.4,374.4,539.8,375,540.8,376.1z M535.4,378.5
		c-0.3,0.5-0.5,1.1-0.5,2c0,0.8,0.2,1.5,0.5,2c0.3,0.5,0.8,0.7,1.3,0.7c0.5,0,1-0.2,1.3-0.7c0.3-0.5,0.5-1.2,0.5-2
		c0-0.8-0.2-1.5-0.5-2c-0.3-0.5-0.8-0.7-1.3-0.7C536.1,377.8,535.7,378,535.4,378.5z M549.6,374.6h4.2l-13.7,19.7h-4.2L549.6,374.6z
		 M557.2,383.9c1,1.1,1.6,2.5,1.6,4.4s-0.5,3.3-1.6,4.4c-1,1.1-2.4,1.7-4.2,1.7c-1.7,0-3.1-0.6-4.2-1.7c-1-1.1-1.6-2.6-1.6-4.4
		c0-1.8,0.5-3.3,1.6-4.4c1-1.1,2.4-1.6,4.2-1.6C554.8,382.3,556.2,382.9,557.2,383.9z M551.7,386.4c-0.3,0.5-0.5,1.1-0.5,2
		s0.2,1.5,0.5,2c0.3,0.5,0.8,0.7,1.3,0.7c0.5,0,1-0.2,1.3-0.7c0.3-0.5,0.5-1.2,0.5-2s-0.2-1.5-0.5-2c-0.3-0.5-0.8-0.7-1.3-0.7
		C552.5,385.6,552.1,385.9,551.7,386.4z"/>
</g>
<g class="st4">
	<path class="st5" d="M571.4,197.5c1,1.1,1.6,2.5,1.6,4.4c0,1.8-0.5,3.3-1.6,4.4c-1,1.1-2.4,1.7-4.2,1.7c-1.7,0-3.1-0.6-4.2-1.7
		c-1-1.1-1.6-2.6-1.6-4.4c0-1.8,0.5-3.3,1.6-4.4c1-1.1,2.4-1.6,4.2-1.6C569,195.9,570.4,196.4,571.4,197.5z M566,199.9
		c-0.3,0.5-0.5,1.1-0.5,2c0,0.8,0.2,1.5,0.5,2c0.3,0.5,0.8,0.7,1.3,0.7c0.5,0,1-0.2,1.3-0.7c0.3-0.5,0.5-1.2,0.5-2
		c0-0.8-0.2-1.5-0.5-2c-0.3-0.5-0.8-0.7-1.3-0.7C566.7,199.2,566.3,199.5,566,199.9z M580.2,196h4.2l-13.7,19.7h-4.2L580.2,196z
		 M587.8,205.4c1,1.1,1.6,2.5,1.6,4.4c0,1.8-0.5,3.3-1.6,4.4c-1,1.1-2.4,1.7-4.2,1.7c-1.7,0-3.1-0.6-4.2-1.7c-1-1.1-1.6-2.6-1.6-4.4
		c0-1.8,0.5-3.3,1.6-4.4c1-1.1,2.4-1.6,4.2-1.6C585.4,203.8,586.8,204.3,587.8,205.4z M582.3,207.8c-0.3,0.5-0.5,1.1-0.5,2
		c0,0.8,0.2,1.5,0.5,2c0.3,0.5,0.8,0.7,1.3,0.7c0.5,0,1-0.2,1.3-0.7c0.3-0.5,0.5-1.2,0.5-2c0-0.8-0.2-1.5-0.5-2
		c-0.3-0.5-0.8-0.7-1.3-0.7C583.1,207.1,582.7,207.3,582.3,207.8z"/>
</g>
<g class="st4">
	<path class="st5" d="M695.3,244v5.6h-6.5v6.5h-5.6v-6.5h-6.5V244h6.5v-6.5h5.6v6.5H695.3z"/>
</g>
<polyline class="st2" points="102.2,174.4 59.4,174.4 59.4,184.2 218.6,184.2 "/>
<polyline class="st2" points="90.7,174.4 90.7,154.9 115.8,154.9 "/>
<polyline class="st2" points="118.4,174.4 118.4,132 143.2,132 "/>
<path class="st2" d="M144.8,170.5c0-1.1,0-56.3,0-56.3h46.5v70"/>
<g>
	<g>
		<path class="st3" d="M154.4,154.9c2.3,3.3,4.3,6.8,6,10.4c0.4,1,1.9,1.3,2.7,0.7c1-0.6,1.2-1.7,0.7-2.7c-1.7-3.7-3.7-7.1-6-10.4
			c-0.6-0.9-1.8-1.3-2.7-0.7C154.3,152.7,153.8,154,154.4,154.9L154.4,154.9z"/>
	</g>
</g>
<g>
	<g>
		<path class="st3" d="M157.6,137.3c4.1,8.3,8.3,16.5,12.6,24.7c1.3,2.3,2.5,4.7,3.8,7c0.5,0.9,1.8,1.3,2.7,0.7
			c0.9-0.6,1.3-1.8,0.7-2.7c-4.5-8.1-8.8-16.3-12.9-24.5c-1.2-2.4-2.4-4.7-3.5-7.1c-0.5-0.9-1.9-1.3-2.7-0.7
			C157.4,135.2,157.1,136.3,157.6,137.3L157.6,137.3z"/>
	</g>
</g>
<line class="st6" x1="13.9" y1="783.1" x2="992.4" y2="783.1"/>
<path class="st2" d="M782.8,660.4c0,0,2.7,50.2,0.2,68.2c-0.5,3.8-5.2,14.4-31.2,16.6"/>
<g>
	<path class="st7" d="M681.8,878.4c-14.1,14.1-28.2,28.2-42.3,42.3c2.4-2.4,4.8-4.8,7.2-7.2"/>
	<g>
		<path class="st3" d="M680.4,877c-14.1,14.1-28.2,28.2-42.3,42.3c-1.8,1.8,1,4.7,2.8,2.8c2.4-2.4,4.8-4.8,7.2-7.2
			c1.8-1.8-1-4.7-2.8-2.8c-2.4,2.4-4.8,4.8-7.2,7.2c0.9,0.9,1.9,1.9,2.8,2.8c14.1-14.1,28.2-28.2,42.3-42.3
			C685,878,682.2,875.2,680.4,877L680.4,877z"/>
	</g>
</g>
<path class="st8" d="M792,665.1c-6.9,0-13.9,0-20.8,0c0,0-16.1-53.5,15.6-76.2c0,0,8-5,8,7.3s0,68.9,0,68.9H792z"/>
<g>
	<path class="st7" d="M692.6,768.1c0,35.2,0,70.4,0,105.6"/>
	<g>
		<path class="st3" d="M690.7,768.1c0,27.4,0,54.8,0,82.2c0,7.8,0,15.6,0,23.4c0,2.4,3.8,2.4,3.8,0c0-27.4,0-54.8,0-82.2
			c0-7.8,0-15.6,0-23.4C694.5,765.7,690.7,765.7,690.7,768.1L690.7,768.1z"/>
	</g>
</g>
<g>
	<path class="st7" d="M701,878.3c14.1,14.1,28.2,28.2,42.3,42.3c-2.4-2.4-4.8-4.8-7.2-7.2"/>
	<g>
		<path class="st3" d="M699.6,879.8c14.1,14.1,28.2,28.2,42.3,42.3c0.9-0.9,1.9-1.9,2.8-2.8c-2.4-2.4-4.8-4.8-7.2-7.2
			c-1.8-1.8-4.7,1-2.8,2.8c2.4,2.4,4.8,4.8,7.2,7.2c1.8,1.8,4.7-1,2.8-2.8c-14.1-14.1-28.2-28.2-42.3-42.3
			C700.6,875.1,697.8,877.9,699.6,879.8L699.6,879.8z"/>
	</g>
</g>
<path class="st8" d="M618.3,736.1l8,22.7h120c4.1,0,7.3-3.3,7.3-7.3V730l-30.3-17.5L618.3,736.1z"/>
<circle class="st9" cx="747.3" cy="926.9" r="8.5"/>
<path class="st10" d="M676.5,660.4c0,0-129.7,3.3-129.2,62.5c0,0,2.4,14.2,10.4,18.9c0,0-30.8,68.6,12.3,160.5l20.8-6.4
	c0,0-33.6-110.1,12.8-145.6c43.2-33.1,87.8,7.8,135.9-36.3c7.9-7.3,12.5-17.5,12.8-28.2c0.2-10.5-1.6-23-10.6-28.5L676.5,660.4z"/>
<path class="st10" d="M583.7,781.6c0,0,42.8,72.5,68,88.9l22.7-16.7c0,0-51.1-89.6-54.4-112.7c0,0-29,5.8-36.8,42.4"/>
<g>
	<g>
		<path class="st11" d="M657.7,857.5c8.3,3.7,16.8,8.5,21.4,16.6c2.4,4.2,3,8.7,3,13.5c0,3.7-0.2,8.2-3,11.1
			c-3.2,3.3-8.6,2.8-12.8,2.5c-2.6-0.2-2.6,3.8,0,4c4.6,0.3,9.8,0.5,13.8-2.1c4.1-2.7,5.5-7.4,5.9-12.1c0.4-5.2,0.1-10.7-1.9-15.6
			c-1.9-4.6-5-8.6-8.7-11.8c-4.6-4-10.1-6.9-15.6-9.4c-1-0.4-2.1-0.3-2.7,0.7C656.5,855.6,656.8,857.1,657.7,857.5L657.7,857.5z"/>
	</g>
</g>
<g>
	<g>
		<path class="st11" d="M578.4,892.3c4.8,6.9,4.7,15.6,4.5,23.6c0,2.2-0.1,4.5-1,6.6c-0.7,1.7-2,3.1-3.5,4.1c-2.6,1.8-5.9,2.4-9,1.9
			c-3.6-0.6-7.1-2.5-9.1-5.6c-1.4-2.1-4.9-0.1-3.5,2c4.6,7,14,9.7,21.6,6.3c4.4-2,7.5-5.9,8.2-10.7c0.4-2.5,0.3-5.1,0.4-7.6
			c0-2.4,0-4.8-0.2-7.2c-0.5-5.4-1.7-10.9-4.9-15.4C580.4,888.2,576.9,890.2,578.4,892.3L578.4,892.3z"/>
	</g>
</g>
<g>
	<path class="st3" d="M558,741.3c4.8-15,14.9-28.4,28.1-37.1c6.1-4,12.7-7.1,19.4-10.1"/>
	<g>
		<path class="st11" d="M559.9,741.9c0.3-1,0.7-2.1,1.1-3.1c0.2-0.5,0.3-0.9,0.5-1.4c0.1-0.2,0.2-0.5,0.3-0.7c0-0.1,0.1-0.2,0.2-0.4
			c-0.1,0.3,0-0.1,0.1-0.2c0.8-2,1.8-3.9,2.8-5.7c1-1.8,2.1-3.6,3.2-5.4c0.6-0.9,1.2-1.8,1.9-2.7c0.3-0.4,0.6-0.8,0.9-1.2
			c0.2-0.3,0.1-0.1,0-0.1c0.1-0.1,0.2-0.2,0.2-0.3c0.2-0.2,0.4-0.5,0.6-0.7c2.7-3.3,5.6-6.3,8.8-9.1c0.8-0.7,1.7-1.4,2.5-2.1
			c0,0,0.4-0.3,0.2-0.1s0.2-0.1,0.2-0.1c0.2-0.1,0.4-0.3,0.5-0.4c0.4-0.3,0.9-0.7,1.4-1c1.9-1.4,4-2.6,6-3.8
			c4.9-2.8,10.1-5.2,15.2-7.5c1-0.4,1.3-1.9,0.7-2.7c-0.6-1-1.7-1.2-2.7-0.7c-4.7,2.1-9.3,4.2-13.8,6.7c-4.2,2.3-8.1,5-11.8,8
			c-6.7,5.6-12.5,12.4-16.8,20c-2.5,4.3-4.5,8.9-6,13.6c-0.3,1,0.4,2.2,1.4,2.5C558.6,743.5,559.6,742.9,559.9,741.9L559.9,741.9z"
			/>
	</g>
</g>
<g>
	<g>
		<path class="st3" d="M332,537.2c0,29.3,0,58.7,0,88c0,8.3,0,16.7,0,25c0,3.2,5,3.2,5,0c0-29.3,0-58.7,0-88c0-8.3,0-16.7,0-25
			C337,534,332,534,332,537.2L332,537.2z"/>
	</g>
</g>
<g>
	<path class="st12" d="M374.9,576.3c9.5,23.5,18.9,47,28.2,70.5"/>
	<g>
		<path class="st3" d="M372.5,577c7.4,18.2,14.7,36.5,22,54.8c2.1,5.2,4.1,10.5,6.2,15.7c0.5,1.3,1.7,2.1,3.1,1.7
			c1.2-0.3,2.2-1.8,1.7-3.1c-7.2-18.3-14.5-36.6-21.8-54.9c-2.1-5.2-4.2-10.4-6.3-15.6c-0.5-1.3-1.7-2.1-3.1-1.7
			C373.1,574.2,372,575.7,372.5,577L372.5,577z"/>
	</g>
</g>
<path class="st13" d="M668,456.3c0,0-11.4,11.8,3.3,36c14.7,24.1,24.6,38.3,25.1,41.2c0.5,2.8,14.7,9.5,20.8-9c0,0-8-23.7-2.8-40.2
	c5.2-16.6,4.7-22.8,0.5-20.9c-4.3,1.9-9.5-14.6-13.7-14.6S682.7,443.1,668,456.3z"/>
<path class="st14" d="M725.9,526.1c0,0-55.3,0-73.4,19.3s6.8,102.6,15.3,112.7c8.5,10.1,79.2,2.4,79.2,2.4S773.3,528.3,725.9,526.1z
	"/>
<path class="st15" d="M393.9,519.5c-2,2.8-3.9,2.4-17.3,7.9c-15.9,6.6-17.1,8.8-21,8.1c-10.6-1.8-23-21.2-16-38.3
	c6.1-15,23.3-22.2,38.3-16C394.8,488.2,400,510.8,393.9,519.5z"/>
<rect x="153.2" y="662.7" class="st16" width="359.8" height="27.5"/>
<polygon class="st16" points="157.9,931.6 178.8,931.6 259.3,690.2 235.6,690.2 "/>
<polygon class="st8" points="511.4,931.6 490.6,931.6 410.1,690.2 433.8,690.2 "/>
<g>
	<path class="st12" d="M478.9,655.8c-25.3,0.1-50.6,0-76-0.2"/>
	<g>
		<path class="st3" d="M478.9,653.3c-19.7,0.1-39.5,0-59.2-0.1c-5.6,0-11.2-0.1-16.7-0.1c-3.2,0-3.2,5,0,5
			c19.7,0.2,39.5,0.2,59.2,0.2c5.6,0,11.2,0,16.7,0C482.1,658.3,482.1,653.3,478.9,653.3L478.9,653.3z"/>
	</g>
</g>
<path class="st17" d="M692.2,431.8c0,0-36-13.7-41.2,10.4c-5.2,24.1,51.6,20.8,59.2,4.7c0,0,55.3-9.1,45.6-52.9
	c-1.1-4.9-4.5-9-9.2-10.8C736.4,379.6,716.8,381.9,692.2,431.8z"/>
<line class="st18" x1="641.5" y1="434.5" x2="627.1" y2="430.8"/>
<line class="st18" x1="648" y1="420" x2="636.8" y2="410.2"/>
<line class="st18" x1="658.2" y1="412.7" x2="654.5" y2="398.3"/>
<g>
	<g>
		<path class="st3" d="M363.8,653.8c-19.4,0.1-38.8,0-58.2-0.2c-3.2,0-3.2,5,0,5c19.4,0.2,38.8,0.2,58.2,0.2
			C367,658.8,367,653.8,363.8,653.8L363.8,653.8z"/>
	</g>
</g>
<circle class="st9" cx="635.6" cy="927" r="8.5"/>
<line class="st19" x1="391.9" y1="570.3" x2="400.8" y2="558.3"/>
<line class="st19" x1="412" y1="616.6" x2="426" y2="611.5"/>
<line class="st19" x1="404.3" y1="593.8" x2="416.7" y2="585.5"/>
<line class="st19" x1="419" y1="641" x2="433.7" y2="638.7"/>
<g>
	<g>
		<path class="st11" d="M656.9,474.2c1.2,2.9,4,4.5,7.1,4.5c2.8,0,6.4-0.9,8.2-3.2c0.5-0.6,0.6-1.5,0-2.1c-0.5-0.5-1.6-0.6-2.1,0
			c-1.3,1.6-3.6,2.3-5.6,2.4c-1.8,0.1-3.9-0.6-4.6-2.3c-0.3-0.7-1-1.3-1.8-1C657.3,472.6,656.6,473.5,656.9,474.2L656.9,474.2z"/>
	</g>
</g>
<g>
	<g>
		<path class="st11" d="M678,474.6c2,1.9,4.7,2.8,7.4,2.3c2.5-0.4,4.7-2,5.9-4.2c0.4-0.7,0.2-1.6-0.5-2.1c-0.7-0.4-1.6-0.2-2.1,0.5
			c-0.8,1.5-2.2,2.4-3.9,2.8c-0.7,0.1-1.6,0-2.4-0.2c-0.8-0.3-1.6-0.7-2.2-1.3c-0.6-0.6-1.5-0.6-2.1,0
			C677.5,473.1,677.4,474,678,474.6L678,474.6z"/>
	</g>
</g>
<g>
	<g>
		<path class="st11" d="M674.4,508.4c3.3,1,6.7,0.1,9.6-1.6c1.4-0.8,2.8-1.9,4-3c1.2-1,2.5-2,3.3-3.4c1-1.7-1.6-3.2-2.6-1.5
			c-0.6,1.1-1.8,1.9-2.7,2.7c-1,0.9-2.1,1.7-3.3,2.4c-2.3,1.4-4.9,2.2-7.5,1.5C673.3,505,672.5,507.9,674.4,508.4L674.4,508.4z"/>
	</g>
</g>
<g>
	<g>
		<path class="st11" d="M672.5,483.6c0.3,3.8-1,7.5-1.3,11.3c-0.1,1-0.2,2,0.5,2.8c0.7,0.8,1.8,0.8,2.8,0.8c1,0,1.8-0.3,2.6-0.8
			c0.5-0.3,1.2-0.8,1.7-0.9c0.8-0.1,1.5-0.6,1.5-1.5c0-0.7-0.7-1.6-1.5-1.5c-0.8,0.1-1.5,0.3-2.2,0.7c-0.5,0.3-1,0.7-1.5,0.8
			c-0.3,0.1-0.6,0.1-1,0.1c-0.1,0-0.7-0.1-0.7,0c0.2,0.2,0.5,0.5,0.7,0.7c0-0.1,0-0.1,0-0.2c0.1-0.4,0-0.8,0.1-1.2
			c0-0.4,0.1-0.8,0.1-1.2c0.5-3.3,1.4-6.6,1.1-10c-0.1-0.8-0.6-1.5-1.5-1.5C673.2,482.1,672.4,482.8,672.5,483.6L672.5,483.6z"/>
	</g>
</g>
<path class="st20" d="M681.5,146c0,0-8.5,2.7-10.7,8.4c0,0-14-14.6-25.6-7.1c-11.6,7.6-2.8,31.6,11.1,39.8"/>
<path class="st21" d="M686.8,157.4c-2.1-1.1-4.6-1.3-6.7-0.3c-1.6,0.8-3.1,2.3-3.5,5.1c-1.2,6.8-0.6,12-0.6,12s-11.8,3.8-12.9,10.4
	c-1.1,6.5,6.3,9.2,15,6.8C686.5,189.1,707,168.3,686.8,157.4z"/>
<ellipse transform="matrix(0.5386 -0.8425 0.8425 0.5386 193.4399 647.0362)" class="st22" cx="687.5" cy="146.9" rx="3.5" ry="2.9"/>
<ellipse transform="matrix(0.5386 -0.8425 0.8425 0.5386 191.8153 654.2277)" class="st22" cx="693.3" cy="152" rx="3.2" ry="2.6"/>
<ellipse transform="matrix(0.7071 -0.7071 0.7071 0.7071 92.7438 540.094)" class="st22" cx="698.3" cy="158.1" rx="2.8" ry="2.2"/>
<ellipse transform="matrix(0.9688 -0.248 0.248 0.9688 -18.7064 178.813)" class="st22" cx="700.5" cy="163.7" rx="2.1" ry="1.7"/>
<ellipse transform="matrix(7.940274e-02 -0.9968 0.9968 7.940274e-02 476.5359 853.6624)" class="st22" cx="700.5" cy="168.8" rx="1.4" ry="1.7"/>
<g class="st23">
	<path class="st24" d="M482.7,368h-71.5c-2.2,0-3.9-1.8-3.9-3.9v-37.8c0-2.2,1.8-3.9,3.9-3.9h71.5c2.2,0,3.9,1.8,3.9,3.9v37.8
		C486.6,366.3,484.8,368,482.7,368z"/>
	<line class="st24" x1="451.9" y1="339.9" x2="474.5" y2="339.9"/>
	<line class="st24" x1="451.9" y1="348.7" x2="474.5" y2="348.7"/>
	<g>
		<path class="st24" d="M442,351.2c0-4.6-3.1-8.4-7.3-9.6c1.2-1,1.8-2.5,1.5-4.2c-0.3-1.7-1.7-3-3.3-3.4c-2.8-0.6-5.2,1.5-5.2,4.2
			c0,1.3,0.6,2.5,1.6,3.3c-4.2,1.2-7.3,5.1-7.3,9.6"/>
	</g>
</g>
<polyline class="st1" points="379.7,332.3 407.4,345.2 407.4,331.7 "/>
<polygon class="st25" points="671.8,301.2 657.5,310.4 655,300.1 "/>
<g class="st23">
	<g>
		<path class="st26" d="M670.3,295.7h-10.7v-8.5c0-3.5,2.9-6.4,6.4-6.4c3.5,0,6.4,2.9,6.4,6.4v6.4
			C672.4,294.8,671.5,295.7,670.3,295.7z"/>
	</g>
	<g>
		<path class="st26" d="M621.3,334.1c0,3.5-2.9,6.4-6.4,6.4h38.4c3.5,0,6.4-2.9,6.4-6.4v-46.9c0-3.5,2.9-6.4,6.4-6.4h-38.4
			c-3.5,0-6.4,2.9-6.4,6.4V334.1z"/>
	</g>
	<g>
		<path class="st26" d="M608.5,334.1c0,3.5,2.9,6.4,6.4,6.4h38.4c-3.5,0-6.4-2.9-6.4-6.4V332c0-1.2-1-2.1-2.1-2.1h-34.1
			c-1.2,0-2.1,1-2.1,2.1V334.1z"/>
	</g>
</g>
<g class="st23">
	<path class="st27" d="M653.2,291.5h-25.6c-1.2,0-2.1-1-2.1-2.1s1-2.1,2.1-2.1h25.6c1.2,0,2.1,1,2.1,2.1S654.4,291.5,653.2,291.5z"
		/>
</g>
<g class="st23">
	<path class="st27" d="M653.2,302.1h-25.6c-1.2,0-2.1-1-2.1-2.1c0-1.2,1-2.1,2.1-2.1h25.6c1.2,0,2.1,1,2.1,2.1
		C655.4,301.2,654.4,302.1,653.2,302.1z"/>
</g>
<g class="st23">
	<path class="st27" d="M653.2,312.8h-25.6c-1.2,0-2.1-1-2.1-2.1s1-2.1,2.1-2.1h25.6c1.2,0,2.1,1,2.1,2.1S654.4,312.8,653.2,312.8z"
		/>
</g>
<g class="st23">
	<path class="st27" d="M653.2,323.4h-25.6c-1.2,0-2.1-1-2.1-2.1c0-1.2,1-2.1,2.1-2.1h25.6c1.2,0,2.1,1,2.1,2.1
		C655.4,322.5,654.4,323.4,653.2,323.4z"/>
</g>
<rect x="647.7" y="274" class="st28" width="26.2" height="26.2"/>
<g class="st4">
	<g>
		<path class="st27" d="M652.2,288.3c0.6,1.1,1.1,2.2,1.8,3.2c0.6,1,1.1,2.2,1.9,3c2.2,2.1,4.1-1.5,5.3-3c2.9-3.5,6.1-6.8,9.6-9.6
			c0.7-0.6,0.6-1.7,0-2.3c-0.7-0.7-1.6-0.6-2.3,0c-2.3,1.9-4.4,3.9-6.4,6c-1,1-1.9,2.1-2.8,3.2c-0.5,0.6-1,1.2-1.5,1.9
			c-0.2,0.3-0.5,0.6-0.7,0.9c-0.1,0.2-0.2,0.3-0.3,0.5c-0.3,0.4-0.2,0.3,0.2-0.1c0.3,0,0.6,0,0.9,0c0.4,0.3,0.5,0.4,0.3,0.1
			c-0.1-0.1-0.2-0.3-0.2-0.4c-0.1-0.2-0.3-0.4-0.4-0.6c-0.3-0.5-0.6-1-0.9-1.4c-0.6-1-1.1-2-1.6-2.9
			C654,284.8,651.3,286.4,652.2,288.3L652.2,288.3z"/>
	</g>
</g>
<path class="st29" d="M1640.3,91.2"/>
<polyline class="st1" points="828.7,253.1 800.4,266.3 800.4,252.5 "/>
<g class="st23">
	<g>
		<path class="st30" d="M800.7,251.7h-16.2c-0.5,0-0.9-0.4-0.9-0.9s0.4-0.9,0.9-0.9h16.2c0.5,0,0.9,0.4,0.9,0.9
			S801.2,251.7,800.7,251.7z"/>
		<path class="st30" d="M768.3,251.7h-16.2c-0.5,0-0.9-0.4-0.9-0.9s0.4-0.9,0.9-0.9h16.2c0.5,0,0.9,0.4,0.9,0.9
			S768.8,251.7,768.3,251.7z"/>
		<path class="st30" d="M802.2,245.1h-51.7c-0.5,0-0.9-0.4-0.9-0.9c0-0.5,0.4-0.9,0.9-0.9h51.7c0.5,0,0.9,0.4,0.9,0.9
			C803.1,244.7,802.7,245.1,802.2,245.1z"/>
		<path class="st30" d="M794.1,238.4h-35.4c-0.5,0-0.9-0.4-0.9-0.9s0.4-0.9,0.9-0.9h35.4c0.5,0,0.9,0.4,0.9,0.9
			C795,238,794.6,238.4,794.1,238.4L794.1,238.4z"/>
		<path class="st30" d="M786,231.8h-19.2c-0.5,0-0.9-0.4-0.9-0.9s0.4-0.9,0.9-0.9H786c0.5,0,0.9,0.4,0.9,0.9S786.5,231.8,786,231.8z
			"/>
		<path class="st30" d="M766.6,258.3h-14.5c-0.5,0-0.9-0.4-0.9-0.9c0-0.5,0.4-0.9,0.9-0.9h14.5c0.5,0,0.9,0.4,0.9,0.9
			C767.5,257.9,767.1,258.3,766.6,258.3z"/>
		<path class="st30" d="M766.6,265h-14.6c-0.5,0-0.9-0.4-0.9-0.9s0.4-0.9,0.9-0.9h14.6c0.5,0,0.9,0.4,0.9,0.9S767.1,265,766.6,265z"
			/>
		<path class="st30" d="M770.3,271.6h-18.3c-0.5,0-0.9-0.4-0.9-0.9s0.4-0.9,0.9-0.9h18.3c0.5,0,0.9,0.4,0.9,0.9
			S770.8,271.6,770.3,271.6z"/>
		<path class="st30" d="M800.7,258.3h-14.5c-0.5,0-0.9-0.4-0.9-0.9c0-0.5,0.4-0.9,0.9-0.9h14.5c0.5,0,0.9,0.4,0.9,0.9
			C801.6,257.9,801.2,258.3,800.7,258.3z"/>
		<path class="st30" d="M800.7,265h-14.6c-0.5,0-0.9-0.4-0.9-0.9s0.4-0.9,0.9-0.9h14.6c0.5,0,0.9,0.4,0.9,0.9S801.2,265,800.7,265z"
			/>
		<path class="st30" d="M800.7,271.6h-18.3c-0.5,0-0.9-0.4-0.9-0.9s0.4-0.9,0.9-0.9h18.3c0.5,0,0.9,0.4,0.9,0.9
			S801.2,271.6,800.7,271.6z"/>
	</g>
	<g>
		<path class="st31" d="M800.7,246.5c-0.5,0-0.9,0.4-0.9,0.9v30.1H753v-30.1c0-0.5-0.4-0.9-0.9-0.9c-0.5,0-0.9,0.4-0.9,0.9v30.9
			c0,0.5,0.4,0.9,0.9,0.9h48.6c0.5,0,0.9-0.4,0.9-0.9v-30.9C801.6,246.9,801.2,246.5,800.7,246.5L800.7,246.5z"/>
		<path class="st31" d="M806.4,238.6l-29.4-24.1c-0.3-0.3-0.8-0.3-1.1,0l-29.4,24.1c-1,0.9-1.6,2.2-1.4,3.5c0.2,1.4,1.1,2.6,2.4,3.1
			c0.5,0.2,1,0.3,1.5,0.3c0.9,0,1.7-0.3,2.5-0.9l25.1-20.5l25.1,20.5c1.1,0.9,2.6,1.1,3.9,0.6c1.3-0.5,2.2-1.7,2.4-3.1
			C807.9,240.8,807.4,239.5,806.4,238.6L806.4,238.6z M806,241.9c-0.1,0.8-0.6,1.4-1.3,1.7c-0.7,0.3-1.5,0.2-2.1-0.3l-25.6-21
			c-0.3-0.3-0.8-0.3-1.1,0l-25.6,21c-0.6,0.5-1.4,0.6-2.1,0.3c-0.7-0.3-1.2-0.9-1.3-1.7c-0.1-0.7,0.2-1.4,0.8-1.9l28.9-23.6
			l28.9,23.6C805.8,240.5,806.1,241.2,806,241.9z"/>
	</g>
	<path class="st31" d="M779.5,258.4c0-1.7-1.4-3.1-3.1-3.1c-1.7,0-3.1,1.4-3.1,3.1c0,1.4,0.9,2.6,2.2,2.9v3.8c0,0.5,0.4,0.9,0.9,0.9
		c0.5,0,0.9-0.4,0.9-0.9v-3.8C778.5,261,779.5,259.8,779.5,258.4z M776.4,259.7c-0.7,0-1.3-0.6-1.3-1.3c0-0.7,0.6-1.3,1.3-1.3
		c0.7,0,1.3,0.6,1.3,1.3C777.7,259.1,777.1,259.7,776.4,259.7z"/>
</g>
<rect x="796.6" y="220.7" transform="matrix(-1 -1.224647e-16 1.224647e-16 -1 1625.33 473.4692)" class="st32" width="32.1" height="32.1"/>
<path class="st33" d="M488,264.6l-16.6-12.4l21.3-0.1c0,0-4.2,2.7-4.6,5.9C487.9,261.1,488,264.6,488,264.6z"/>
<path class="st34" d="M523.1,256.9h13.1c0.5,0,0.8-0.4,0.8-0.8s-0.4-0.8-0.8-0.8h-13.1c-0.5,0-0.8,0.4-0.8,0.8
	S522.7,256.9,523.1,256.9z"/>
<path class="st34" d="M519.3,258v10.5c0,0.4,0.4,0.7,0.8,0.7c0.5,0,0.8-0.3,0.8-0.7V258c0-0.4-0.4-0.7-0.8-0.7
	C519.7,257.4,519.3,257.7,519.3,258z"/>
<path class="st34" d="M499.2,256.9h17.2c0.5,0,0.8-0.4,0.8-0.8s-0.4-0.8-0.8-0.8h-17.2c-0.5,0-0.8,0.4-0.8,0.8
	S498.8,256.9,499.2,256.9z"/>
<path class="st34" d="M541.2,277.2c2,0,3.7-1.7,3.7-3.7s-1.7-3.7-3.7-3.7c-2,0-3.7,1.7-3.7,3.7c0,0,0,0,0,0
	C537.5,275.6,539.1,277.2,541.2,277.2z M541.2,271.5c1.1,0,2,0.9,2,2c0,1.1-0.9,2-2,2c-1.1,0-2-0.9-2-2c0,0,0,0,0,0
	C539.1,272.4,540.1,271.5,541.2,271.5z"/>
<path class="st34" d="M503.7,277.2c2,0,3.7-1.7,3.7-3.7s-1.7-3.7-3.7-3.7c-2,0-3.7,1.7-3.7,3.7c0,0,0,0,0,0
	C500,275.6,501.7,277.2,503.7,277.2z M503.7,271.5c1.1,0,2,0.9,2,2c0,1.1-0.9,2-2,2c-1.1,0-2-0.9-2-2c0,0,0,0,0,0
	C501.7,272.4,502.6,271.5,503.7,271.5z"/>
<g class="st23">
	<path class="st35" d="M487.4,253.2L487.4,253.2l9.6-12c1.8-2.3,4.5-3.6,7.4-3.6h8c0,0,0.1,0,0.1,0h13.2c0,0,0.1,0,0.1,0h1.5
		c2.8,0,5.5,1.2,7.3,3.4l9.5,11.3c1.5,1.8,3.7,2.8,6,2.8h1.4c5.2,0,9.5,4.3,9.5,9.5v5.6c0,2.5-2.1,4.6-4.6,4.6h-1.2
		c-0.5,0-0.8-0.4-0.8-0.8s0.4-0.8,0.8-0.8h1.2c1.6,0,2.9-1.3,2.9-2.9v-5.6c0-4.3-3.5-7.8-7.8-7.8h-1.4c-2.8,0-5.5-1.2-7.3-3.4
		l-9.5-11.3c-1.5-1.8-3.7-2.8-6-2.8h-23c-2.4,0-4.6,1.1-6.1,2.9l-9.6,12c-1.1,1.4-1.7,3.1-1.7,4.9v11.3c0,1.6,1.3,2.9,2.9,2.9
		c0.5,0,0.8,0.4,0.8,0.8s-0.4,0.8-0.8,0.8c-2.5,0-4.6-2.1-4.6-4.6v-11.3C485.3,257,486,254.9,487.4,253.2z"/>
	<path class="st35" d="M517.9,273.3h9.1c0.5,0,0.8,0.4,0.8,0.8s-0.4,0.8-0.8,0.8h-9.1c-0.5,0-0.8-0.4-0.8-0.8
		S517.4,273.3,517.9,273.3z"/>
	<path class="st35" d="M541.2,262.9c5.9,0,10.7,4.8,10.7,10.7c0,5.9-4.8,10.7-10.7,10.7c-5.9,0-10.7-4.8-10.7-10.7
		C530.5,267.6,535.3,262.9,541.2,262.9z M541.2,282.6c5,0,9-4,9-9s-4-9-9-9c-5,0-9,4-9,9c0,0,0,0,0,0
		C532.2,278.5,536.2,282.6,541.2,282.6z"/>
	<path class="st35" d="M503.7,262.9c5.9,0,10.7,4.8,10.7,10.7c0,5.9-4.8,10.7-10.7,10.7c-5.9,0-10.7-4.8-10.7-10.7
		C493,267.6,497.8,262.9,503.7,262.9z M503.7,282.6c5,0,9-4,9-9s-4-9-9-9s-9,4-9,9c0,0,0,0,0,0C494.7,278.5,498.7,282.6,503.7,282.6
		z"/>
</g>
<rect x="469.8" y="220.1" class="st36" width="31" height="31"/>
<rect x="556.3" y="312.9" transform="matrix(-1 -1.224647e-16 1.224647e-16 -1 1131.7711 631.4157)" class="st37" width="19.1" height="5.6"/>
<rect x="701.3" y="338.6" class="st37" width="12.6" height="2.5"/>
<g>
	<g>
		<path class="st3" d="M170.8,133.9c2.4,6.9,4.4,13.9,6,21.1c0.2,1,1.5,1.7,2.5,1.4c1.1-0.3,1.6-1.4,1.4-2.5
			c-1.6-7.1-3.6-14.2-6-21.1c-0.3-1-1.4-1.7-2.5-1.4C171.2,131.8,170.5,132.9,170.8,133.9L170.8,133.9z"/>
	</g>
</g>
<rect x="625.6" y="138" class="st38" width="17.5" height="17.5"/>
<circle class="st39" cx="357.8" cy="516.4" r="7.6"/>
<g>
	<g>
		<path class="st3" d="M352.3,521.8c-11.5,21.2-23.9,42-37.2,62.2c-3.7,5.7-7.6,11.4-11.4,17c-1.4,2,1.9,3.9,3.2,1.9
			c13.7-19.9,26.6-40.3,38.6-61.3c3.4-5.9,6.7-11.9,10-17.9C356.7,521.6,353.4,519.7,352.3,521.8L352.3,521.8z"/>
	</g>
</g>
<g>
	<path class="st40" d="M704.9,555.3c-3-4.8-5.4-8.9-7.1-12.1c-1-1.8-4.9-9.6-3.3-11.5c0.5-0.6,1.2-1.1,2.2-1.3c5.7-1.6-3-9.5,0-10.5
		c2.1-0.7,6.7,7.7,8.5,13C706.5,536.7,708.2,544.4,704.9,555.3z"/>
	<path class="st0" d="M727.1,525.6c2.7-0.1,6,0,9.7,0.8c4.8,1,8.3,2.8,9.4,3.3c1.8,0.9,4.2,2.2,6.6,4.6c0.2,0.2,0.4,0.4,0.6,0.6
		c0.8,0.9,2.8,3,4.8,6.1c2.3,3.5,3.8,6.8,4.3,7.9c4.6,10.4,8.5,21.9,8.9,23.2c4.4,13.8,5.3,19.4,5.6,21.2c0.6,3.7,1,7,1.2,9.8
		c1,13.1,2,27.1-6.9,34.4c-4.5,3.7-9.6,4.2-10.7,4.3c-14.4,1.1-26.3-15.8-32.9-25.3c-7.6-10.9-19.6-31.8-23.3-64.3"/>
</g>
<rect x="380" y="300.4" class="st41" width="31.4" height="31.4"/>
<g class="st4">
	<g>
		<path class="st27" d="M387.1,317.3c0.6,1.1,1.2,2.2,1.8,3.2c0.6,1,1.1,2.2,1.9,3c2.2,2.1,4-1.6,5.1-3c2.9-3.6,6.2-6.9,9.7-9.8
			c0.6-0.5,0.5-1.6,0-2.1c-0.6-0.6-1.5-0.5-2.1,0c-2.3,1.9-4.5,3.9-6.5,6.1c-1,1.1-1.9,2.1-2.8,3.2c-0.5,0.6-1,1.2-1.5,1.9
			c-0.2,0.3-0.5,0.6-0.7,0.9c-0.1,0.2-0.2,0.3-0.3,0.5c-0.3,0.3-0.2,0.3,0.2,0c0.3,0,0.5,0,0.8,0c0.3,0.3,0.4,0.3,0.2,0.1
			c-0.1-0.1-0.2-0.3-0.2-0.4c-0.1-0.2-0.3-0.4-0.4-0.7c-0.3-0.5-0.6-1-0.9-1.5c-0.6-1-1.1-2-1.6-3
			C388.8,314,386.2,315.6,387.1,317.3L387.1,317.3z"/>
	</g>
</g>
</svg>
