<?xml version="1.0" encoding="utf-8"?>
<!-- Generator: Adobe Illustrator 24.0.1, SVG Export Plug-In . SVG Version: 6.00 Build 0)  -->
<svg version="1.1" id="Layer_1" xmlns="http://www.w3.org/2000/svg" xmlns:xlink="http://www.w3.org/1999/xlink" x="0px" y="0px"
	 viewBox="0 0 800 800" style="enable-background:new 0 0 800 800;" xml:space="preserve">
<style type="text/css">
	.st0{fill:none;stroke:#EF9A9A;stroke-width:3;stroke-miterlimit:10;}
	.st1{fill:none;stroke:#E0E0E0;stroke-width:3;stroke-miterlimit:10;}
	.st2{opacity:0.8;fill:#E0E0E0;stroke:#E0E0E0;stroke-width:3;stroke-miterlimit:10;}
	.st3{opacity:0.8;fill:#E0E0E0;}
	.st4{fill:none;stroke:#263238;stroke-width:2.4908;stroke-miterlimit:10;}
	.st5{fill:#E0E0E0;stroke:#616262;stroke-width:3;stroke-miterlimit:10;}
	.st6{fill:#616262;}
	.st7{fill:none;stroke:#2962FF;stroke-miterlimit:10;}
	.st8{fill:#FFFFFF;stroke:#616262;stroke-width:3;stroke-miterlimit:10;}
	.st9{fill:none;stroke:#616262;stroke-miterlimit:10;}
	.st10{fill:#616261;}
	.st11{fill:none;stroke:#FCC26B;stroke-width:2;stroke-miterlimit:10;}
	.st12{fill:#E4E4E4;}
	.st13{fill:#CBCBCB;}
	.st14{fill:#E0E0E0;stroke:#E0E0E0;stroke-width:3;stroke-miterlimit:10;}
	.st15{fill:#FFFFFF;stroke:#263238;stroke-miterlimit:10;}
	.st16{fill:#2962FF;stroke:#263238;stroke-miterlimit:10;}
	.st17{opacity:0.6;fill:#FFFFFF;stroke:#2962FF;stroke-width:2.0601;stroke-miterlimit:10;}
	
		.st18{opacity:0.6;fill:#FFFFFF;stroke:#2962FF;stroke-width:2.7259;stroke-linecap:round;stroke-linejoin:round;stroke-miterlimit:10;}
	.st19{opacity:0.6;}
	.st20{fill:#FCC26B;}
	.st21{opacity:0.4;fill:#2962FF;stroke:#2962FF;stroke-miterlimit:10;}
	.st22{fill:#2962FF;stroke:#2962FF;stroke-miterlimit:10;}
</style>
<line class="st0" x1="463.5" y1="401.5" x2="455.5" y2="397.5"/>
<path class="st1" d="M367.2,80.6c0,47,0,93.9,0,140.9c0,23.5,0,46.9,0,70.4c-96.1,0-192.2,0-288.3,0V80.6
	C174.9,80.6,271.1,80.6,367.2,80.6"/>
<path class="st1" d="M453.8,46c0,16.2,0,32.4,0,48.6c0,8.1,0,16.2,0,24.3c-33.8,0-67.6,0-101.4,0V46C386.2,46,420,46,453.8,46"/>
<rect x="352.4" y="80.6" transform="matrix(-1 -1.224647e-16 1.224647e-16 -1 719.5906 199.0261)" class="st2" width="14.7" height="37.8"/>
<path class="st1" d="M466,21c0,66.9,0,133.8,0,200.7c0,33.4,0,66.9,0,100.3c-135.7,0-271.4,0-407.1,0V21C194.6,21,330.3,21,466,21"
	/>
<ellipse class="st3" cx="85.3" cy="86.3" rx="2.5" ry="2"/>
<ellipse class="st3" cx="94.6" cy="86.3" rx="2.5" ry="2"/>
<ellipse class="st3" cx="358.6" cy="50.5" rx="2.5" ry="2"/>
<ellipse class="st3" cx="367.9" cy="50.5" rx="2.5" ry="2"/>
<rect x="58.9" y="21" transform="matrix(-1 -1.224647e-16 1.224647e-16 -1 524.9497 50.2708)" class="st2" width="407.1" height="8.3"/>
<line class="st4" x1="2.7" y1="608.1" x2="796.9" y2="608.1"/>
<path class="st5" d="M368.5,606.5c-2.7,29.3-5.3,58.7-8,88l9,9c5-24,10-48,15-72"/>
<path class="st0" d="M406.6,282.3c2,2.2,4.7,5.4,7.5,9.5c6.7,9.8,15.6,27.2,16.5,67.9c0.4,19.3,2.2,45.1-6.1,77.9"/>
<path class="st5" d="M370.5,561.5c0.9-15.2,1.9-30.5,3-46c0.9-12.9,1.9-25.6,2.9-38.3c0-0.1-0.2-0.2-0.2-0.1c-3.2,8-7,19.8-8.7,34.3
	c-5.1,42.6,11.3,76.6,21,96c5.9,11.8,15.2,27.8,30,45c0,0,0,0.1,0,0.1c-2,5.6-3.9,11.2-5.9,16.8c0,0.1-0.1,0.1-0.2,0
	c-32.7-42.6-54.2-77.9-67.9-102.8c-6.9-12.6-10.1-19.9-12-24c-13.3-29.6-34.5-78.4-17-119c1.6-3.8,3.3-6.7,4-7.9c0,0,0.1-0.1,0.1,0
	c34.3,1,68.6,2,102.9,3c0,0,0.1,0,0.1,0.1c0.9,2.9,2.1,7.4,3,12.9c6,36-8.1,64-17,88c-2.2,6-13.7,38.4-15.8,57
	c-0.6,5.3-1.2,11-1.2,11c-1,9.6-1.6,17.6-2,23"/>
<g>
	<g>
		<path class="st6" d="M363.8,689.3c2.3,7.5,2,16-0.6,23.4c-0.6,1.7-1.4,3.4-2.5,4.9c-0.9,1.3-2.1,2.5-3.6,2.9
			c-1.5,0.4-3.1-0.3-4.4-1.1c-1.5-1-2.8-2.2-4.1-3.5c-2.6-2.5-5.5-5.5-5.5-9.3c0-1.9-3-1.9-3,0c0.1,4.1,2.6,7.5,5.3,10.3
			c2.8,2.9,6.1,6.2,10.3,6.7c4.5,0.5,7.7-3.6,9.4-7.2c1.9-4,2.8-8.4,3.2-12.8c0.5-5.1,0-10.2-1.5-15.1
			C366.1,686.6,363.3,687.4,363.8,689.3L363.8,689.3z"/>
	</g>
</g>
<g>
	<g>
		<path class="st6" d="M409,658c2.2,4.5,4.5,9,6.7,13.5c2.1,4.2,4.4,8.5,5.8,13c1.3,4.4,1.9,9,1.6,13.5c-0.1,2.2-0.4,4.3-1,6.4
			c-0.3,1-0.7,2.1-1.2,3c-0.4,0.8-0.9,1.7-1.6,2.3c-0.7,0.6-1.8,0.7-2.7,0.8c-1,0-2.1-0.1-3.1-0.3c-2.1-0.5-4-1.6-5.6-3.2
			c-1.3-1.4-3.5,0.7-2.1,2.1c3.2,3.3,8,5,12.5,4.2c2.5-0.5,4-2.2,5.1-4.4c1.1-2.2,1.8-4.6,2.2-7c0.8-5,0.6-10.1-0.5-15
			c-1.1-5.1-3.3-9.7-5.6-14.3c-2.7-5.4-5.4-10.8-8.1-16.3c-0.4-0.7-1.4-0.9-2.1-0.5C408.8,656.4,408.6,657.3,409,658L409,658z"/>
	</g>
</g>
<path class="st7" d="M1260.5,137.5"/>
<path class="st8" d="M353.4,291.3c0.7-0.5,1.8-1.5,2.7-3c7.6-12.3-16.3-30.6-13.2-55.5c0.4-3.4,1.5-10.3,7-15.2
	c8.9-8,23.2-5.2,26.3-1.6c8.6,10.1,8.3,25.6,7,35c-2.3,16-10,27.7-15.3,34.3C363,287.4,358.2,289.3,353.4,291.3z"/>
<g>
	<g>
		<path class="st6" d="M368.1,238.9c1.9,2.3,3.8,4.7,5.1,7.4c0.3,0.6,0.6,1.4,0.6,2.1c0,0.1,0,0.5,0,0.6c0,0-0.3,0-0.4,0
			c-0.4,0-0.8,0-1.2,0c-1.6,0-3.3-0.1-4.9-0.1c-0.6,0-0.6,1,0,1c1.9,0.1,3.8,0.1,5.7,0.2c0.7,0,1.5,0.1,1.7-0.7
			c0.2-0.7,0-1.6-0.2-2.3c-0.6-1.6-1.6-3.1-2.5-4.4c-1-1.5-2.1-2.9-3.2-4.2C368.4,237.7,367.7,238.4,368.1,238.9L368.1,238.9z"/>
	</g>
</g>
<path class="st9" d="M357.8,254.1c0.5,2.2,2.4,3.8,4.5,4.1c2,0.2,4-0.7,5.1-2.4C364.2,255.2,361,254.7,357.8,254.1z"/>
<g>
	<g>
		<path class="st6" d="M370.6,235.5c0.2-1.1,1.1-1.9,2-2.5c0.8-0.6,1.7-0.9,2.7-1c2.2-0.1,4,1.3,5.3,3c0.5,0.6,1.6,0,1.1-0.6
			c-1.5-2-3.8-3.8-6.5-3.6c-1.2,0.1-2.4,0.5-3.4,1.2c-1.1,0.8-2.1,1.8-2.4,3.1C369.2,235.9,370.4,236.3,370.6,235.5L370.6,235.5z"/>
	</g>
</g>
<g>
	<g>
		<path class="st6" d="M352.8,235.5c0.2-1.1,1.1-1.9,2-2.5c0.8-0.6,1.7-0.9,2.7-1c2.2-0.1,4,1.3,5.3,3c0.5,0.6,1.6,0,1.1-0.6
			c-1.5-2-3.8-3.8-6.5-3.6c-1.2,0.1-2.4,0.5-3.4,1.2c-1.1,0.8-2.1,1.8-2.4,3.1C351.5,235.9,352.7,236.3,352.8,235.5L352.8,235.5z"/>
	</g>
</g>
<path class="st8" d="M403.1,279.4c-11.6-8.8-27.1-10.4-40.8-5.5c-10.6,3.8-25.2,11.3-32.1,24.8c-11.6,22.6,8.9,64.2,9.9,71.2
	c1.1,7-21.1,46.3-23.9,50.7c-2.7,4.4,7.4,11,23,9.9s84.7-5.5,84.9-7c0.2-1.5-5.1-8.4-8.2-15.4c-3.2-7-18.6-34.4-1.7-74.3
	C424.8,308.7,416.9,289.8,403.1,279.4z"/>
<path class="st10" d="M381.3,207.8c-0.1-1.5-0.6-2.9-1.7-4c-2.6-2.8-9.2-7.4-21.9-2.8c-17.5,6.4-25.9,16.7-18.4,22.4
	c0,0-18,4.2-29.3,13.9c-11.3,9.7,2.9,15,7.9,10.5c0,0-4,11.2,5,11.7c8.9,0.4,27.9-32,27.9-32S382.2,226,381.3,207.8z"/>
<path class="st11" d="M351,316.8c0.7-3.5,2-8.1,4-9c2.6-1.2,3.9,5.4,7.1,4.9c3-0.5,3.3-6.8,6.3-7.3c3.3-0.6,4.2,7,7.6,6.7
	c3.4-0.3,4-7.9,7.1-7.9c3.6,0,4.7,10.1,8.1,10.4c1.4,0.1,3.6-1.5,6.3-10.4"/>
<path class="st11" d="M351.9,332.3c0.7-3.5,2-8.1,4-9c2.6-1.2,3.9,5.4,7.1,4.9c3-0.5,3.3-6.8,6.3-7.3c3.3-0.6,4.2,7,7.6,6.7
	c3.4-0.3,4-7.9,7.1-7.9c3.6,0,4.7,10.1,8.1,10.4c1.4,0.1,3.6-1.5,6.3-10.4"/>
<path class="st11" d="M351.2,347.8c0.7-3.5,2-8.1,4-9c2.6-1.2,3.9,5.4,7.1,4.9c3-0.5,3.3-6.8,6.3-7.3c3.3-0.6,4.2,7,7.6,6.7
	c3.4-0.3,4-7.9,7.1-7.9c3.6,0,4.7,10.1,8.1,10.4c1.4,0.1,3.6-1.5,6.3-10.4"/>
<g>
	<g>
		<path class="st12" d="M144.5,454c0-1.3,0-2.7,0-4c9.6,0.4,19.2-0.7,28.9-0.7c19,0.1,37.9,0,56.9-0.1c0,2,0,4.1,0,6.1
			C201.8,454.5,173.1,454.3,144.5,454z"/>
		<path class="st12" d="M142.5,416.1c-0.6-4-0.6-4,3.5-4c26.8,0,53.7,0.1,80.5-0.1c3.3,0,4.5,0.9,3.8,4.1
			C201.1,416.1,171.8,416.1,142.5,416.1z"/>
		<path class="st12" d="M145.2,466c0-1.3,0-2.6-0.1-3.9c25,0,50,0,74.9,0c3.4,0,6.8-0.2,10.2,0.6c0,1.2,0,2.3,0,3.5
			c-3.7,0.8-7.5,1-11.2,0.5c-5.7-0.8-11.5-0.5-17.2-0.5C183,466,164.1,466,145.2,466z"/>
		<path class="st13" d="M142.6,422.7c0-0.6,0-1.3,0-1.9c3.4,0.8,6.8,0.6,10.2,0.6c25.9,0.1,51.7-0.4,77.6,0.7c0,1.3,0,2.6,0,3.9
			c-1.4,1-3,0.7-4.5,0.7c-27.6,0-55.1,0.1-82.7-0.6c-0.7-0.5-0.6-1.3-0.5-2c8.7,0,17.4,0.2,26.2,0.4c18.8,0.5,37.7,0.2,56.5,0.2
			c1,0,2.1,0.4,3.4-0.5C199.8,422.3,171.1,424.4,142.6,422.7z"/>
		<path class="st12" d="M146.6,498.1c0-1.4-0.1-2.7-0.1-4.1c27.9,0,55.9,0,83.8-0.1c0,1.4,0,2.7,0,4.1
			C202.4,498,174.5,498,146.6,498.1z"/>
		<path class="st12" d="M145.9,482.7c0-1.6,0-3.1,0-4.7c28.1,0,56.3,0,84.4,0c0,1.2,0,2.3,0,3.5c-9.4,0.1-18.7,0.1-28.1,0.4
			C183.4,482.5,164.6,481.5,145.9,482.7z"/>
		<path class="st12" d="M230.4,422.1c-25.8-1.1-51.7-0.6-77.6-0.7c-3.4,0-6.8,0.2-10.2-0.6c0-0.9,0-1.8-0.1-2.7
			c29.3,0,58.6,0,87.8-0.1C230.4,419.4,230.4,420.7,230.4,422.1z"/>
		<path class="st12" d="M230.3,457.3c0,0.9,0,1.9,0,2.8c-28.6,0-57.1,0-85.7,0c0-1.4,0-2.7-0.1-4.1c8.3,0.3,16.6,0.4,24.8,0.5
			C189.7,456.7,210,457.2,230.3,457.3z"/>
		<path class="st12" d="M145.9,487.4c0-0.9,0-1.9,0-2.8c11.9,0.5,23.8-0.6,35.7-0.6c16.2,0,32.5,0.2,48.7-0.7c0,1.6,0,3.2,0,4.8
			C202.2,486.8,174.1,487.4,145.9,487.4z"/>
		<path class="st12" d="M143.2,434.1c0-1.4,0-2.7,0-4.1c12,0.4,24.1,0,36.1,0.5c17,0.7,34,0.1,51,0.8c0,0.7,0,1.4,0,2.1
			C201.3,433.6,172.3,433.9,143.2,434.1z"/>
		<path class="st12" d="M147.9,518.6c0-1.3,0-2.7,0-4c23.8,0,47.6,0,71.4,0c3.7,0,7.4,0.4,11.1,0.6c0,0.9,0,1.8,0.1,2.8
			c-1.2-0.8-2.5-0.7-3.9-0.7c-5.3,0-10.6,0.4-15.9,0.5C189.7,518.2,168.8,517.7,147.9,518.6z"/>
		<path class="st12" d="M230.3,529.2c0,1.4,0,2.7,0,4.1c-1-0.7-2.1-0.7-3.2-0.7c-26.2,0-52.4,0.1-78.6,0.1c0-0.9,0-1.9,0-2.8
			C175.8,528.9,203.1,529.4,230.3,529.2z"/>
		<path class="st12" d="M145.3,476.1c0-1.1,0-2.3,0-3.4c15.9,0.4,31.9-0.3,47.8,0.6c12.4,0.6,24.8,0.1,37.3,0.1c0,0.9,0,1.8,0,2.8
			C202,476.1,173.6,476.1,145.3,476.1z"/>
		<path class="st12" d="M230.3,499.9c0,0.9,0,1.9,0,2.8c-9.1,0-18.1,0.3-27.2,0.5c-18.6,0.4-37.3,0.1-55.9,0.2c0-0.9,0-1.8,0-2.7
			c7.1,0.1,14.1-0.8,21.2-0.7C189.1,500.1,209.7,499.9,230.3,499.9z"/>
		<path class="st12" d="M147.9,523.3c0-0.9,0-1.9,0-2.8c6.9,0.2,13.7-0.4,20.5-0.5c19.6-0.3,39.2,0.1,58.8-0.7
			c1.1,0,2.2-0.1,3.2-0.7c0,1.4,0,2.7,0,4.1C202.9,522.1,175.4,523.3,147.9,523.3z"/>
		<path class="st12" d="M230.3,468.6c0,0.9,0,1.9,0,2.8c-28.4,0.3-56.7-1.2-85.1-0.7c0-0.9,0-1.8,0-2.7c17.9,0.4,35.9-0.5,53.8,0.5
			C209.4,469.1,219.9,468.6,230.3,468.6z"/>
		<path class="st12" d="M230.3,444c0,1.1,0,2.3,0,3.4c-28.8,0.3-57.6-0.9-86.4,0.7c0-0.9,0-1.8,0-2.7
			C172.7,444.9,201.5,444.4,230.3,444z"/>
		<path class="st12" d="M230.4,504.6c0,1.1,0,2.3,0,3.4c-27.7,0-55.4,0-83.1,0c0-0.9,0-1.8-0.1-2.7
			C174.9,505.1,202.6,505.8,230.4,504.6z"/>
		<path class="st12" d="M143.9,443.4c0-1.1,0-2.2,0-3.3c28.8,0,57.6,0,86.5-0.1c0,0.7,0,1.4,0,2.1c-8.5,0.1-17,0.2-25.5,0.4
			C184.5,443,164.2,442.6,143.9,443.4z"/>
		<path class="st12" d="M230.3,538.5c0.6,3.1-0.5,4.3-3.8,4.1c-6.3-0.3-12.6,0.3-18.9-0.2c-13.8-1.1-27.6-0.1-41.4-0.7
			c-4.9-0.2-9.9-0.5-14.8-0.5c-1,0-2.1,0.1-2.2-1.3C176.3,539.5,203.3,539,230.3,538.5z"/>
		<path class="st12" d="M147.8,512.6c-0.7-0.5-0.6-1.3-0.5-2.1c27.7-1.3,55.4-0.2,83.1-0.7c0,0.9,0,1.9,0,2.8
			C202.8,512.7,175.3,512.6,147.8,512.6z"/>
		<path class="st12" d="M146.5,492c0-0.9,0-1.8,0-2.7c27.9,0,55.9-0.1,83.8,0.6c0,0.7,0,1.4,0,2.1C202.4,492,174.5,492,146.5,492z"
			/>
		<path class="st12" d="M230.4,533.9c0,0.9,0,1.8,0,2.7c-9.3,0.2-18.5,0.3-27.8,0.4c-17.8,0.3-35.6,0.9-53.4,0.9c0-0.9,0-1.8,0-2.7
			c9.2-0.6,18.3-0.7,27.5-0.7c16.5,0.1,33,0,49.5,0C227.6,534.6,229.1,534.8,230.4,533.9z"/>
		<path class="st12" d="M143.9,438c0-0.6,0-1.3,0-1.9c26.5-0.2,53-0.5,79.5-0.7c2.3,0,4.6,0,7-0.1c0,0.9,0,1.9,0,2.8
			C201.5,438.1,172.7,438.1,143.9,438z"/>
		<path class="st12" d="M230.3,524.5c0,0.9,0,1.9,0,2.8c-27.3,0.1-54.6-0.6-81.8,0.6c0-0.9,0-1.8,0-2.6c25.8,0.2,51.6-1.1,77.5-0.7
			C227.4,524.6,228.9,524.6,230.3,524.5z"/>
		<path class="st13" d="M230.4,483.3c-16.2,0.9-32.5,0.7-48.7,0.7c-11.9,0-23.8,1.1-35.7,0.6c0-0.6,0-1.3,0-1.9
			c18.8-1.2,37.6-0.2,56.3-0.8c9.4-0.3,18.8-0.3,28.1-0.4C230.3,482,230.3,482.6,230.4,483.3z"/>
		<path class="st13" d="M230.3,468.6c-10.4,0-20.9,0.5-31.3-0.1c-18-1-35.9-0.1-53.8-0.5c-0.8-0.7-0.8-1.3,0-2c18.9,0,37.8,0,56.7,0
			c5.7,0,11.4-0.3,17.2,0.5c3.7,0.5,7.5,0.3,11.2-0.5C230.3,466.9,230.3,467.8,230.3,468.6z"/>
		<path class="st13" d="M230.3,457.3c-20.3-0.1-40.6-0.6-61-0.8c-8.3-0.1-16.5-0.1-24.8-0.5c0-0.7,0-1.3,0-2
			c28.6,0.2,57.2,0.5,85.8,1.4C230.3,456,230.3,456.7,230.3,457.3z"/>
		<path class="st12" d="M143.2,426.1c27.6,0.7,55.1,0.6,82.7,0.6c1.5,0,3.1,0.3,4.5-0.7c0,1.1,0,2.3,0,3.4
			c-29.1-0.5-58.1-1-87.2-1.4C143.2,427.4,143.2,426.7,143.2,426.1z"/>
		<path class="st13" d="M143.9,448.1c28.8-1.5,57.6-0.4,86.4-0.7c0,0.6,0,1.3,0,1.9c-19,0-37.9,0.1-56.9,0.1
			c-9.6,0-19.2,1.1-28.9,0.7C143.8,449.6,143.9,448.8,143.9,448.1z"/>
		<path class="st13" d="M143.9,443.4c20.3-0.7,40.7-0.4,61-0.8c8.5-0.2,17-0.3,25.5-0.4c0,0.6,0,1.3,0,1.9
			c-28.8,0.5-57.6,0.9-86.4,1.4C143.9,444.7,143.9,444,143.9,443.4z"/>
		<path class="st13" d="M230.4,418c-29.3,0-58.6,0-87.8,0.1c-0.7-0.7-0.8-1.3,0-2c29.3,0,58.5,0,87.8,0.1
			C230.3,416.8,230.3,417.4,230.4,418z"/>
		<path class="st13" d="M230.3,489.9c-27.9-0.7-55.9-0.6-83.8-0.6c-0.2-0.6-0.4-1.3-0.6-1.9c28.1,0.1,56.3-0.5,84.4,0.7
			C230.4,488.7,230.3,489.3,230.3,489.9z"/>
		<path class="st13" d="M143.9,438c28.8,0,57.7,0,86.5,0.1c0,0.6,0,1.3,0,1.9c-28.8,0-57.6,0-86.5,0.1
			C143.1,439.4,143.1,438.7,143.9,438z"/>
		<path class="st13" d="M230.4,504.6c-27.7,1.3-55.4,0.5-83.2,0.7c0-0.7,0-1.3,0-2c18.6,0,37.3,0.3,55.9-0.2
			c9.1-0.2,18.1-0.5,27.2-0.5C230.3,503.3,230.3,504,230.4,504.6z"/>
		<path class="st13" d="M230.3,499.9c-20.6,0-41.3,0.2-61.9,0c-7.1-0.1-14.1,0.8-21.2,0.7c-0.9-0.7-0.6-1.7-0.6-2.6
			c27.9,0,55.8,0,83.7,0C230.3,498.6,230.3,499.3,230.3,499.9z"/>
		<path class="st13" d="M144.6,460.1c28.6,0,57.1,0,85.7,0c0,0.8,0,1.7,0,2.5c-3.4-0.8-6.8-0.6-10.2-0.6c-25,0-50,0-74.9,0
			C144.5,461.5,144.6,460.8,144.6,460.1z"/>
		<path class="st13" d="M145.3,476.1c28.4,0,56.7,0,85.1,0c0,0.6,0,1.3,0,1.9c-28.1,0-56.3,0-84.4,0
			C145.7,477.3,145.5,476.7,145.3,476.1z"/>
		<path class="st13" d="M145.2,470.7c28.4-0.5,56.7,1,85.1,0.7c0,0.6,0,1.3,0,1.9c-12.4,0-24.9,0.5-37.3-0.1
			c-16-0.8-31.9-0.1-47.8-0.6C145.2,472,145.2,471.3,145.2,470.7z"/>
		<path class="st13" d="M230.3,509.9c-27.7,0.5-55.4-0.7-83.1,0.7c0-0.8,0-1.7,0-2.5c27.7,0,55.4,0,83.1,0
			C230.4,508.6,230.3,509.3,230.3,509.9z"/>
		<path class="st13" d="M230.4,533.9c-1.3,0.9-2.8,0.7-4.2,0.7c-16.5,0-33,0.1-49.5,0c-9.2,0-18.3,0.1-27.5,0.7
			c-0.9-0.7-0.6-1.7-0.6-2.6c26.2,0,52.4,0,78.6-0.1c1.1,0,2.2,0.1,3.2,0.7C230.4,533.5,230.4,533.7,230.4,533.9z"/>
		<path class="st13" d="M147.8,512.6c27.5,0,55,0,82.5,0.1c0,0.8,0,1.7,0,2.5c-3.7-0.2-7.4-0.5-11.1-0.6c-23.8-0.1-47.6,0-71.4,0
			C147.8,513.9,147.8,513.3,147.8,512.6z"/>
		<path class="st13" d="M143.2,428c29.1,0.5,58.1,1,87.2,1.4c0,0.6,0,1.3,0,1.9c-17-0.7-34-0.1-51-0.8c-12-0.5-24.1-0.1-36.1-0.5
			C143.2,429.4,143.2,428.7,143.2,428z"/>
		<path class="st13" d="M230.3,435.3c-2.3,0-4.6,0-7,0.1c-26.5,0.2-53,0.5-79.5,0.7c-0.7-0.5-0.6-1.3-0.6-2
			c29-0.2,58.1-0.4,87.1-0.7C230.3,434.1,230.3,434.7,230.3,435.3z"/>
		<path class="st13" d="M146.5,492c27.9,0,55.9,0,83.8,0c0,0.6,0,1.3,0,1.9c-27.9,0-55.9,0-83.8,0
			C146.5,493.3,146.5,492.7,146.5,492z"/>
		<path class="st13" d="M148.5,527.9c27.3-1.2,54.6-0.5,81.8-0.6c0,0.6,0,1.3,0,1.9c-27.2,0.2-54.5-0.3-81.7,0.7
			C148.6,529.2,148.5,528.6,148.5,527.9z"/>
		<path class="st13" d="M149.2,537.9c17.8,0,35.6-0.6,53.4-0.9c9.3-0.1,18.5-0.2,27.8-0.4c0,0.6,0,1.3,0,1.9
			c-27,0.5-54.1,0.9-81.1,1.4C149.2,539.3,149.2,538.6,149.2,537.9z"/>
		<path class="st13" d="M230.3,524.5c-1.4,0-2.9,0.1-4.3,0.1c-25.8-0.4-51.6,0.9-77.5,0.7c-0.2-0.6-0.4-1.3-0.6-1.9
			c27.5,0,54.9-1.2,82.4-0.7C230.3,523.3,230.3,523.9,230.3,524.5z"/>
		<path class="st13" d="M230.4,518.6c-1,0.6-2.1,0.7-3.2,0.7c-19.6,0.8-39.2,0.5-58.8,0.7c-6.8,0.1-13.7,0.7-20.5,0.5
			c0-0.6,0-1.3,0-1.9c20.9-0.9,41.8-0.5,62.8-0.8c5.3-0.1,10.6-0.5,15.9-0.5c1.3,0,2.7-0.1,3.9,0.7
			C230.4,518.2,230.4,518.4,230.4,518.6z"/>
		<path class="st12" d="M142.6,422.7c28.6,1.7,57.2-0.4,86.1,1.5c-1.2,0.9-2.3,0.5-3.4,0.5c-18.8,0-37.7,0.3-56.5-0.2
			c-8.7-0.2-17.4-0.4-26.2-0.4C142.6,423.7,142.6,423.2,142.6,422.7z"/>
	</g>
	<g>
		<path class="st12" d="M151,571.2c0-1.2,0-2.5,0-3.7c8.9,0.4,17.8-0.7,26.7-0.6c17.6,0.1,35.1,0,52.7,0c0,1.9,0,3.8,0,5.7
			C204,571.6,177.5,571.4,151,571.2z"/>
		<path class="st12" d="M149.2,536c-0.6-3.7-0.6-3.7,3.2-3.7c24.8,0,49.7,0,74.5-0.1c3,0,4.2,0.9,3.5,3.8
			C203.4,536.1,176.3,536,149.2,536z"/>
		<path class="st12" d="M151.7,582.3c0-1.2,0-2.4,0-3.7c23.1,0,46.3,0,69.4,0c3.2,0,6.3-0.2,9.4,0.5c0,1.1,0,2.2,0,3.2
			c-3.4,0.7-7,0.9-10.4,0.4c-5.3-0.7-10.6-0.4-15.9-0.5C186.7,582.2,169.2,582.3,151.7,582.3z"/>
		<path class="st13" d="M149.2,542.2c0-0.6,0-1.2,0-1.8c3.1,0.7,6.3,0.5,9.5,0.6c23.9,0.1,47.9-0.4,71.8,0.7c0,1.2,0,2.4,0,3.6
			c-1.3,0.9-2.8,0.6-4.2,0.6c-25.5,0-51.1,0.1-76.6-0.6c-0.6-0.5-0.5-1.2-0.5-1.8c8.1,0,16.2,0.2,24.2,0.4
			c17.4,0.4,34.9,0.2,52.3,0.1c1,0,2,0.3,3.1-0.5C202.2,541.8,175.7,543.7,149.2,542.2z"/>
		<path class="st12" d="M153,612c0-1.3-0.1-2.5-0.1-3.8c25.9,0,51.7,0,77.6,0c0,1.3,0,2.5,0,3.8C204.7,611.9,178.8,611.9,153,612z"
			/>
		<path class="st12" d="M152.3,597.7c0-1.5,0-2.9,0-4.4c26.1,0,52.1,0,78.2,0c0,1.1,0,2.1,0,3.2c-8.7,0.1-17.4,0.1-26.1,0.4
			C187.1,597.6,169.7,596.6,152.3,597.7z"/>
		<path class="st12" d="M230.5,541.6c-23.9-1-47.9-0.6-71.8-0.7c-3.2,0-6.3,0.2-9.5-0.6c0-0.8,0-1.7-0.1-2.5c27.1,0,54.2,0,81.3-0.1
			C230.5,539.1,230.5,540.4,230.5,541.6z"/>
		<path class="st12" d="M230.5,574.2c0,0.9,0,1.7,0,2.6c-26.5,0-52.9,0-79.4,0c0-1.3,0-2.5-0.1-3.8c7.7,0.3,15.3,0.3,23,0.4
			C192.8,573.7,211.7,574.1,230.5,574.2z"/>
		<path class="st12" d="M152.3,602.1c0-0.9,0-1.7,0-2.6c11,0.5,22.1-0.6,33.1-0.6c15,0,30.1,0.2,45.1-0.7c0,1.5,0,2.9,0,4.4
			C204.5,601.6,178.4,602.1,152.3,602.1z"/>
		<path class="st12" d="M149.8,552.7c0-1.3,0-2.5,0-3.8c11.1,0.3,22.3,0,33.4,0.5c15.7,0.6,31.5,0.1,47.3,0.7c0,0.6,0,1.3,0,1.9
			C203.6,552.3,176.7,552.5,149.8,552.7z"/>
		<path class="st12" d="M154.1,631c0-1.2,0-2.5,0-3.7c22,0,44.1,0,66.1,0c3.4,0,6.8,0.3,10.3,0.5c0,0.9,0,1.7,0,2.6
			c-1.1-0.7-2.3-0.6-3.6-0.6c-4.9,0-9.8,0.4-14.7,0.5C192.9,630.6,173.5,630.2,154.1,631z"/>
		<path class="st12" d="M230.5,640.8c0,1.3,0,2.5,0,3.8c-0.9-0.6-1.9-0.7-2.9-0.6c-24.3,0-48.5,0.1-72.8,0.1c0-0.9,0-1.7,0-2.6
			C180,640.5,205.3,641,230.5,640.8z"/>
		<path class="st12" d="M151.7,591.6c0-1.1,0-2.1,0-3.2c14.8,0.4,29.5-0.2,44.3,0.5c11.5,0.6,23,0.1,34.5,0.1c0,0.9,0,1.7,0,2.6
			C204.3,591.6,178,591.6,151.7,591.6z"/>
		<path class="st12" d="M230.5,613.7c0,0.9,0,1.7,0,2.6c-8.4,0-16.8,0.2-25.2,0.4c-17.3,0.4-34.5,0.1-51.8,0.1c0-0.8,0-1.7,0-2.5
			c6.6,0.1,13.1-0.7,19.7-0.7C192.3,613.8,211.4,613.7,230.5,613.7z"/>
		<path class="st12" d="M154.2,635.4c0-0.9,0-1.7,0-2.6c6.3,0.2,12.7-0.4,19-0.5c18.1-0.3,36.3,0.1,54.4-0.7c1,0,2-0.1,2.9-0.7
			c0,1.3,0,2.5,0,3.8C205.1,634.2,179.6,635.3,154.2,635.4z"/>
		<path class="st12" d="M230.5,584.7c0,0.9,0,1.7,0,2.6c-26.3,0.3-52.5-1.1-78.8-0.6c0-0.8,0-1.7,0-2.5c16.6,0.4,33.2-0.4,49.9,0.5
			C211.1,585.2,220.8,584.7,230.5,584.7z"/>
		<path class="st12" d="M230.5,561.9c0,1.1,0,2.1,0,3.2c-26.7,0.3-53.4-0.8-80.1,0.6c0-0.8,0-1.7,0-2.5
			C177.1,562.7,203.8,562.3,230.5,561.9z"/>
		<path class="st12" d="M230.5,618c0,1.1,0,2.1,0,3.2c-25.7,0-51.3,0-77,0c0-0.8,0-1.7-0.1-2.5C179.2,618.5,204.8,619.2,230.5,618z"
			/>
		<path class="st12" d="M150.4,561.3c0-1,0-2.1,0-3.1c26.7,0,53.4,0,80.1-0.1c0,0.7,0,1.3,0,2c-7.9,0.1-15.7,0.2-23.6,0.4
			C188.1,561,169.2,560.6,150.4,561.3z"/>
		<path class="st12" d="M230.5,649.5c0.6,2.9-0.4,4-3.5,3.8c-5.8-0.3-11.7,0.3-17.5-0.2c-12.8-1-25.6-0.1-38.3-0.7
			c-4.6-0.2-9.2-0.4-13.8-0.5c-0.9,0-1.9,0.1-2-1.2C180.4,650.3,205.5,649.9,230.5,649.5z"/>
		<path class="st12" d="M154.1,625.5c-0.7-0.5-0.5-1.2-0.5-1.9c25.6-1.2,51.3-0.2,76.9-0.6c0,0.9,0,1.7,0,2.6
			C205,625.5,179.5,625.5,154.1,625.5z"/>
		<path class="st12" d="M152.9,606.3c0-0.8,0-1.7,0-2.5c25.9,0,51.8-0.1,77.6,0.6c0,0.7,0,1.3,0,2
			C204.6,606.4,178.8,606.4,152.9,606.3z"/>
		<path class="st12" d="M230.5,645.2c0,0.8,0,1.7,0,2.5c-8.6,0.2-17.2,0.3-25.7,0.4c-16.5,0.2-32.9,0.8-49.4,0.8c0-0.8,0-1.6,0-2.5
			c8.5-0.5,17-0.7,25.5-0.6c15.3,0.1,30.6,0,45.8,0C228,645.8,229.3,646,230.5,645.2z"/>
		<path class="st12" d="M150.4,556.4c0-0.6,0-1.2,0-1.8c24.6-0.2,49.1-0.4,73.7-0.7c2.2,0,4.3,0,6.5-0.1c0,0.9,0,1.7,0,2.6
			C203.8,556.4,177.1,556.4,150.4,556.4z"/>
		<path class="st12" d="M230.5,636.5c0,0.9,0,1.7,0,2.6c-25.3,0.1-50.5-0.6-75.8,0.6c0-0.8,0-1.6,0-2.4c23.9,0.2,47.8-1.1,71.8-0.7
			C227.8,636.6,229.1,636.5,230.5,636.5z"/>
		<path class="st13" d="M230.5,598.3c-15,0.9-30.1,0.6-45.1,0.7c-11,0-22.1,1.1-33.1,0.6c0-0.6,0-1.2,0-1.8
			c17.4-1.1,34.8-0.2,52.2-0.8c8.7-0.3,17.4-0.3,26.1-0.4C230.5,597.1,230.5,597.7,230.5,598.3z"/>
		<path class="st13" d="M230.5,584.7c-9.7,0-19.3,0.5-29-0.1c-16.6-0.9-33.3-0.1-49.9-0.5c-0.7-0.6-0.7-1.2,0-1.8
			c17.5,0,35,0,52.5,0c5.3,0,10.6-0.3,15.9,0.5c3.4,0.5,6.9,0.3,10.4-0.4C230.5,583.1,230.5,583.9,230.5,584.7z"/>
		<path class="st13" d="M230.5,574.2c-18.8-0.1-37.6-0.5-56.5-0.8c-7.6-0.1-15.3-0.1-23-0.4c0-0.6,0-1.2,0-1.8
			c26.5,0.2,53,0.5,79.5,1.3C230.5,573,230.5,573.6,230.5,574.2z"/>
		<path class="st12" d="M149.8,545.3c25.5,0.7,51.1,0.6,76.6,0.6c1.4,0,2.9,0.3,4.2-0.6c0,1.1,0,2.1,0,3.2
			c-26.9-0.4-53.8-0.9-80.7-1.3C149.8,546.5,149.8,545.9,149.8,545.3z"/>
		<path class="st13" d="M150.5,565.7c26.7-1.4,53.4-0.3,80.1-0.6c0,0.6,0,1.2,0,1.7c-17.6,0-35.1,0.1-52.7,0c-8.9,0-17.8,1-26.7,0.6
			C150.3,567,150.4,566.3,150.5,565.7z"/>
		<path class="st13" d="M150.4,561.3c18.8-0.7,37.7-0.4,56.5-0.8c7.9-0.2,15.7-0.3,23.6-0.4c0,0.6,0,1.2,0,1.7
			c-26.7,0.4-53.4,0.8-80.1,1.3C150.4,562.5,150.4,561.9,150.4,561.3z"/>
		<path class="st13" d="M230.5,537.8c-27.1,0-54.2,0-81.3,0.1c-0.7-0.6-0.7-1.2,0-1.8c27.1,0,54.2,0,81.3,0.1
			C230.5,536.7,230.5,537.2,230.5,537.8z"/>
		<path class="st13" d="M230.5,604.4c-25.9-0.7-51.7-0.6-77.6-0.6c-0.2-0.6-0.4-1.2-0.6-1.8c26.1,0.1,52.1-0.5,78.2,0.6
			C230.5,603.3,230.5,603.8,230.5,604.4z"/>
		<path class="st13" d="M150.4,556.4c26.7,0,53.4,0,80.1,0.1c0,0.6,0,1.2,0,1.7c-26.7,0-53.4,0-80.1,0.1
			C149.7,557.6,149.7,557,150.4,556.4z"/>
		<path class="st13" d="M230.5,618c-25.7,1.2-51.3,0.5-77,0.7c0-0.6,0-1.2,0-1.8c17.3,0,34.5,0.2,51.8-0.1
			c8.4-0.2,16.8-0.5,25.2-0.4C230.5,616.8,230.5,617.4,230.5,618z"/>
		<path class="st13" d="M230.5,613.7c-19.1,0-38.2,0.2-57.3,0c-6.6,0-13.1,0.8-19.7,0.7c-0.9-0.6-0.5-1.6-0.5-2.4
			c25.9,0,51.7,0,77.5,0C230.5,612.5,230.5,613.1,230.5,613.7z"/>
		<path class="st13" d="M151.1,576.8c26.5,0,52.9,0,79.4,0c0,0.8,0,1.5,0,2.3c-3.1-0.7-6.3-0.5-9.4-0.5c-23.1,0-46.3,0-69.4,0
			C151,578.1,151.1,577.5,151.1,576.8z"/>
		<path class="st13" d="M151.7,591.6c26.3,0,52.5,0,78.8,0c0,0.6,0,1.2,0,1.7c-26.1,0-52.1,0-78.2,0
			C152.1,592.8,151.9,592.2,151.7,591.6z"/>
		<path class="st13" d="M151.7,586.6c26.3-0.4,52.6,0.9,78.8,0.6c0,0.6,0,1.2,0,1.7c-11.5,0-23,0.5-34.5-0.1
			c-14.8-0.8-29.5-0.1-44.3-0.5C151.7,587.8,151.7,587.2,151.7,586.6z"/>
		<path class="st13" d="M230.5,622.9c-25.6,0.4-51.3-0.6-76.9,0.6c0-0.8,0-1.6,0-2.4c25.7,0,51.3,0,77,0
			C230.5,621.8,230.5,622.3,230.5,622.9z"/>
		<path class="st13" d="M230.5,645.2c-1.2,0.8-2.6,0.6-3.9,0.6c-15.3,0-30.6,0.1-45.8,0c-8.5,0-17,0.1-25.5,0.6
			c-0.9-0.6-0.5-1.6-0.5-2.4c24.3,0,48.5,0,72.8-0.1c1,0,2,0,2.9,0.6C230.5,644.8,230.5,645,230.5,645.2z"/>
		<path class="st13" d="M154.1,625.5c25.5,0,50.9,0,76.4,0.1c0,0.8,0,1.6,0,2.3c-3.4-0.2-6.8-0.5-10.3-0.5c-22-0.1-44.1,0-66.1,0
			C154.1,626.7,154.1,626.1,154.1,625.5z"/>
		<path class="st13" d="M149.8,547.1c26.9,0.4,53.8,0.9,80.7,1.3c0,0.6,0,1.2,0,1.7c-15.7-0.7-31.5-0.1-47.3-0.7
			c-11.2-0.5-22.3-0.1-33.4-0.5C149.8,548.3,149.8,547.7,149.8,547.1z"/>
		<path class="st13" d="M230.5,553.8c-2.2,0-4.3,0-6.5,0.1c-24.6,0.2-49.1,0.4-73.7,0.7c-0.7-0.5-0.6-1.2-0.5-1.9
			c26.9-0.2,53.8-0.4,80.7-0.6C230.5,552.7,230.5,553.3,230.5,553.8z"/>
		<path class="st13" d="M152.9,606.3c25.9,0,51.7,0,77.6,0c0,0.6,0,1.2,0,1.7c-25.9,0-51.7,0-77.6,0
			C152.9,607.6,152.9,607,152.9,606.3z"/>
		<path class="st13" d="M154.7,639.6c25.3-1.1,50.5-0.4,75.8-0.6c0,0.6,0,1.2,0,1.7c-25.2,0.2-50.5-0.3-75.7,0.6
			C154.8,640.8,154.7,640.2,154.7,639.6z"/>
		<path class="st13" d="M155.3,648.9c16.5,0,32.9-0.6,49.4-0.8c8.6-0.1,17.2-0.2,25.7-0.4c0,0.6,0,1.2,0,1.8
			c-25.1,0.4-50.1,0.8-75.2,1.3C155.4,650.1,155.4,649.5,155.3,648.9z"/>
		<path class="st13" d="M230.5,636.5c-1.3,0-2.7,0.1-4,0c-23.9-0.4-47.8,0.8-71.8,0.7c-0.2-0.6-0.3-1.2-0.5-1.8
			c25.4,0,50.9-1.1,76.3-0.6C230.5,635.3,230.5,635.9,230.5,636.5z"/>
		<path class="st13" d="M230.5,631c-0.9,0.6-1.9,0.6-2.9,0.7c-18.1,0.8-36.3,0.4-54.4,0.7c-6.3,0.1-12.7,0.6-19,0.5
			c0-0.6,0-1.2,0-1.8c19.4-0.8,38.7-0.5,58.1-0.8c4.9-0.1,9.8-0.4,14.7-0.5c1.2,0,2.5-0.1,3.6,0.6
			C230.5,630.6,230.5,630.8,230.5,631z"/>
		<path class="st12" d="M149.2,542.2c26.5,1.6,53-0.4,79.7,1.4c-1.1,0.8-2.2,0.5-3.1,0.5c-17.4,0-34.9,0.3-52.3-0.1
			c-8.1-0.2-16.2-0.4-24.2-0.4C149.2,543,149.2,542.6,149.2,542.2z"/>
	</g>
</g>
<g>
	<path class="st12" d="M62.7,569.8c0-1.3,0-2.5,0-3.8c8.6,0.4,17.2-0.7,25.9-0.7c17,0.1,34,0,51,0c0,1.9,0,3.8,0,5.8
		C113.9,570.2,88.3,570,62.7,569.8z"/>
	<path class="st12" d="M60.9,534c-0.6-3.8-0.6-3.8,3.1-3.8c24,0,48.1,0.1,72.1-0.1c2.9,0,4,0.9,3.4,3.9C113.3,534,87.1,534,60.9,534
		z"/>
	<path class="st12" d="M63.3,581.1c0-1.2,0-2.5,0-3.7c22.4,0,44.8,0,67.2,0c3.1,0,6.1-0.2,9.1,0.5c0,1.1,0,2.2,0,3.3
		c-3.3,0.7-6.7,0.9-10,0.4c-5.1-0.8-10.3-0.5-15.4-0.5C97.2,581,80.2,581.1,63.3,581.1z"/>
	<path class="st13" d="M60.9,540.2c0-0.6,0-1.2,0-1.8c3,0.8,6.1,0.5,9.1,0.6c23.2,0.1,46.3-0.4,69.5,0.7c0,1.2,0,2.5,0,3.7
		c-1.2,0.9-2.7,0.6-4,0.6c-24.7,0-49.4,0.1-74.1-0.6c-0.6-0.5-0.5-1.2-0.5-1.9c7.8,0,15.6,0.2,23.5,0.4c16.9,0.4,33.7,0.2,50.6,0.1
		c0.9,0,1.9,0.3,3-0.5C112.2,539.8,86.5,541.8,60.9,540.2z"/>
	<path class="st12" d="M64.5,611.3c0-1.3,0-2.6-0.1-3.9c25,0,50.1,0,75.1,0c0,1.3,0,2.6,0,3.9C114.6,611.3,89.5,611.3,64.5,611.3z"
		/>
	<path class="st12" d="M63.9,596.8c0-1.5,0-3,0-4.4c25.2,0,50.5,0,75.7,0c0,1.1,0,2.2,0,3.3c-8.4,0.1-16.8,0.1-25.2,0.4
		C97.5,596.6,80.7,595.7,63.9,596.8z"/>
	<path class="st12" d="M139.6,539.7c-23.2-1.1-46.3-0.6-69.5-0.7c-3.1,0-6.1,0.2-9.1-0.6c0-0.9,0-1.7-0.1-2.6
		c26.2,0,52.5,0,78.7-0.1C139.6,537.1,139.6,538.4,139.6,539.7z"/>
	<path class="st12" d="M139.5,572.8c0,0.9,0,1.8,0,2.6c-25.6,0-51.2,0-76.8,0c0-1.3,0-2.6-0.1-3.8c7.4,0.3,14.8,0.3,22.2,0.4
		C103.1,572.3,121.3,572.7,139.5,572.8z"/>
	<path class="st12" d="M63.9,601.2c0-0.9,0-1.7,0-2.6c10.7,0.5,21.4-0.6,32-0.6c14.5,0,29.1,0.2,43.6-0.7c0,1.5,0,3,0,4.5
		C114.4,600.7,89.1,601.3,63.9,601.2z"/>
	<path class="st12" d="M61.5,551c0-1.3,0-2.6,0-3.8c10.8,0.4,21.6,0,32.4,0.5c15.2,0.6,30.5,0.1,45.7,0.8c0,0.7,0,1.3,0,2
		C113.5,550.5,87.5,550.8,61.5,551z"/>
	<path class="st12" d="M65.7,630.7c0-1.3,0-2.5,0-3.8c21.3,0,42.6,0,64,0c3.3,0,6.6,0.3,9.9,0.5c0,0.9,0,1.7,0,2.6
		c-1.1-0.8-2.3-0.6-3.5-0.6c-4.7,0-9.5,0.4-14.2,0.5C103.2,630.2,84.4,629.9,65.7,630.7z"/>
	<path class="st12" d="M139.5,640.7c0,1.3,0,2.6,0,3.9c-0.9-0.6-1.8-0.7-2.8-0.7c-23.5,0-47,0.1-70.4,0.1c0-0.9,0-1.8,0-2.6
		C90.7,640.4,115.1,640.9,139.5,640.7z"/>
	<path class="st12" d="M63.3,590.5c0-1.1,0-2.2,0-3.2c14.3,0.4,28.6-0.2,42.9,0.5c11.1,0.6,22.3,0.1,33.4,0.1c0,0.9,0,1.7,0,2.6
		C114.2,590.5,88.7,590.5,63.3,590.5z"/>
	<path class="st12" d="M139.5,613c0,0.9,0,1.8,0,2.6c-8.1,0-16.3,0.2-24.4,0.4c-16.7,0.4-33.4,0.1-50.1,0.1c0-0.8,0-1.7,0-2.5
		c6.4,0.1,12.7-0.7,19-0.7C102.6,613.2,121,613,139.5,613z"/>
	<path class="st12" d="M65.7,635.1c0-0.9,0-1.8,0-2.6c6.1,0.2,12.3-0.4,18.4-0.5c17.5-0.3,35.1,0.1,52.7-0.7c1,0,2-0.1,2.9-0.7
		c0,1.3,0,2.6,0,3.8C114.9,634,90.3,635.1,65.7,635.1z"/>
	<path class="st12" d="M139.5,583.5c0,0.9,0,1.8,0,2.6c-25.4,0.3-50.8-1.1-76.3-0.6c0-0.8,0-1.7,0-2.5c16.1,0.4,32.2-0.5,48.3,0.5
		C120.8,584,130.2,583.5,139.5,583.5z"/>
	<path class="st12" d="M139.6,560.3c0,1.1,0,2.2,0,3.2c-25.8,0.3-51.6-0.8-77.5,0.6c0-0.9,0-1.7,0-2.6
		C87.9,561.1,113.7,560.7,139.6,560.3z"/>
	<path class="st12" d="M139.6,617.4c0,1.1,0,2.2,0,3.2c-24.8,0-49.6,0-74.5,0c0-0.9,0-1.7-0.1-2.6
		C89.9,617.9,114.7,618.6,139.6,617.4z"/>
	<path class="st12" d="M62.1,559.7c0-1.1,0-2.1,0-3.2c25.8,0,51.7,0,77.5-0.1c0,0.7,0,1.3,0,2c-7.6,0.1-15.2,0.2-22.8,0.4
		C98.5,559.4,80.3,559,62.1,559.7z"/>
	<path class="st12" d="M139.6,649.5c0.6,3-0.4,4-3.4,3.9c-5.6-0.3-11.3,0.3-16.9-0.2c-12.4-1-24.7-0.1-37.1-0.7
		c-4.4-0.2-8.9-0.4-13.3-0.5c-0.9,0-1.9,0.1-2-1.3C91.1,650.3,115.3,649.9,139.6,649.5z"/>
	<path class="st12" d="M65.6,625c-0.7-0.5-0.5-1.2-0.5-2c24.8-1.2,49.6-0.2,74.4-0.6c0,0.9,0,1.8,0,2.6
		C114.9,625.1,90.2,625,65.6,625z"/>
	<path class="st12" d="M64.5,605.6c0-0.8,0-1.7,0-2.5c25,0,50.1-0.1,75.1,0.6c0,0.7,0,1.3,0,2C114.5,605.6,89.5,605.6,64.5,605.6z"
		/>
	<path class="st12" d="M139.6,645.1c0,0.9,0,1.7,0,2.6c-8.3,0.2-16.6,0.3-24.9,0.4c-15.9,0.2-31.9,0.8-47.8,0.8c0-0.8,0-1.7,0-2.5
		c8.2-0.5,16.4-0.7,24.6-0.6c14.8,0.1,29.6,0,44.4,0C137.1,645.7,138.4,645.9,139.6,645.1z"/>
	<path class="st12" d="M62.1,554.7c0-0.6,0-1.2,0-1.8c23.8-0.2,47.5-0.5,71.3-0.7c2.1,0,4.2,0,6.2-0.1c0,0.9,0,1.7,0,2.6
		C113.7,554.7,87.9,554.7,62.1,554.7z"/>
	<path class="st12" d="M139.5,636.3c0,0.9,0,1.8,0,2.6c-24.4,0.1-48.9-0.6-73.3,0.6c0-0.8,0-1.7,0-2.5c23.1,0.2,46.3-1.1,69.4-0.7
		C136.9,636.3,138.2,636.3,139.5,636.3z"/>
	<path class="st13" d="M139.6,597.3c-14.5,0.9-29.1,0.7-43.6,0.7c-10.7,0-21.3,1.1-32,0.6c0-0.6,0-1.2,0-1.8
		c16.8-1.1,33.7-0.2,50.5-0.8c8.4-0.3,16.8-0.3,25.2-0.4C139.6,596.2,139.6,596.8,139.6,597.3z"/>
	<path class="st13" d="M139.5,583.5c-9.3,0-18.7,0.5-28-0.1c-16.1-1-32.2-0.1-48.3-0.5c-0.7-0.6-0.7-1.3,0-1.9c16.9,0,33.9,0,50.8,0
		c5.1,0,10.3-0.3,15.4,0.5c3.3,0.5,6.7,0.3,10-0.4C139.5,581.9,139.5,582.7,139.5,583.5z"/>
	<path class="st13" d="M139.5,572.8c-18.2-0.1-36.4-0.5-54.6-0.8c-7.4-0.1-14.8-0.1-22.2-0.4c0-0.6,0-1.2,0-1.9
		c25.6,0.2,51.3,0.5,76.9,1.3C139.6,571.7,139.6,572.2,139.5,572.8z"/>
	<path class="st12" d="M61.4,543.4c24.7,0.7,49.4,0.6,74.1,0.6c1.4,0,2.8,0.3,4-0.6c0,1.1,0,2.1,0,3.2c-26-0.4-52.1-0.9-78.1-1.3
		C61.4,544.6,61.4,544,61.4,543.4z"/>
	<path class="st13" d="M62.1,564.2c25.8-1.4,51.6-0.3,77.5-0.6c0,0.6,0,1.2,0,1.8c-17,0-34,0.1-51,0c-8.6,0-17.2,1-25.9,0.7
		C62,565.5,62.1,564.8,62.1,564.2z"/>
	<path class="st13" d="M62.1,559.7c18.2-0.7,36.4-0.4,54.7-0.8c7.6-0.2,15.2-0.3,22.8-0.4c0,0.6,0,1.2,0,1.8
		c-25.8,0.4-51.6,0.9-77.5,1.3C62.1,560.9,62.1,560.3,62.1,559.7z"/>
	<path class="st13" d="M139.6,535.8c-26.2,0-52.5,0-78.7,0.1c-0.7-0.6-0.7-1.3,0-1.9c26.2,0,52.4,0,78.7,0.1
		C139.5,534.6,139.6,535.2,139.6,535.8z"/>
	<path class="st13" d="M139.6,603.6c-25-0.7-50.1-0.6-75.1-0.6c-0.2-0.6-0.4-1.2-0.5-1.8c25.2,0.1,50.4-0.5,75.7,0.6
		C139.6,602.4,139.6,603,139.6,603.6z"/>
	<path class="st13" d="M62.1,554.7c25.8,0,51.7,0,77.5,0.1c0,0.6,0,1.2,0,1.8c-25.8,0-51.7,0-77.5,0.1
		C61.3,555.9,61.3,555.3,62.1,554.7z"/>
	<path class="st13" d="M139.6,617.4c-24.8,1.2-49.7,0.5-74.5,0.7c0-0.6,0-1.2,0-1.9c16.7,0,33.4,0.2,50.1-0.1
		c8.1-0.2,16.3-0.5,24.4-0.4C139.6,616.3,139.6,616.8,139.6,617.4z"/>
	<path class="st13" d="M139.5,613c-18.5,0-37,0.2-55.5,0c-6.4,0-12.7,0.8-19,0.7c-0.8-0.7-0.5-1.6-0.5-2.4c25,0,50,0,75,0
		C139.6,611.8,139.5,612.4,139.5,613z"/>
	<path class="st13" d="M62.7,575.5c25.6,0,51.2,0,76.8,0c0,0.8,0,1.6,0,2.4c-3-0.7-6.1-0.5-9.1-0.5c-22.4,0-44.8,0-67.2,0
		C62.6,576.9,62.7,576.2,62.7,575.5z"/>
	<path class="st13" d="M63.3,590.5c25.4,0,50.8,0,76.2,0c0,0.6,0,1.2,0,1.8c-25.2,0-50.5,0-75.7,0C63.7,591.7,63.5,591.1,63.3,590.5
		z"/>
	<path class="st13" d="M63.3,585.5c25.4-0.5,50.8,0.9,76.3,0.6c0,0.6,0,1.2,0,1.8c-11.1,0-22.3,0.5-33.4-0.1
		c-14.3-0.8-28.6-0.1-42.9-0.5C63.3,586.7,63.3,586.1,63.3,585.5z"/>
	<path class="st13" d="M139.6,622.5c-24.8,0.4-49.6-0.6-74.4,0.6c0-0.8,0-1.6,0-2.4c24.8,0,49.7,0,74.5,0
		C139.6,621.3,139.6,621.9,139.6,622.5z"/>
	<path class="st13" d="M139.6,645.1c-1.2,0.8-2.5,0.6-3.7,0.6c-14.8,0-29.6,0.1-44.4,0c-8.2,0-16.4,0.1-24.6,0.6
		c-0.9-0.7-0.5-1.6-0.5-2.5c23.5,0,47,0,70.4-0.1c1,0,2,0,2.8,0.7C139.6,644.7,139.6,644.9,139.6,645.1z"/>
	<path class="st13" d="M65.6,625c24.6,0,49.3,0,73.9,0.1c0,0.8,0,1.6,0,2.4c-3.3-0.2-6.6-0.5-9.9-0.5c-21.3-0.1-42.6,0-64,0
		C65.6,626.3,65.6,625.6,65.6,625z"/>
	<path class="st13" d="M61.4,545.2c26,0.4,52.1,0.9,78.1,1.3c0,0.6,0,1.2,0,1.8c-15.2-0.7-30.5-0.1-45.7-0.8
		c-10.8-0.5-21.6-0.1-32.4-0.5C61.5,546.5,61.5,545.9,61.4,545.2z"/>
	<path class="st13" d="M139.5,552.1c-2.1,0-4.2,0-6.2,0.1c-23.8,0.2-47.5,0.5-71.3,0.7c-0.6-0.5-0.5-1.2-0.5-1.9
		c26-0.2,52-0.4,78.1-0.6C139.6,550.9,139.6,551.5,139.5,552.1z"/>
	<path class="st13" d="M64.5,605.6c25,0,50.1,0,75.1,0c0,0.6,0,1.2,0,1.8c-25,0-50.1,0-75.1,0C64.5,606.8,64.5,606.2,64.5,605.6z"/>
	<path class="st13" d="M66.2,639.5c24.4-1.1,48.9-0.4,73.3-0.6c0,0.6,0,1.2,0,1.8c-24.4,0.2-48.8-0.3-73.3,0.6
		C66.3,640.7,66.2,640.1,66.2,639.5z"/>
	<path class="st13" d="M66.8,648.9c15.9,0,31.9-0.6,47.8-0.8c8.3-0.1,16.6-0.2,24.9-0.4c0,0.6,0,1.2,0,1.8
		c-24.2,0.4-48.5,0.9-72.7,1.3C66.8,650.1,66.8,649.5,66.8,648.9z"/>
	<path class="st13" d="M139.5,636.3c-1.3,0-2.6,0.1-3.9,0.1c-23.2-0.4-46.3,0.9-69.4,0.7c-0.2-0.6-0.3-1.2-0.5-1.8
		c24.6,0,49.2-1.2,73.9-0.7C139.6,635.1,139.5,635.7,139.5,636.3z"/>
	<path class="st13" d="M139.6,630.7c-0.9,0.6-1.8,0.6-2.9,0.7c-17.5,0.8-35.1,0.4-52.7,0.7c-6.1,0.1-12.3,0.6-18.4,0.5
		c0-0.6,0-1.2,0-1.8c18.7-0.8,37.5-0.5,56.2-0.8c4.7-0.1,9.5-0.5,14.2-0.5c1.2,0,2.4-0.1,3.5,0.6
		C139.6,630.3,139.6,630.5,139.6,630.7z"/>
	<path class="st12" d="M60.9,540.2c25.6,1.6,51.3-0.4,77.2,1.4c-1.1,0.8-2.1,0.5-3,0.5c-16.9,0-33.8,0.3-50.6-0.1
		c-7.8-0.2-15.6-0.4-23.5-0.4C60.9,541.1,60.9,540.7,60.9,540.2z"/>
</g>
<line class="st1" x1="641.7" y1="-110.6" x2="641.7" y2="66.2"/>
<rect x="633.2" y="71.2" class="st14" width="17.1" height="15.2"/>
<path class="st14" d="M578.5,152h124.1c0,0-8.7-60.7-60.9-60.7S578.5,152,578.5,152z"/>
<path class="st15" d="M402.4,358.3c12.2-1.7,24.4-3.3,36.6-5l3.3,60.4l-33.3,2.7C406.8,397,404.6,377.6,402.4,358.3z"/>
<path class="st16" d="M456.1,354.8c-4.3,0-49,6-49,6L415,427l46.9-7.6L456.1,354.8z"/>
<path class="st0" d="M338.6,287.6c0,0-36.3,27.3-21.1,57.8c5,10.1,11.7,20.7,22,30.1c36.6,33.1,92.2,28,123.9,25.8
	c0.2,0,0.4,0,0.6,0"/>
<path class="st17" d="M732.4,488.5H606.5c-3.8,0-6.8-3-6.8-6.8v-77.5c0-3.8,3-6.8,6.8-6.8h125.9c3.8,0,6.8,3,6.8,6.8v77.5
	C739.2,485.5,736.2,488.5,732.4,488.5z"/>
<line class="st18" x1="724.2" y1="493.1" x2="730.6" y2="502.9"/>
<line class="st18" x1="620.5" y1="493.5" x2="614.2" y2="503.3"/>
<line class="st17" x1="598.7" y1="408.8" x2="739.2" y2="409.2"/>
<line class="st17" x1="598.7" y1="477.8" x2="739.2" y2="478.2"/>
<g class="st19">
	<g>
		<path class="st20" d="M610.3,445.6c12.6,0,25.3-0.1,37.9-0.1c1.3,0,1.3-2,0-2c-12.6,0-25.3,0.1-37.9,0.1
			C609,443.7,609,445.7,610.3,445.6L610.3,445.6z"/>
	</g>
</g>
<g class="st19">
	<g>
		<path class="st20" d="M610.3,456.2c12.6,0,25.3-0.1,37.9-0.1c2.6,0,2.6-4,0-4c-12.6,0-25.3,0.1-37.9,0.1
			C607.7,452.2,607.7,456.2,610.3,456.2L610.3,456.2z"/>
	</g>
</g>
<path class="st21" d="M610.6,419.2c0-0.7,0.6-1.3,1.3-1.3h6.4h6.2c0.7,0,1.3,0.6,1.3,1.3l0,0c0,0.7,0.6,1.3,1.3,1.3H647
	c0.7,0,1.3,0.6,1.3,1.3v15.1c0,0.7-0.6,1.3-1.3,1.3h-35.1c-0.7,0-1.3-0.6-1.3-1.3V419.2z"/>
<rect x="687.8" y="421.2" class="st21" width="34.4" height="44"/>
<line class="st22" x1="698.7" y1="448.1" x2="710.9" y2="448.1"/>
<line class="st22" x1="698.7" y1="438.3" x2="710.9" y2="438.3"/>
<line class="st1" x1="444.9" y1="508" x2="797" y2="508"/>
<line class="st1" x1="435" y1="517.5" x2="787.1" y2="517.5"/>
<line class="st1" x1="505.5" y1="524.9" x2="505.5" y2="715"/>
<line class="st1" x1="513.5" y1="524.5" x2="513.5" y2="714.6"/>
<line class="st1" x1="779.5" y1="522" x2="779.5" y2="712.1"/>
</svg>
