<?xml version="1.0" encoding="utf-8"?>
<!-- Generator: Adobe Illustrator 24.0.1, SVG Export Plug-In . SVG Version: 6.00 Build 0)  -->
<svg version="1.1" id="Layer_1" xmlns="http://www.w3.org/2000/svg" xmlns:xlink="http://www.w3.org/1999/xlink" x="0px" y="0px"
	 viewBox="0 0 800 800" style="enable-background:new 0 0 800 800;" xml:space="preserve">
<style type="text/css">
	.st0{opacity:0.7;}
	.st1{fill:none;stroke:#BDBDBD;stroke-width:5;stroke-miterlimit:10;}
	.st2{fill:none;stroke:#BDBDBD;stroke-width:3;stroke-miterlimit:10;}
	.st3{fill:#FFFFFF;stroke:#BDBDBD;stroke-width:3;stroke-miterlimit:10;}
	.st4{opacity:0.75;fill:#2962FF;stroke:#2962FF;stroke-width:3;stroke-miterlimit:10;}
	.st5{fill:#FFFFFF;stroke:#BDBDBD;stroke-width:2;stroke-miterlimit:10;}
	.st6{fill:none;stroke:#BDBDBD;stroke-width:2;stroke-miterlimit:10;}
	.st7{opacity:0.8;fill:none;stroke:#263238;stroke-width:2.4908;stroke-miterlimit:10;}
	.st8{fill:none;stroke:#6CC5AC;stroke-width:4;stroke-miterlimit:10;}
	.st9{fill:#FFFFFF;stroke:#616363;stroke-width:3;stroke-miterlimit:10;}
	.st10{fill:#6CC5AC;}
	.st11{fill:#FFFFFF;stroke:#616363;stroke-width:2;stroke-miterlimit:10;}
	.st12{fill:none;stroke:#616363;stroke-width:3;stroke-linecap:round;stroke-linejoin:round;stroke-miterlimit:10;}
	.st13{fill:#E0E0E0;stroke:#616363;stroke-width:3;stroke-miterlimit:10;}
	.st14{fill:#616363;stroke:#616363;stroke-linecap:round;stroke-linejoin:round;stroke-miterlimit:10;}
	.st15{fill:#FFFFFF;stroke:#FCC26B;stroke-width:2;stroke-miterlimit:10;}
	.st16{fill:none;stroke:#FCC26B;stroke-width:2;stroke-miterlimit:10;}
	.st17{fill:#616363;stroke:#616363;stroke-miterlimit:10;}
	.st18{fill:#FFFFFF;stroke:#BDBDBD;stroke-width:5;stroke-miterlimit:10;}
	.st19{fill:#6CC5AC;stroke:#6CC5AC;stroke-width:2;stroke-miterlimit:10;}
	.st20{opacity:0.8;fill:none;stroke:#BDBDBD;stroke-width:5;stroke-miterlimit:10;}
</style>
<g class="st0">
	<path class="st1" d="M498.2,394.5c-21.2-31-60.9-127.9-97.5-263h-34.2c-32.7,87.6-65.4,175.3-98.1,262.9"/>
	<path class="st1" d="M423.7,292.6c-10.7,2.3-24.5,4.4-40.6,4.4c-16,0-29.7-2-40.3-4.4"/>
	<path class="st1" d="M449.3,355.7c-13.9,4.2-33.9,8.6-58.2,8.7c-25.3,0.1-46-4.4-60.2-8.7"/>
	<path class="st1" d="M471.3,393.4c-21.5,4.9-49.1,9.3-81.1,9.6c-35.5,0.4-65.7-4.3-88.7-9.6"/>
	<path class="st1" d="M484.5,472c-6.4-7.1-39.6-42.7-94-45.3c-42.4-2-72.8,17.1-82.7,24"/>
	<path class="st1" d="M403.2,104.8c-0.6-11.2-10.4-19.3-20.5-18.3c-8.8,0.9-16.2,8.6-16.6,18.3"/>
	<path class="st1" d="M382.7,76.1c0-12,0-24,0-36.1"/>
</g>
<path class="st2" d="M604.5,585.1c2,26.4,24.4,46.7,50.3,46.1c25.1-0.5,46.3-20.5,48.2-46.1"/>
<path class="st3" d="M476.9,599.9l121.7-71.2c1.4-0.8,3.2-0.7,4.5,0.4l23,19.2c1.4,1.2,1.8,3.1,1,4.7L563,682.7
	c-1.6,3.3-6.5,2.7-7.3-0.9l-13.9-61c-0.3-1.5-1.6-2.7-3.1-3l-60.5-10.7C474.6,606.5,473.8,601.8,476.9,599.9z"/>
<path class="st4" d="M518.3,594.9l79.6-47.2c0.6-0.3,1.3-0.3,1.8,0.1l9.5,7.2c0.6,0.5,0.8,1.4,0.5,2.1l-43.5,81
	c-0.8,1.5-3,1-3.1-0.7l-1.4-23.7c0-0.4-0.2-0.8-0.5-1.1l-15-13.4c-0.3-0.3-0.7-0.4-1-0.4l-26.1-0.8
	C517.5,597.9,516.9,595.8,518.3,594.9z"/>
<line class="st2" x1="558.2" y1="600.1" x2="693.5" y2="457.5"/>
<line class="st2" x1="555" y1="584" x2="574.6" y2="602.3"/>
<line class="st2" x1="564.4" y1="573" x2="584" y2="591.3"/>
<line class="st2" x1="667.1" y1="468.3" x2="686.8" y2="486.6"/>
<line class="st2" x1="676.5" y1="457.2" x2="696.1" y2="475.6"/>
<line class="st3" x1="641" y1="634.6" x2="628.4" y2="684.9"/>
<line class="st3" x1="664" y1="634.6" x2="676.6" y2="684.9"/>
<line class="st5" x1="625.4" y1="570.4" x2="682" y2="570.4"/>
<line class="st5" x1="612.9" y1="583" x2="696.7" y2="583"/>
<line class="st5" x1="625.4" y1="595.8" x2="682" y2="595.8"/>
<path class="st6" d="M635.9,496.8c-4.4,3.1-9.7,8-10.5,14.7c-1.6,14.3,20.9,19.9,21,35.6c0.1,13.1-15.4,20.1-12.6,35.6
	c0.5,2.8,1.4,4.9,2.1,6.3"/>
<path class="st6" d="M671.2,496.6c-4.4,3.1-9.7,8-10.5,14.7c-1.6,14.3,20.9,19.9,21,35.6c0.1,13.1-15.4,20.1-12.6,35.6
	c0.5,2.8,1.4,4.9,2.1,6.3"/>
<path class="st6" d="M664.2,547.5c0.1,13.1-15.4,20.1-12.6,35.6c0.5,2.8,1.4,4.9,2.1,6.3"/>
<line class="st7" x1="6.6" y1="686" x2="794.8" y2="686"/>
<path class="st8" d="M372.2,318c4-6.7,6.1-12.5,7.3-16.7c1.8-6.2,2.4-11.3,3.1-18.8c0.9-8.7,1-15,1-16.7c0.3-8.6,4.3-21.6,20.9-40.7
	"/>
<path class="st8" d="M188.5,491.3c-0.3-0.4-0.8-1.2-1-2.1c-0.1-0.4-0.5-1.9,0-4.2c1.2-5.2,5.2-9.4,5.2-9.4c5.5-6,11-9.5,12.5-10.4
	c10.2-6.5,13.7-8.3,18.8-11.5c10.1-6.4,17.2-12.5,20.9-15.7c4.9-4.2,11.1-10.1,17.7-17.7"/>
<path class="st9" d="M318.3,360.1c0,0-18.1,37.1-65.5,45.8c0,0,19.3,31.9,18.5,43.9c0,0,32.3-39,46.1-17.9
	c13.8,21.1-22.7,30.8-10.3,83.1c0,0,27.6-24.1,58.8-27.8c31.2-3.6,47.3-18.2,48.1-32.8c0.8-14.6-15.1-24.3-23.3-40
	c-8.2-15.7-16.6-44.9,3.5-95c0,0-30.4-4.6-39.9-14.9c0,0-2.1,56.6-23,47.9L318.3,360.1z"/>
<path class="st10" d="M298,322.2c0,0-18.6-8.7-5.9-15.1c0,0-15.6-42.7,2.4-31.1c0,0,15.4-60,24.6-30.1c2.7-5.1,8-7.9,12.9-7.1
	c4.2,0.7,6.6,3.7,7.3,4.6c0.3,0.6,1.9,4.7-0.3,9c-2.6,5.1-8.4,5.7-8.8,5.8c0,0,9.6-1.1,9.6,7.1s-5.8,12.5-9.6,11.7
	c0,0,9.2,0.6,12.2,11.7c3.1,11.1-17.2,9.5-17.2,9.5s6.9,7.9,0.5,10.2c-6.4,2.2-9,7-9,7s-11.7,4.7-11.6,6.1S299,322.7,298,322.2z"/>
<path class="st9" d="M302,321.4c0,0,4.9-9.5,17.1-4.5s11.3,14.5,9.4,23.2s7.7,14.2,8.4,14.5c0,0-4,16.8-3.7,17.4s-16-9.5-16-9.5
	s0.2-5-5.4-8.4C306.2,350.5,294.6,334.5,302,321.4z"/>
<ellipse class="st11" cx="303.1" cy="333" rx="8.7" ry="8.6"/>
<path class="st12" d="M341,710.4c0,0,24.4,53-10.9,47.6c0,0-12.2-1.9-9-19"/>
<path class="st12" d="M311.4,543.8c0,0-13.1-14.5-22-6.2c-8.9,8.3-1.4,18.3-1.4,18.3"/>
<ellipse class="st11" cx="323.2" cy="327.6" rx="8.2" ry="8.1"/>
<path class="st13" d="M330.7,570.5c0,0-17.1-7.6-27-15c0,0-4.4-7.1,10.5-25.2C314.1,530.3,327.3,555.3,330.7,570.5z"/>
<path class="st13" d="M378.5,515.1c5.1,39.8-17.4,58.5-8.7,112.2c8.7,53.6-2.6,87.3-2.6,87.3c-35,15.2-43.7-5.1-43.7-5.1
	c13.5-76.8,5.1-129.5,3.9-139.6c-2.2-17.2-12-21.4-19.3-41.9c-2.5-6.9-4.5-14.8-0.6-20c0.7-1,1.5-1.7,2.1-2.1
	c18.2-9.7,36.3-19.3,54.5-29l50-26c0,0,14,77.7,14.3,82.5c0.3,4.8,7.1,65-29.3,81.2c0,0-12.6,7.3-26.9-11.3c-0.7-0.9-1.4-1.9-2-2.9
	l-2.2-3.6"/>
<ellipse class="st14" cx="190.2" cy="463.4" rx="5.3" ry="5.2"/>
<path class="st15" d="M196.3,479.3l78.6,248l-86.3,24.4c-5.4,1.5-11.1-1.4-12.8-6.7c-9.5-28.5-17.7-57-27.5-85.5
	c-10.1-27.8-9.5-58.3,13.8-74c20.9-14.1,50.4-11.7,69.9,6.5"/>
<path class="st16" d="M153.8,592.6l5.4,10.5c1.2,2.3,3.9,3.5,6.3,2.6c0,0,0.1,0,0.1,0c1.3-0.5,2.3-1.4,3-2.5
	c0.9-1.5,0.9-3.3,0.1-4.9c-2.2-4.3-4.4-8.6-6.6-13"/>
<line class="st16" x1="224.7" y1="712.4" x2="178.8" y2="584.7"/>
<ellipse class="st17" cx="272.4" cy="725.8" rx="16.6" ry="16.4"/>
<g class="st0">
	<polyline class="st1" points="24.8,39.8 43.2,17 52.6,34.5 	"/>
	<line class="st1" x1="23.5" y1="55.4" x2="43.7" y2="55.4"/>
	<line class="st1" x1="19.3" y1="65" x2="49.9" y2="65"/>
	<path class="st1" d="M31.7,68.9c0,0-24.8,100,2.9,143.9"/>
	<path class="st1" d="M36.3,290.3c0,0-1.2,12.4,3.5,27.2s-7.1,119.8-9.3,127.2"/>
	<path class="st1" d="M146.4,558c-0.8-10.7-1.5-28,0-49.1c4.3-61.3,21.4-73.4,15.6-115.5c-2.4-17.6-5.8-27.8-8.4-54.3
		c-1.3-13.6-1.8-24.4-2.2-32.8c-0.8-17.5-14.4-38.9-26-43.4c-11.6-4.5-40.6-10.7-61.1-28.2c-20.5-17.5-39.9,8.6-39.4,13.6
		c3.8,9.7,7.6,19.5,11.4,29.2"/>
	<path class="st1" d="M102.1,332.7c0,0-10.6,17.1-16.9,27.2c-6.3,10.1-11.8,10.1-18.5,14.8"/>
	<path class="st1" d="M110,381.3c0,0-15.8,23-23.3,31.5s-17.3,18.7-20.1,19.5"/>
	<path class="st18" d="M180.9,298.5c-1.2,0-57.1,65.7-57.1,65.7l35.9,28.8l56.4-65.4L180.9,298.5z"/>
	<path class="st1" d="M89.5,215.6c-0.1-0.7-1.6-11.6,6.3-18.3c4.8-4,10.2-4.2,11.8-4.3c2.3-0.1,10.3-0.3,14.6,5.8
		c4,5.8,1.5,12.8,1.2,13.6"/>
	<path class="st1" d="M129.3,226.1c0,0.9,0.1,7.9-5.1,11.7c-1.5,1.1-3.1,1.7-4.3,1.9"/>
	<line class="st1" x1="84.3" y1="184.5" x2="67.6" y2="167.9"/>
	<line class="st1" x1="106.9" y1="172.8" x2="106.9" y2="149.5"/>
	<line class="st1" x1="124.5" y1="178.3" x2="139.3" y2="163.7"/>
	<line class="st1" x1="139.3" y1="198.9" x2="165.4" y2="198.9"/>
	<line class="st1" x1="76" y1="204.3" x2="46.9" y2="198.9"/>
</g>
<path class="st19" d="M403.5,225.1c3.2-5.8,4.8-7,5.6-6.8c0.9,0.2,1.2,2,1,3.1c-0.3,2.3-2.5,4.3-5.6,4.7"/>
<path class="st19" d="M188.6,490.1c4.9,4.4,5.7,6.2,5.3,7c-0.4,0.8-2.2,0.7-3.3,0.3c-2.2-0.8-3.6-3.4-3.3-6.6"/>
<g class="st0">
	<path class="st20" d="M710.5,82.7l11.2-33.7l11.9-3.9L784,69.7c0,0-50,13.2-63.4,5.7"/>
	<g>
		<polyline class="st20" points="664.9,367.7 694.8,376.3 686.1,411.7 567.7,383.3 		"/>
		<path class="st20" d="M643.7,86.4c0,0,42.4-9.5,59.7-4.7s58.1,23.7,58.7,29.5c0.5,5.8-15.7,44.2-15.7,44.2L710,142.3"/>
		<polyline class="st20" points="654.6,159.2 631.2,155.4 622,190.8 729,218.7 		"/>
		<polyline class="st20" points="691.5,233.2 725.7,241.2 715.9,281.4 599.2,249.8 		"/>
		<polyline class="st20" points="617.6,286.2 592.5,278.7 582.3,319.5 692.6,345.2 		"/>
		<polyline class="st20" points="585.4,422.7 560.1,415.8 542.9,495 585,505 		"/>
	</g>
</g>
<path class="st2" d="M268.5,394.5"/>
</svg>
