<svg width="230" height="230" viewBox="0 0 294 235" fill="none" xmlns="http://www.w3.org/2000/svg">
<g opacity="0.7">
<path opacity="0.3" d="M147.363 234.897C209.808 234.897 260.431 229.753 260.431 223.408C260.431 217.063 209.808 211.92 147.363 211.92C84.9169 211.92 34.2947 217.063 34.2947 223.408C34.2947 229.753 84.9169 234.897 147.363 234.897Z" fill="#E0E0E0"/>
<path d="M224.477 221.755H70.3311C67.9342 221.755 66.0332 219.854 66.0332 217.457V71.7419C66.0332 69.345 67.9342 67.444 70.3311 67.444H224.477C226.874 67.444 228.775 69.345 228.775 71.7419V217.375C228.775 219.772 226.874 221.755 224.477 221.755Z" fill="#C6C6C6"/>
<path d="M287.458 66.4522C291.921 79.1806 291.177 93.2315 283.739 104.72C279.275 111.663 270.432 121.333 261.174 119.019C254.232 117.283 248.446 109.597 251.422 102.406C254.81 94.2233 266.216 94.8018 272.58 99.2651C274.812 100.835 276.63 102.984 277.54 105.547C278.449 108.274 278.201 111.25 277.54 114.06C272.663 134.227 258.199 151.832 239.52 157.617C217.369 164.477 193.235 163.486 170.505 160.51C139.511 156.46 104.053 147.616 78.1003 129.598C57.6026 115.3 32.6417 92.2396 7.8461 111.993C-10.9159 126.953 13.0532 145.798 29.8315 144.145C37.3529 143.401 44.2956 140.508 43.7997 131.83C43.3865 124.391 37.6008 119.184 29.9142 121.416C16.9378 125.135 18.3429 142.575 24.4592 151.171C27.4346 155.386 31.3193 158.857 35.2039 162.329C35.2039 162.329 52.8088 180.76 44.5436 192.331" stroke="#2962FF" stroke-miterlimit="10" stroke-linecap="square" stroke-linejoin="bevel" stroke-dasharray="5 5"/>
<path d="M229.436 212.664H65.3719C62.975 212.664 61.074 210.763 61.074 208.366V62.6502C61.074 60.2533 62.975 58.3523 65.3719 58.3523H229.436C231.833 58.3523 233.734 60.2533 233.734 62.6502V208.283C233.734 210.68 231.833 212.664 229.436 212.664Z" fill="#D6D6D6"/>
<path d="M236.048 206.051H58.7598C56.3629 206.051 54.4619 204.15 54.4619 201.754V28.6803C54.4619 26.2834 56.3629 24.3824 58.7598 24.3824H236.048C238.445 24.3824 240.346 26.2834 240.346 28.6803V201.671C240.346 204.068 238.445 206.051 236.048 206.051Z" fill="#F7F7F7"/>
<path opacity="0.55" d="M238.61 70.0889H56.1975C55.2057 70.0889 54.3792 69.2624 54.3792 68.2706V63.5594C54.3792 62.5676 55.2057 61.7411 56.1975 61.7411H238.61C239.602 61.7411 240.429 62.5676 240.429 63.5594V68.2706C240.346 69.2624 239.602 70.0889 238.61 70.0889Z" fill="#D6D6D6"/>
<path d="M237.619 65.0471H57.1894C55.7017 65.0471 54.4619 63.8074 54.4619 62.3196V26.9446C54.4619 25.4568 55.7017 24.217 57.1894 24.217H237.701C239.189 24.217 240.429 25.4568 240.429 26.9446V62.3196C240.346 63.8074 239.189 65.0471 237.619 65.0471Z" fill="#2962FF"/>
<path d="M80.6623 34.2179H78.4307C77.5216 34.2179 76.8604 33.474 76.8604 32.6475V15.0426C76.8604 14.1335 77.6042 13.4723 78.4307 13.4723H80.6623C81.5715 13.4723 82.2327 14.2161 82.2327 15.0426V32.6475C82.3154 33.5567 81.5715 34.2179 80.6623 34.2179Z" fill="white"/>
<path d="M223.237 34.2179H221.005C220.096 34.2179 219.435 33.474 219.435 32.6475V15.0426C219.435 14.1335 220.179 13.4723 221.005 13.4723H223.237C224.146 13.4723 224.807 14.2161 224.807 15.0426V32.6475C224.807 33.5567 224.146 34.2179 223.237 34.2179Z" fill="white"/>
<path d="M209.517 34.2179H207.285C206.376 34.2179 205.715 33.474 205.715 32.6475V15.0426C205.715 14.1335 206.458 13.4723 207.285 13.4723H209.517C210.426 13.4723 211.087 14.2161 211.087 15.0426V32.6475C211.17 33.5567 210.426 34.2179 209.517 34.2179Z" fill="white"/>
<path d="M94.3826 34.2179H92.151C91.2418 34.2179 90.5806 33.474 90.5806 32.6475V15.0426C90.5806 14.1335 91.3244 13.4723 92.151 13.4723H94.3826C95.2917 13.4723 95.9529 14.2161 95.9529 15.0426V32.6475C96.0356 33.5567 95.2917 34.2179 94.3826 34.2179Z" fill="white"/>
<g opacity="0.32">
<g opacity="0.32">
<path opacity="0.32" d="M54.3792 54.7983H56.8587" stroke="white" stroke-miterlimit="10"/>
<path opacity="0.32" d="M61.8179 54.7983H235.47" stroke="white" stroke-miterlimit="10" stroke-dasharray="5.92 5.92"/>
<path opacity="0.32" d="M237.867 54.7983H240.346" stroke="white" stroke-miterlimit="10"/>
</g>
</g>
<path d="M94.4653 105.216C96.2912 105.216 97.7713 103.736 97.7713 101.91C97.7713 100.084 96.2912 98.6038 94.4653 98.6038C92.6394 98.6038 91.1592 100.084 91.1592 101.91C91.1592 103.736 92.6394 105.216 94.4653 105.216Z" fill="#2962FF"/>
<path d="M200.26 105.216C202.086 105.216 203.566 103.736 203.566 101.91C203.566 100.084 202.086 98.6038 200.26 98.6038C198.434 98.6038 196.954 100.084 196.954 101.91C196.954 103.736 198.434 105.216 200.26 105.216Z" fill="#2962FF"/>
<path d="M172.158 154.807C164.802 159.353 155.38 163.155 146.536 163.072C138.684 162.99 129.758 159.27 122.567 154.807C121.823 154.394 120.749 153.65 120.914 153.154C121.327 151.584 132.981 158.94 147.363 158.94C161.744 158.94 173.398 151.584 173.811 153.154C173.977 153.567 172.902 154.311 172.158 154.807Z" fill="#2962FF"/>
<path d="M282.003 68.4359L283.408 58.0217L292.417 64.9645" stroke="#2962FF" stroke-miterlimit="10" stroke-linecap="square" stroke-linejoin="bevel"/>
<path opacity="0.44" d="M42.312 14.5468C46.3289 14.5468 49.5853 11.2904 49.5853 7.27338C49.5853 3.2564 46.3289 0 42.312 0C38.295 0 35.0386 3.2564 35.0386 7.27338C35.0386 11.2904 38.295 14.5468 42.312 14.5468Z" fill="#2962FF"/>
<path opacity="0.07" d="M21.1531 32.6476C24.0289 32.6476 26.3602 30.3163 26.3602 27.4405C26.3602 24.5647 24.0289 22.2334 21.1531 22.2334C18.2773 22.2334 15.946 24.5647 15.946 27.4405C15.946 30.3163 18.2773 32.6476 21.1531 32.6476Z" stroke="#2962FF" stroke-miterlimit="10"/>
<path opacity="0.68" d="M38.0142 47.1116C40.89 47.1116 43.2213 44.7803 43.2213 41.9046C43.2213 39.0288 40.89 36.6975 38.0142 36.6975C35.1384 36.6975 32.8071 39.0288 32.8071 41.9046C32.8071 44.7803 35.1384 47.1116 38.0142 47.1116Z" fill="#2962FF"/>
<path opacity="0.07" d="M36.4445 201.096C38.4147 199.001 38.3138 195.706 36.2191 193.736C34.1244 191.765 30.8291 191.866 28.8589 193.961C26.8887 196.056 26.9896 199.351 29.0843 201.321C31.1791 203.291 34.4743 203.19 36.4445 201.096Z" fill="#2962FF"/>
<path opacity="0.68" d="M37.0197 217.721C38.9899 215.626 38.889 212.331 36.7943 210.361C34.6995 208.39 31.4043 208.491 29.4341 210.586C27.4639 212.681 27.5648 215.976 29.6595 217.946C31.7543 219.916 35.0495 219.816 37.0197 217.721Z" fill="#2962FF"/>
<path opacity="0.44" d="M260.513 176.545C264.53 176.545 267.787 173.288 267.787 169.271C267.787 165.254 264.53 161.998 260.513 161.998C256.496 161.998 253.24 165.254 253.24 169.271C253.24 173.288 256.496 176.545 260.513 176.545Z" stroke="#2962FF" stroke-miterlimit="10"/>
<path opacity="0.68" d="M249.272 140.922C252.148 140.922 254.48 138.59 254.48 135.715C254.48 132.839 252.148 130.508 249.272 130.508C246.397 130.508 244.065 132.839 244.065 135.715C244.065 138.59 246.397 140.922 249.272 140.922Z" fill="#2962FF"/>
<path opacity="0.44" d="M240.511 10.7448C243.387 10.7448 245.718 8.41346 245.718 5.53767C245.718 2.66188 243.387 0.330597 240.511 0.330597C237.635 0.330597 235.304 2.66188 235.304 5.53767C235.304 8.41346 237.635 10.7448 240.511 10.7448Z" fill="#2962FF"/>
<path opacity="0.44" d="M257.042 32.2343C261.287 32.2343 264.729 28.7928 264.729 24.5476C264.729 20.3024 261.287 16.861 257.042 16.861C252.797 16.861 249.355 20.3024 249.355 24.5476C249.355 28.7928 252.797 32.2343 257.042 32.2343Z" stroke="#2962FF" stroke-miterlimit="10"/>
</g>
</svg>
