<?xml version="1.0" encoding="utf-8"?>
<!-- Generator: Adobe Illustrator 24.0.1, SVG Export Plug-In . SVG Version: 6.00 Build 0)  -->
<svg version="1.1" id="Layer_1" xmlns="http://www.w3.org/2000/svg" xmlns:xlink="http://www.w3.org/1999/xlink" x="0px" y="0px"
	 viewBox="0 0 800 800" style="enable-background:new 0 0 800 800;" xml:space="preserve">
<style type="text/css">
	.st0{fill:none;stroke:#E0E0E0;stroke-width:4;stroke-miterlimit:10;}
	.st1{fill:none;stroke:#E0E0E0;stroke-width:4;stroke-miterlimit:10;stroke-dasharray:14.8933,14.8933;}
	.st2{fill:#FFFFFF;stroke:#E0E0E0;stroke-width:3;stroke-miterlimit:10;}
	.st3{fill:none;stroke:#E0E0E0;stroke-width:3;stroke-miterlimit:10;}
	.st4{opacity:0.5;fill:none;stroke:#F97A68;stroke-width:3;stroke-miterlimit:10;}
	.st5{fill:none;stroke:#263238;stroke-width:2.4908;stroke-miterlimit:10;}
	.st6{fill:#FFFFFF;stroke:#616262;stroke-width:2;stroke-miterlimit:10;}
	.st7{fill:none;stroke:#616262;stroke-width:4;stroke-linecap:round;stroke-linejoin:round;stroke-miterlimit:10;}
	.st8{fill:#616262;stroke:#616262;stroke-width:3;stroke-linecap:round;stroke-linejoin:round;stroke-miterlimit:10;}
	.st9{fill:#FFFFFF;stroke:#F97A68;stroke-width:3;stroke-linecap:round;stroke-linejoin:round;stroke-miterlimit:10;}
	.st10{fill:#E0E0E0;stroke:#616262;stroke-width:2;stroke-linecap:round;stroke-linejoin:round;stroke-miterlimit:10;}
	.st11{fill:#52DEB8;stroke:#616262;stroke-width:2;stroke-miterlimit:10;}
	.st12{fill:#FFFFFF;stroke:#616262;stroke-width:2;stroke-linecap:round;stroke-linejoin:round;stroke-miterlimit:10;}
	.st13{fill:#616262;}
	.st14{fill:#FFFFFF;}
	.st15{fill:#616161;stroke:#616262;stroke-miterlimit:10;}
	.st16{fill:none;stroke:#616262;stroke-width:3;stroke-linecap:round;stroke-linejoin:round;stroke-miterlimit:10;}
	.st17{fill:#616262;stroke:#616262;stroke-width:2;stroke-linecap:round;stroke-linejoin:round;stroke-miterlimit:10;}
	.st18{fill:none;stroke:#5280FF;stroke-width:3;stroke-miterlimit:10;}
	.st19{fill:none;stroke:#52DEB8;stroke-width:6;stroke-miterlimit:10;}
	.st20{fill:#FFFFFF;stroke:#7499FF;stroke-width:3;stroke-miterlimit:10;}
	.st21{fill:#FFFFFF;stroke:#7499FF;stroke-width:4;stroke-miterlimit:10;}
	.st22{fill:none;stroke:#52DEB8;stroke-width:2;stroke-miterlimit:10;}
	.st23{opacity:0.8;fill:#F97A68;stroke:#F97A68;stroke-miterlimit:10;}
	.st24{opacity:0.8;}
	.st25{fill:none;stroke:#F97A68;stroke-width:3;stroke-miterlimit:10;}
	.st26{fill:none;stroke:#52DEB8;stroke-width:3;stroke-miterlimit:10;}
	.st27{fill:none;stroke:#FCC26B;stroke-width:3;stroke-miterlimit:10;}
	.st28{fill:#F97A68;stroke:#F97A68;stroke-miterlimit:10;}
	.st29{fill:#FCC26B;stroke:#FCC26B;stroke-miterlimit:10;}
	.st30{fill:#52DEB8;stroke:#52DEB8;stroke-miterlimit:10;}
	.st31{opacity:0.8;fill:#52DEB8;stroke:#52DEB8;stroke-miterlimit:10;}
	.st32{opacity:0.8;fill:#FCC26B;stroke:#FCC26B;stroke-miterlimit:10;}
	.st33{fill:none;stroke:#E0E0E0;stroke-width:4;stroke-miterlimit:10;stroke-dasharray:15;}
</style>
<g>
	<g>
		<path class="st0" d="M767,430c-2.4,0.2-4.9,0.4-7.5,0.6"/>
		<path class="st1" d="M744.7,431.5c-21.6,0.9-46.5,0.2-73.7-3.5c-38.1-5.1-65.4-14.1-87.5-21.5c-29.1-9.7-45.4-15.4-64.5-29.5
			c-18.5-13.6-30.5-28.7-37-38c-4.3-6.1-15.7-22.6-22-44c-3-10.2-18.9-64.4,13-104c30.4-37.8,93.4-48.7,135.5-19.5
			c43.3,30.1,41.4,86.5,41,94c-1.8,37.7-22.6,63-34.5,77.5c-23.8,29-51.1,41.9-73,52c-63.8,29.4-123,25.9-149,24
			c-6.4-0.5-37.3-2.9-76-14c-14.4-4.1-32.5-9.4-54-20c-20.6-10.1-50.8-25-77-57c-5.9-7.3-30.9-38.9-40-88c-2.7-14.3-10.8-60.9,9-107
			c21.9-51,73.9-92.2,129-103c136.3-26.7,249.2,140.9,352.1,91.5"/>
		<path class="st0" d="M642.6,118c2.9-1.7,5-3.1,6.4-4"/>
	</g>
</g>
<g>
	<g>
		<path class="st2" d="M545.2,304.5c0,3.9,0,7.8,0,11.8c-3,1-7.3,2.7-11.8,5.9c-4.8,3.4-7.9,7.1-9.8,9.8l0,17.6l-15.7,0l0,13.7
			c-3.9,0-7.8,0-11.8,0c-0.8,1.7-2.2,5.3-2,9.8c0.2,3.5,1.2,6.2,2,7.8l5.9,0c0,2,0,3.9,0,5.9c-11,3.6-35.6,13.1-56.8,37.3
			c-20.4,23.1-27,47.5-29.4,58.8l-39.2,0l0,29.4l35.3,0l0,76.5l-25.5,0l0,17.6l-19.6,0l0,23.5l-8.6,0l402.6,0h-33.3v-23.5H708v-17.6
			h-25.5v-76.5h35.3v-29.4h-39.2c-2.4-11.3-9-35.7-29.4-58.8c-21.3-24.1-45.9-33.7-56.9-37.2c0-2,0-3.9,0-5.9h5.9
			c0.8-1.6,1.8-4.3,2-7.8c0.2-4.6-1.1-8.1-2-9.8c-3.9,0-7.8,0-11.8,0v-13.7h-15.7V332c-1.9-2.7-5-6.4-9.8-9.8
			c-4.5-3.2-8.7-4.9-11.8-5.9c0-3.9,0-7.8,0-11.8"/>
	</g>
	<line class="st2" x1="545.2" y1="306.4" x2="549.2" y2="306.4"/>
</g>
<path class="st3" d="M340,221.8"/>
<path class="st3" d="M283.7,621.3h-33v-14.4h-14.4v-10.3h-24.8v-14.4h-6.2v-6.2h-20.6v-10.3h-8.3v-22.7H164v-24.8h8.3V514H162v-53.7
	h6.2v-18.6c2.4-0.1,7.4-0.7,12.4-4.1c3.1-2.1,5-4.5,6.2-6.2c-6.9,0-13.8,0-20.6,0l2.1-8.3h12.4v-10.3h-12.4v-8.3h10.3
	c-0.2-0.9-1.1-4-4.1-6.2c-3.6-2.7-7.5-2.2-8.3-2.1c0-7.2,0-14.4,0-21.6c0-7.9,0-15.8,0-23.8c-1.6-14.3-5.4-33.9-14.4-55.7
	c-9.5-22.9-21.5-40.1-31-51.6c-4.1,0-8.3,0-12.4,0v-6.2h10.3c0-3.3-0.6-9.6-4.1-16.5c-3.3-6.4-7.7-10.4-10.3-12.4"/>
<path class="st3" d="M-79.3,619.5l33,0.3l0.1-14.4l14.4,0.1l0.1-10.3l24.8,0.2l0.1-14.4l6.2,0.1l0.1-6.2l20.6,0.2l0.1-10.3l8.3,0.1
	l0.2-22.7l12.4,0.1l0.2-24.8l-8.3-0.1l0-4.1l10.3,0.1l0.5-53.6l-6.2-0.1l0.2-18.6c-2.4-0.1-7.4-0.8-12.3-4.2c-3-2.1-5-4.5-6.1-6.2
	c6.9,0.1,13.8,0.1,20.6,0.2l-2-8.3l-12.4-0.1l0.1-10.3l12.4,0.1l0.1-8.3L28,403.9c0.2-0.9,1.2-4,4.2-6.2c3.6-2.6,7.5-2.1,8.3-2
	c0.1-7.2,0.1-14.4,0.2-21.6c0.1-7.9,0.2-15.8,0.2-23.8c1.8-14.3,5.7-33.9,15-55.6c9.8-22.9,21.9-39.9,31.4-51.3
	c4.1,0,8.3,0.1,12.4,0.1l0.1-6.2l-10.3-0.1c0.1-3.3,0.7-9.6,4.3-16.5c3.4-6.4,7.8-10.3,10.4-12.3"/>
<polygon class="st3" points="141.6,470.6 141.6,547 63.2,547 65.3,470.6 "/>
<rect x="499.6" y="463.2" class="st3" width="92.1" height="117.6"/>
<path class="st2" d="M178.7,529.8l33.5-0.3v-25.5h23.5l0.8-26.9l0.7-123.5l-47.1-0.3l0.1-11.8l13.7,0.1l0.1-9.8l29.4,0.2l0.1-23.5
	l3.9,0l0.1-11.8l5.9,0l0.1-23.5l5.9,0l0.1-13.7l5.9,0c-0.6-4.7-1.1-14,3.1-24.5c5.8-14.6,16.8-22,20.7-24.4c0-8.5,0.1-17,0.1-25.5
	l7.8,0l0.1-15.7l11.8,0.1l0.1-25.5l-7.8,0l0-7.8l7.8,0c1-3.6,2.5-8,5-12.7c2.6-5,5.5-8.8,7.9-11.7c-2.8-3.8-3.1-8.6-0.9-12.3
	c2.1-3.5,5.7-4.5,6.6-4.7c3.8,0.4,7.1,3,8.4,6.6c1.3,3.6,0.5,7.6-2.1,10.4c2.4,2.9,5.3,6.8,7.8,11.8c2.5,4.8,4,9.2,4.9,12.7h7.8v7.8
	h-7.8v25.5h11.8v15.7h7.8c0,8.5,0,17,0,25.5c3.9,2.4,14.9,9.9,20.6,24.5c4.1,10.5,3.5,19.8,2.9,24.5h5.9v13.7h5.9v23.5h5.9V309h3.9
	v23.5h29.4v9.8h13.7v11.8h-47.1c0,41.2,0,82.3,0,123.5"/>
<polyline class="st4" points="417.5,632.5 417.5,645.5 409.5,645.5 "/>
<line class="st5" x1="3" y1="646.7" x2="797.3" y2="646.7"/>
<path class="st6" d="M409.1,237.5c0,0,20.1-10.2,29.1-50.5c0,0,7.6,4,7.3,6.7c-0.3,2.7-5.3,38.8-35.3,53.4l-3.5-8.3L409.1,237.5z"/>
<path class="st6" d="M371.9,239.9c0,0-30.2-8.3-17.5-48.4c0,0-6.2-2-8.2,9.5c-2,11.5-5.4,38.8,23.5,50.5L371.9,239.9z"/>
<path class="st7" d="M361.6,313.2c-34.2,12.3-48.6,42.1-41.2,59.9c6.6,15.7,29.2,19.7,32.2,20.2"/>
<path class="st8" d="M340.8,465.8l-1.7,230.5l9.1,3.1c0,0,31.4-112.9,34-147.7c0,0,14.2,139.7,19,147.7l12.9,2.5
	c0,0,27.9-214.2,18.8-237.7L340.8,465.8z"/>
<path class="st9" d="M442.6,331.3c-8.4-11.8-17.1-17.1-23.8-19.7c0,0-5.5-2.1-32.3-4.9c-33.4,15.5-42.1,32-43.7,41
	c-1.6,9-3.7,121.1-3.7,121.1c31.2,31,106.4,0,106.4,0c4.7-27.2,7.6-61.4,3.2-100.3C447.3,355.2,445.2,342.8,442.6,331.3z"/>
<path class="st10" d="M420.9,303.4c0,0-42.7,21.3-35.3,49.1l-9.5-1.5c0,0-11-33.5,25.2-57c0,0-49.6,11.5-42.8,56.8
	c0,0-25.4-8,5.4-56s49.3-5.5,49.3-5.5L420.9,303.4z"/>
<path class="st11" d="M369.8,232.9l-4.5,20.8l24.9,42.5c0,0,25.2,7,30.7,7.2s-8.2-63.4-15.6-70.5
	C405.2,232.9,377.6,240.4,369.8,232.9z"/>
<path class="st12" d="M357.3,272.2c0.2-2.3,0.4-4.5,0.5-6.1c0.6-8.1,27.9-15.9,38.6-3.8c0,0,4.2,17.5-3.5,27.5
	c-7.7,10-37.8,3.5-37.8,3.5s-1.6-0.9,0.4-4.1"/>
<g>
	<g>
		<path class="st13" d="M355.4,278.1c0.7-2,3.1-2.6,5-2.6c2,0,4.3,0.7,5.1,2.7c0.2,0.5,0.7,0.9,1.2,0.7c0.5-0.1,0.9-0.7,0.7-1.2
			c-1.2-2.9-4.1-4.2-7-4.2c-2.9,0-5.9,1.2-6.9,4.1C353.1,278.8,355,279.3,355.4,278.1L355.4,278.1z"/>
	</g>
</g>
<g>
	<g>
		<path class="st13" d="M372.9,277.9c0.3-1,1.7-1,2.5-1c1.2,0,2.5,0,3.7,0.2c1,0.2,2,0.4,2.7,1.3c0.6,0.8,0.8,1.8,1.1,2.7
			c0.3,1.2,2.3,0.7,1.9-0.5c-0.4-1.3-0.8-2.6-1.6-3.6c-1-1.2-2.5-1.6-4-1.9c-1.6-0.2-3.3-0.3-4.9-0.2c-1.5,0.1-2.9,0.9-3.3,2.4
			C370.6,278.6,372.6,279.1,372.9,277.9L372.9,277.9z"/>
	</g>
</g>
<g>
	<g>
		<path class="st13" d="M375,265c-0.8,0.5-1.5,1.2-2.1,1.9c-0.5,0.7,0.2,1.4,0.9,1.5c3,0.3,5.9,0.9,8.8,1.9c0.2-0.6,0.4-1.3,0.5-1.9
			c-2.3-0.6-4.5-1.5-6.4-2.8c-0.4-0.3-1.1-0.1-1.4,0.4c-0.3,0.5-0.1,1.1,0.4,1.4c2.1,1.4,4.4,2.4,6.9,3c1.3,0.3,1.8-1.5,0.5-1.9
			c-3-1-6.1-1.6-9.3-1.9c0.3,0.5,0.6,1,0.9,1.5c0.4-0.5,0.9-0.9,1.4-1.2C377.1,266.1,376.1,264.3,375,265L375,265z"/>
	</g>
</g>
<g>
	<g>
		<path class="st13" d="M365.5,266.4c-1.4-0.5-2.9-0.8-4.4-0.9c-1.4-0.1-2.8,0.2-3.9,1.1c-0.8,0.6,0.1,2,1,1.7
			c1.4-0.4,2.8-0.5,4.2-0.2c0.3,0.1,0.7,0.2,1,0.3c0.3,0.1,0.7,0.3,1,0.4c0.5,0.1,1.1,0,1.4-0.4c0.4-0.4,0.5-1.1,0.2-1.5
			c-0.3-0.4-0.9-0.7-1.4-0.4c-0.4,0.3-0.7,0.9-0.4,1.4c0,0,0-0.1,0-0.1c0-0.2,0-0.4,0-0.5c0.2-0.2,0.2-0.3,0.1-0.2
			c0.1-0.1,0.3-0.2,0.4-0.3c0.1,0,0.3,0.1,0,0c-0.2-0.1-0.4-0.2-0.6-0.2c-0.3-0.1-0.6-0.2-0.8-0.3c-0.6-0.2-1.3-0.3-1.9-0.3
			c-1.3-0.1-2.6,0.1-3.8,0.5c0.3,0.6,0.6,1.1,1,1.7c0,0,0.2-0.1,0.3-0.2c0.1-0.1,0.2-0.1,0.2-0.1c0.3-0.1,0.5-0.2,0.8-0.2
			c-0.1,0,0.2,0,0.2,0c0.2,0,0.3,0,0.5,0c0.3,0,0.5,0,0.8,0c1.1,0.1,2.5,0.4,3.7,0.8c0.5,0.2,1.1-0.2,1.2-0.7
			C366.4,267.1,366.1,266.6,365.5,266.4L365.5,266.4z"/>
	</g>
</g>
<g>
	<g>
		<path class="st13" d="M361.3,278.5c-1.7,2.5-3.4,5-4.9,7.5c-0.4,0.7,0.2,1.4,0.9,1.5c1.7,0.2,3.5-0.1,5-0.9
			c0.5-0.2,0.6-0.9,0.4-1.4c-0.3-0.5-0.9-0.6-1.4-0.4c-1.3,0.6-2.6,0.8-4,0.6c0.3,0.5,0.6,1,0.9,1.5c1.6-2.6,3.2-5.1,4.9-7.5
			c0.3-0.4,0.1-1.1-0.4-1.4C362.2,277.8,361.6,278,361.3,278.5L361.3,278.5z"/>
	</g>
</g>
<g>
	<path class="st14" d="M392.9,275.9c0.2-0.7,0.8-1.2,1.3-1.7c1.5-1.2,3.3-2.1,5.1-2s3.8,1.4,4,3.3c0.2,1.5-0.7,2.9-1.8,4
		c-1.3,1.3-2.8,2.3-4.5,3c-1,0.4-2.3,0.6-3-0.3"/>
	<g>
		<path class="st13" d="M394.4,276.3c-0.1,0.2,0.2-0.3,0.1-0.2c0,0,0.2-0.3,0.3-0.3c0.3-0.3,0.5-0.4,0.8-0.6c0.6-0.4,1.4-0.9,2-1.1
			c0.2-0.1,0.4-0.1,0.6-0.2c0.1,0,0.2,0,0.3-0.1c0,0,0.3,0,0.1,0c0.2,0,0.3,0,0.5,0c0.1,0,0.2,0,0.4,0c0.1,0,0.2,0,0,0
			c0.3,0,0.7,0.1,1,0.3c-0.2-0.1,0.1,0.1,0.2,0.1c0.2,0.1,0.3,0.2,0.5,0.3c-0.2-0.1,0.2,0.1,0.2,0.2c0.1,0.1,0.3,0.4,0.2,0.2
			c0.1,0.1,0.2,0.2,0.2,0.4c0.1,0.2,0.1,0.1,0,0c0,0.1,0.1,0.2,0.1,0.3c0,0.1,0,0.2,0.1,0.3c0,0,0-0.2,0,0c0,0.1,0,0.5,0,0.3
			c0,0.2-0.1,0.3-0.1,0.5c0,0.1-0.1,0.2-0.1,0.3c0.1-0.1,0,0.1-0.1,0.1c-0.7,1.3-1.8,2.3-3.1,3.1c-0.7,0.5-1.5,0.9-2.3,1.1
			c-0.2,0.1-0.4,0.1-0.6,0.1c0.2,0-0.2,0-0.3,0c0,0-0.3,0-0.1,0c0.2,0-0.1,0-0.1,0c-0.2-0.1,0,0,0.1,0c-0.3-0.1,0.1,0.1-0.1-0.1
			c-0.5-0.6-1.6-0.6-2.1,0c-0.6,0.6-0.5,1.5,0,2.1c1.6,1.8,4.3,0.9,6.1-0.1c1.9-1,3.8-2.5,4.9-4.4c1.2-2,1.1-4.5-0.5-6.2
			c-1.5-1.7-3.9-2.1-6-1.7c-1.2,0.3-2.4,0.8-3.4,1.5c-1.1,0.8-2.2,1.7-2.7,3c-0.3,0.8,0.3,1.6,1,1.8
			C393.4,277.5,394.1,277,394.4,276.3L394.4,276.3z"/>
	</g>
</g>
<path class="st6" d="M350.2,255.9c0.8,2.4,2.7,13.5,6.4,14.5s9.8-14.3,29.2-7.3c19.4,7.1,11.5-5.4,11.5-5.4s-8.8-22.7-37.2-8
	L350.2,255.9z"/>
<ellipse class="st15" cx="353.2" cy="248" rx="10.6" ry="10.5"/>
<path class="st16" d="M345.2,693.5c3.2,8.5,2,17.4-3.3,22.8c-1.2,1.2-5.8,5.9-12.5,5c-7.2-1-10.6-7.8-10.8-8.3"/>
<path class="st16" d="M404.1,692.7c-0.2,0.7-10.1,24.5,0,32.5c10.1,8,23.6,2.8,26.4-7.7"/>
<g>
	<g>
		<path class="st13" d="M373,191c0.9,3.2,2.6,6.1,4.9,8.5c0.1-0.3,0.2-0.6,0.4-0.9c-1,0.1-2,0.3-2.9,0.4c-0.4,0.1-0.7,0.5-0.4,0.9
			c1.4,1.4,3.1,2.5,4.8,3.4c0.6,0.3,1.1-0.6,0.5-0.9c-1.7-0.8-3.3-1.9-4.6-3.2c-0.1,0.3-0.2,0.6-0.4,0.9c1-0.1,2-0.3,2.9-0.4
			c0.4-0.1,0.7-0.5,0.4-0.9c-2.2-2.3-3.8-5-4.7-8C373.8,190.1,372.8,190.4,373,191L373,191z"/>
	</g>
</g>
<g>
	<g>
		<path class="st13" d="M373.1,191.3c0.8,2,2.3,3.6,4.1,4.7c0.3,0.2,0.8,0,0.8-0.4c-0.2-1.7-0.4-3.5-0.6-5.2
			c-0.3,0.1-0.6,0.2-0.9,0.4c1.4,1.2,2.6,2.7,3.4,4.4c0.4,0.8,0.7,1.7,1,2.5c0.3,0.9,1,0.9,1.9,1c0.7,0.1,1.8,0.5,2.6,0.1
			c0.7-0.4,1-1.5,1.2-2.2c0.6-1.9,1-3.9,1-6c-0.3,0.1-0.6,0.2-0.9,0.3c1,2.2,1.5,4.6,1.3,7c0,0.5,0.7,0.7,0.9,0.3
			c1.5-3.3,2.9-6.7,4.2-10c-0.3,0-0.7-0.1-1-0.1c0.3,3.8,0.2,7.7-0.4,11.5c-0.1,0.4,0.2,0.7,0.6,0.6c3.6-1.1,7-2.8,10-5
			c-0.2-0.1-0.5-0.1-0.7-0.2c0.5,0.6-0.3,2-0.5,2.7c-0.3,0.8-0.7,1.6-1.2,2.4c-1,1.6-2.2,2.9-3.6,4.1c-0.2,0.2-0.2,0.5,0,0.7
			c1.8,1.7,4.7,0.2,6.7-0.6c2.6-1.1,5.1-2.4,7.5-3.9c-0.2-0.1-0.5-0.2-0.7-0.3c0.6,2.5-2,4.9-3.7,6.3c-2,1.5-4.2,2.5-6.6,3.1
			c-0.5,0.1-0.5,0.9,0,1c4.7,0.9,9.6,1.1,14.3,0.4c-0.2-0.2-0.3-0.4-0.5-0.6c-0.6,1.8-2.8,2.7-4.4,3.4c-1.9,0.8-4,1.4-6.1,1.7
			c-0.4,0.1-0.4,0.6-0.2,0.8c1.5,1.7,3.1,3.4,4.6,5.1c0.1-0.3,0.2-0.6,0.4-0.9c-2.2-0.2-4.1-1.2-5.5-2.9c-0.1,0.3-0.2,0.6-0.4,0.9
			c0.6,0,1.2,0.2,1.7,0.6c0.5,0.3,1-0.4,0.6-0.8c-0.9-0.7-1.6-1.5-2.3-2.5c-0.2,0.2-0.4,0.5-0.6,0.7c0.5,0.1,0.9,0.4,1.3,0.8
			c0.4,0.5,1.1-0.2,0.7-0.7c-0.4-0.5-1-0.9-1.7-1.1c-0.4-0.1-0.8,0.4-0.6,0.7c0.7,1,1.5,1.9,2.5,2.7c0.2-0.3,0.4-0.5,0.6-0.8
			c-0.7-0.5-1.4-0.7-2.2-0.7c-0.5,0-0.6,0.5-0.4,0.9c1.6,1.9,3.8,3,6.2,3.2c0.5,0,0.6-0.6,0.4-0.9c-1.5-1.7-3.1-3.4-4.6-5.1
			c-0.1,0.3-0.1,0.6-0.2,0.8c2.3-0.3,4.6-1,6.7-2c1.8-0.8,3.7-1.9,4.4-3.8c0.1-0.3-0.2-0.7-0.5-0.6c-4.7,0.6-9.4,0.5-14.1-0.4
			c0,0.3,0,0.6,0,1c2.7-0.7,5.2-1.9,7.4-3.6c2-1.6,4.3-4.2,3.6-6.9c-0.1-0.3-0.5-0.5-0.7-0.3c-2.1,1.3-4.3,2.5-6.6,3.5
			c-1.1,0.5-2.2,0.9-3.4,1.3c-1,0.3-2.2,0.6-3-0.2c0,0.2,0,0.5,0,0.7c1.6-1.4,3-3,4-4.8c0.5-0.9,0.9-1.9,1.3-2.8
			c0.3-0.8,0.7-1.9,0.2-2.7c-0.1-0.2-0.4-0.3-0.7-0.2c-3,2.1-6.3,3.8-9.8,4.9c0.2,0.2,0.4,0.4,0.6,0.6c0.6-3.9,0.8-7.9,0.4-11.8
			c0-0.6-0.8-0.7-1-0.1c-1.3,3.3-2.6,6.6-4.1,9.8c0.3,0.1,0.6,0.2,0.9,0.3c0.2-2.6-0.4-5.1-1.5-7.5c-0.2-0.5-0.9-0.2-0.9,0.3
			c0,1.8-0.3,3.5-0.8,5.2c-0.2,0.6-0.5,2.2-1.2,2.2c-0.4,0-0.9-0.1-1.3-0.2c-0.3-0.1-1.1,0-1.4-0.3c-0.2-0.2-0.3-0.7-0.3-1
			c-0.1-0.3-0.3-0.6-0.4-1c-0.3-0.7-0.7-1.3-1-2c-0.8-1.3-1.8-2.5-3-3.5c-0.3-0.3-0.9-0.1-0.9,0.4c0.2,1.7,0.4,3.5,0.6,5.2
			c0.3-0.1,0.5-0.3,0.8-0.4c-1.7-1-3-2.5-3.8-4.4C373.8,190.2,372.9,190.7,373.1,191.3L373.1,191.3z"/>
	</g>
</g>
<g>
	<g>
		<path class="st13" d="M401.6,211.7c0.6,0.6,1.2,1.2,1.7,1.9c0.4,0.5,1.2,0.1,0.9-0.5c-0.3-0.6-0.8-1-1.3-1.4
			c-0.2-0.2-0.7,0-0.7,0.3c-0.1,0.6,0.1,1,0.3,1.5c0.3,0.5,0.6,0.9,0.7,1.4c0.2-0.2,0.3-0.4,0.5-0.6c-0.3,0,0.1-0.5,0.2-0.6
			c0.3-0.2,0.8-0.3,1.2-0.3c0.9-0.2,1.8-0.3,2.7-0.3c0.6,0,0.6-1,0-1c-1.3,0-2.5-0.2-3.8-0.5c0,0.3,0,0.6,0,1c1.3-0.2,2.7-0.4,4-0.6
			c1.3-0.2,2.7-0.5,4-0.4c-0.2-0.2-0.3-0.4-0.5-0.6c-0.1,0.5-0.9,0.7-1.3,0.9c-0.7,0.3-1.4,0.6-2.1,0.9c-0.7,0.3-1.3,0.6-2,0.9
			c-0.7,0.3-1.4,0.5-2.1,0.3c-0.6-0.2-0.9,0.8-0.3,1c1.7,0.5,3.4-0.6,4.9-1.3c0.8-0.4,1.7-0.7,2.5-1.1c0.6-0.3,1.2-0.6,1.3-1.3
			c0.1-0.3-0.1-0.6-0.5-0.6c-1.4,0-2.7,0.3-4.1,0.4c-1.4,0.2-2.8,0.4-4.2,0.6c-0.5,0.1-0.5,0.9,0,1c1.3,0.3,2.7,0.5,4.1,0.5
			c0-0.3,0-0.7,0-1c-0.8,0-1.6,0.1-2.4,0.2c-0.7,0.1-1.5,0.2-2.1,0.6c-0.5,0.3-0.8,0.8-0.7,1.4c0.1,0.6,0.5,0.9,1.1,1
			c0.3,0,0.5-0.3,0.5-0.6c-0.1-0.5-0.3-0.9-0.6-1.2c-0.2-0.3-0.6-0.8-0.5-1.2c-0.2,0.1-0.5,0.2-0.7,0.3c0.4,0.3,0.7,0.6,0.9,1
			c0.3-0.2,0.6-0.3,0.9-0.5c-0.6-0.8-1.2-1.5-1.9-2.1C401.8,210.6,401.1,211.3,401.6,211.7L401.6,211.7z"/>
	</g>
</g>
<g>
	<g>
		<path class="st13" d="M398.6,207.1c1.9,0.1,3.6-0.8,5.2-1.8c0.8-0.5,1.7-0.9,2.6-1.3c1-0.4,2-0.8,2.9-1.3
			c-0.2-0.2-0.5-0.4-0.7-0.6c-0.6,1.7-2.5,2.9-4,3.8c-0.8,0.5-1.7,0.9-2.6,1.2c-0.2,0.1-2.2,0.8-2.3,0.5c-0.2,0.2-0.3,0.4-0.5,0.6
			c2.8-0.2,5.5-1.2,7.6-3.1c0.5-0.4-0.2-1.1-0.7-0.7c-1.9,1.7-4.4,2.7-6.9,2.8c-0.3,0-0.6,0.3-0.5,0.6c0.3,1.1,1.6,0.8,2.4,0.6
			c1.2-0.3,2.3-0.7,3.4-1.3c1-0.5,2-1.2,2.9-1.9c0.9-0.8,1.8-1.6,2.2-2.8c0.2-0.4-0.4-0.8-0.7-0.6c-1.7,0.9-3.5,1.6-5.2,2.5
			c-1.5,0.9-3.1,1.8-5,1.8C397.9,206.1,397.9,207.1,398.6,207.1L398.6,207.1z"/>
	</g>
</g>
<path class="st12" d="M379.8,203.7c0,0-4.4,9.8-12.2,8.3l4.3,6.1c0,0-1.3,5.6,0,6.9c1.3,1.3,11.4,12.4,21.8,1c0,0,7.7,0.5,6.4-5
	c0,0,2.5-3.9,1.6-6.6S392,195.4,379.8,203.7z"/>
<g>
	<g>
		<path class="st13" d="M392.1,201.9c3.1-1.5,6.2-3.1,9.3-4.7c-0.2-0.2-0.5-0.5-0.7-0.7c-0.6,1.3-1.9,2.2-2.8,3.3
			c-1,1.2-1.8,2.4-2.4,3.8c0.3,0,0.5-0.1,0.8-0.1c-0.8-1.1,1.1-2,1.8-2.2c-0.1-0.3-0.3-0.6-0.4-0.9c-1.5,0.7-3.2,1.5-4.9,0.9
			c-0.6-0.2-0.9,0.8-0.3,1c1.1,0.4,2.4,0.8,3.6,0.3c0.9-0.4,1.6-1.1,1.7-2.1c0-0.4-0.5-0.6-0.8-0.4c-0.8,0.5-1.7,1.1-2.4,1.7
			c-0.5,0.4-0.9,1.1-0.5,1.8c0.2,0.3,0.7,0.4,0.9,0c0.4-0.8,0-1.7-0.9-2.1c-0.5-0.2-1-0.2-1.5-0.2c-0.4,0-1.6,0.3-1.7-0.2
			c-0.1-0.2,0-0.6,0-0.9c0-0.3,0-0.6,0-0.9c0-0.7,0-1.3,0.1-2c0.1-1.3,0.5-2.6,0.9-3.9c-0.3-0.1-0.6-0.2-1-0.3
			c-0.5,2.2-1,4.4-1.3,6.6c-0.1,0.5,0.6,0.9,0.9,0.4c0.6-1.1,1-2.2,1.4-3.4c-0.3,0-0.7-0.1-1-0.1c0.1,0.8,0.2,1.6,0.1,2.4
			c0,0.1,0,0.2,0,0.2c0,0.1,0,0.1,0,0.1c-0.1,0.1-0.5,0-0.6,0c-0.4,0-0.9,0.1-1.3-0.1c0.1,0.1,0.2,0.2,0.3,0.2
			c-0.1-0.2-0.1-0.6-0.1-0.8c0-0.4-0.1-0.7-0.1-1.1c-0.1-0.7-0.1-1.3-0.2-2c0-0.5-0.8-0.7-1-0.1c-0.2,1-0.2,2-0.1,3c0.3,0,0.7,0,1,0
			c-0.2-1.3-0.4-2.7-0.7-4c-0.1-0.5-0.9-0.5-1,0c-0.1,0.8-0.2,1.8-0.5,2.5c-0.3,0.6-1.2,0.3-1.4,0.9c-0.2,0.6,0.2,1.1,0.7,1.2
			c0.8,0.3,1.8-0.1,2.5,0.2c-0.1-0.2-0.1-0.5-0.2-0.7c-0.2,0.3-0.8,0.3-1.1,0.4c-0.4,0.1-0.9,0.2-1.3,0.3c-0.9,0.2-1.9,0.4-2.8,0.6
			c-0.4,0.1-0.9,0.2-1.3,0.3c-0.4,0.1-0.9,0.3-1.3,0.3c-0.5,0-0.9-0.4-1.3-0.6c-0.4-0.2-0.8-0.5-1.2-0.7c-0.1,0.3-0.3,0.6-0.4,0.9
			c1.8,0.4,3.6,0.3,5.2-0.3c0.3-0.1,0.5-0.6,0.2-0.8c-0.8-0.7-2-1-2.6-1.9c-0.6-0.8-1.1-1.7-2.2-1.6c-0.2,0-0.4,0.1-0.4,0.2
			c-0.3,0.6,0.1,1,0.4,1.5c0.5,0.6,1.1,1.3,1.6,1.9c0.3,0.4,1,0,0.8-0.5c-0.7-1.9-1-3.9-1-5.9c0-0.6-1-0.6-1,0
			c0,1.3,0.2,2.7,0.6,3.9c0.4,1.2,1.2,1.9,2.3,2.5c2.2,1.3,4.8,2,7.3,0.9c0.6-0.3,0.1-1.1-0.5-0.9c-2.1,0.9-4.4,0.2-6.3-0.9
			c-0.4-0.3-0.9-0.5-1.3-0.9c-0.4-0.4-0.5-0.9-0.7-1.3c-0.3-1.1-0.5-2.2-0.5-3.3c-0.3,0-0.7,0-1,0c0,2.1,0.3,4.2,1,6.2
			c0.3-0.2,0.6-0.3,0.8-0.5c-0.3-0.4-0.7-0.8-1-1.2c-0.1-0.1-0.9-1-0.9-1c-0.1,0.1-0.3,0.2-0.4,0.2c0.9-0.1,1.3,1.3,1.9,1.8
			c0.6,0.6,1.5,0.9,2.1,1.4c0.1-0.3,0.1-0.6,0.2-0.8c-1.5,0.5-3.1,0.7-4.7,0.3c-0.5-0.1-0.9,0.6-0.4,0.9c0.5,0.3,1,0.6,1.5,0.9
			c0.4,0.2,0.9,0.5,1.4,0.6c0.5,0,0.9-0.1,1.4-0.2c0.6-0.1,1.1-0.2,1.7-0.4c1.1-0.2,2.3-0.5,3.4-0.7c0.9-0.2,1.9-0.2,2.5-1
			c0.1-0.2,0.1-0.6-0.2-0.7c-0.6-0.3-1.2-0.3-1.9-0.3c-0.2,0-0.9-0.1-1,0c-0.1,0.1,0.6,0,0.7-0.1c1.1-0.6,1.1-2.4,1.3-3.5
			c-0.3,0-0.6,0-1,0c0.3,1.2,0.5,2.5,0.7,3.7c0.1,0.6,1,0.7,1,0c-0.1-0.9-0.1-1.8,0.1-2.7c-0.3,0-0.7-0.1-1-0.1
			c0.1,1.1,0.2,2.2,0.3,3.3c0,0.4,0,0.8,0.2,1.1c0.3,0.4,0.7,0.3,1.1,0.3c0.7,0,2,0.3,2.3-0.6c0.1-0.4,0.1-0.9,0.1-1.4
			c0-0.6-0.1-1.1-0.1-1.7c-0.1-0.5-0.8-0.7-1-0.1c-0.3,1.1-0.7,2.1-1.3,3.2c0.3,0.1,0.6,0.3,0.9,0.4c0.3-2.2,0.8-4.4,1.3-6.6
			c0.2-0.6-0.8-0.9-1-0.3c-0.4,1.2-0.7,2.4-0.9,3.6c-0.2,1.2-0.1,2.4-0.1,3.6c0,1-0.1,2,1.2,2c0.4,0,3.6-0.4,3.1,0.6
			c0.3,0,0.6,0,0.9,0c-0.3-0.4,2.2-1.9,2.5-2.1c-0.3-0.1-0.5-0.3-0.8-0.4c-0.1,0.7-0.8,1.2-1.5,1.2c-0.9,0.1-1.7-0.2-2.5-0.5
			c-0.1,0.3-0.2,0.6-0.3,1c2,0.6,3.9-0.2,5.7-1c0.5-0.2,0.1-1.1-0.4-0.9c-0.9,0.4-1.8,0.8-2.3,1.6c-0.4,0.8-0.4,1.6,0.1,2.3
			c0.2,0.2,0.7,0.2,0.8-0.1c0.7-1.4,1.5-2.8,2.6-4c0.9-1,2-1.9,2.7-3.2c0.2-0.5-0.2-0.9-0.7-0.7c-3.1,1.6-6.2,3.1-9.3,4.7
			C391,201.3,391.6,202.1,392.1,201.9L392.1,201.9z"/>
	</g>
</g>
<g>
	<g>
		<path class="st13" d="M382.2,213.3c0.4-1.8-1.1-3.3-2.9-3.2c-0.9,0-1.8,0.4-2.3,1.1c-0.6,0.8-0.5,1.7-0.4,2.7
			c0.3-0.2,0.6-0.3,0.8-0.5c-0.7-0.7-1.1-1.6-1.2-2.6c0-0.4,0-1,0.4-1.3c0.4-0.3,0.8-0.4,1.3-0.5c0.9-0.1,1.9,0.2,2.5,0.8
			c0.6,0.6,0.9,1.6,0.8,2.4c-0.1,0.5,0.4,0.8,0.8,0.5c0.7-0.6,0.8-1.7,0.6-2.6c-0.2-0.9-0.8-1.7-1.6-2.2c-1.5-1-3.8-1-4.9,0.5
			c-0.5,0.7-0.8,1.7-0.7,2.6c0.3,0,0.7,0,1,0c-0.1-0.6,0.4-1,0.9-1.2c0.7-0.2,1.5,0,2.2,0.3c0.6,0.3,1.1,0.6,1.4,1.2
			c0.3,0.6,0.5,1.2,0.7,1.8c0.1,0.4,0.7,0.5,0.9,0.1c0.6-1.2,0.6-2.6,0-3.8c-0.1-0.2-0.5-0.3-0.7-0.2c-0.3,0.1-0.3,0.4-0.2,0.7
			c0.4,0.9,0.4,1.9,0,2.8c0.3,0,0.6,0.1,0.9,0.1c-0.2-0.8-0.5-1.6-0.9-2.3c-0.5-0.8-1.3-1.2-2.2-1.6c-0.9-0.3-1.9-0.5-2.8,0
			c-0.7,0.4-1.3,1.1-1.2,2c0.1,0.6,1.1,0.6,1,0c-0.1-0.7,0.1-1.5,0.6-2.1c0.5-0.7,1.4-0.8,2.2-0.7c0.8,0.2,1.7,0.6,2.1,1.3
			c0.4,0.6,0.7,1.8,0,2.3c0.3,0.2,0.6,0.3,0.8,0.5c0.3-2-0.9-3.9-2.9-4.4c-1-0.2-2-0.1-2.9,0.3c-0.5,0.2-0.9,0.6-1.1,1.1
			c-0.1,0.5-0.2,1-0.1,1.5c0.1,1.1,0.6,2.2,1.5,3c0.4,0.4,0.9,0,0.8-0.5c-0.1-0.6-0.2-1.3,0.2-1.8c0.4-0.5,1-0.7,1.5-0.7
			c1-0.1,2.2,0.8,1.9,1.9C381.1,213.7,382,213.9,382.2,213.3L382.2,213.3z"/>
	</g>
</g>
<g>
	<g>
		<path class="st13" d="M382.7,210.2c-0.7-1.7-2.5-2.8-4.3-2.7c-0.9,0-2,0.3-2.6,1.1c-0.6,0.7-0.8,1.6-0.7,2.5
			c0.1,1,0.5,1.9,1.2,2.5c0.5,0.4,1.2-0.3,0.7-0.7c-1.2-1.1-1.5-3.6,0.3-4.2c1.8-0.6,3.8,0.3,4.5,2c0.1,0.2,0.5,0.3,0.7,0.2
			C382.8,210.7,382.9,210.4,382.7,210.2L382.7,210.2z"/>
	</g>
</g>
<g>
	<g>
		<path class="st13" d="M380.5,218.6c0.1,0.9-0.2,1.6-0.7,2.3c-0.5,0.7-1.2,1.5-2.1,1.6c-1.7,0.2-3.9,0.3-5.3-1
			c-0.5-0.4-1.2,0.3-0.7,0.7c0.8,0.7,1.8,1.2,2.8,1.3c0.6,0.1,1.2,0.1,1.9,0.1c0.6,0,1.2,0,1.7-0.1c1-0.2,1.8-1.1,2.4-1.9
			c0.6-0.9,1.1-1.9,0.9-3C381.4,217.9,380.4,217.9,380.5,218.6L380.5,218.6z"/>
	</g>
</g>
<path class="st17" d="M368.6,323.7c1.6-0.5,6-1.9,10.9-5.8c12.7-10,15.7-25.8,16.5-31.7c0,0-9.1,5.7-11.1,4.8c-2-0.8-1-5.2-11-4.8
	c-10,0.3-19.8,6-19.8,6c-11.1,8.6-13.8,21.3-9.3,27.7C349.5,326.7,362.1,325.6,368.6,323.7z"/>
<path class="st7" d="M428.1,313.7c5,4,21.6,18,24.8,41.4c0.8,5.9,4.3,30.6-11.4,41.4c-12.2,8.4-29.4,4.4-39.3-2.1
	c-19.4-12.8-26-45.5-13.4-80.7c-0.2,2.2-0.3,4.5-0.5,6.7"/>
<g>
	<path class="st18" d="M730.1,93.4"/>
	<line class="st19" x1="678.7" y1="95.7" x2="686.4" y2="88.2"/>
	<polygon class="st20" points="675.2,76.4 697.4,99.7 738.1,60.9 717,38 	"/>
	<polygon class="st20" points="709.2,29.1 760.1,20.2 745.9,68.4 	"/>
	<line class="st21" x1="709.7" y1="44.7" x2="734.8" y2="64.2"/>
	<line class="st21" x1="700.8" y1="53.9" x2="725.9" y2="73.3"/>
	<line class="st21" x1="690.5" y1="61.6" x2="715.6" y2="81.1"/>
	<line class="st21" x1="681.6" y1="70.8" x2="706.7" y2="90.2"/>
	<line class="st22" x1="663.9" y1="80.1" x2="673" y2="91.9"/>
	<line class="st22" x1="657" y1="95.2" x2="671.4" y2="97"/>
	<line class="st22" x1="663.9" y1="110.5" x2="672.8" y2="101.3"/>
	<line class="st22" x1="678.5" y1="104.4" x2="678.2" y2="117.4"/>
	<line class="st22" x1="683.6" y1="101.6" x2="693.5" y2="112.7"/>
</g>
<polyline class="st3" points="335.5,482.5 272.5,482.5 272.5,377.5 313.5,377.5 "/>
<polygon class="st23" points="101,111.6 95.8,112.5 100.2,116.8 99.4,122 104.2,118.9 109.5,122.3 108.1,115.8 112.8,111.8 
	107.1,111.5 104.4,105.4 "/>
<g class="st24">
	<path class="st25" d="M494.5,262.3c4.7,1.9,11.6,5.5,18.5,11.9c7.6,7.1,11.9,14.5,14.1,19.3"/>
	<path class="st26" d="M504.9,239.4c4.8,3.6,10.7,8.9,16.3,16.3c7.2,9.5,11.2,18.7,13.4,25.2"/>
	<path class="st27" d="M524.1,220.1c4.1,4.9,10.1,13.3,14.1,25.2c4.1,12.4,4.2,23.2,3.7,29.7"/>
	<path class="st25" d="M555.3,190.4c-3.2,6.4-6.9,15.7-8.9,27.4c-2.2,13.2-1.2,24.4,0,31.9"/>
	<path class="st27" d="M569.4,219.3c-4.1,5.4-9.4,13.5-13.4,24.5c-4.4,12.4-5.2,23.3-5.2,30.4"/>
	<path class="st26" d="M589.4,237.9c-4.9,3.5-12.2,9.7-18.5,19.3c-6.1,9.2-9,18-10.4,23.7"/>
	<path class="st25" d="M600.5,262.3c-5.1,2-12.9,5.7-20.8,12.6c-7.6,6.7-12.2,13.8-14.8,18.5"/>
	<polygon class="st28" points="555.3,181.5 551.6,186.7 559,186.7 562.7,191.9 564.2,185.2 571.6,183.7 564.9,179.3 565.7,171.9 
		560.5,176.3 553.1,173.3 	"/>
	<polygon class="st29" points="575.4,209.5 573.1,212.7 577.6,212.7 579.9,215.8 580.8,211.7 585.3,210.8 581.3,208.1 581.7,203.6 
		578.5,206.3 574,204.5 	"/>
	<polygon class="st30" points="593.8,234.1 591.6,237.1 595.9,237.1 598,240.1 598.9,236.3 603.1,235.4 599.3,232.9 599.7,228.6 
		596.7,231.2 592.5,229.4 	"/>
	<polygon class="st28" points="605.6,257.1 603.5,260.1 607.8,260.1 609.9,263.1 610.7,259.3 615,258.4 611.2,255.9 611.6,251.6 
		608.6,254.2 604.4,252.5 	"/>
	<polygon class="st29" points="513.7,208.9 511.5,211.9 515.8,211.9 517.9,214.9 518.8,211.1 523,210.2 519.2,207.7 519.6,203.4 
		516.6,205.9 512.4,204.2 	"/>
	<polygon class="st28" points="483,256 480.5,259.5 485.5,259.5 488,263 489,258.5 494,257.5 489.5,254.5 490,249.5 486.5,252.5 
		481.5,250.5 	"/>
	<polygon class="st30" points="493.6,231.9 491.5,234.9 495.8,234.9 497.9,237.9 498.7,234.1 503,233.2 499.2,230.6 499.6,226.4 
		496.6,228.9 492.4,227.2 	"/>
</g>
<path class="st23" d="M106.3,193.9l3.3-59.8c0-0.6-0.1-1.1-0.3-1.6c-0.6-1.3-2.1-3.7-4.6-3.9c-2.2-0.2-4.2,1.3-5.5,3.9
	c-0.2,0.5-0.3,1.1-0.3,1.6c1.3,19.9,2.6,39.9,3.9,59.8C103,196.9,106.1,196.9,106.3,193.9z"/>
<path class="st31" d="M124.4,206.5l43.9-20.8c0.4-0.2,0.8-0.5,1-0.8c0.7-1,1.8-3,1-4.8c-0.7-1.6-2.6-2.5-4.9-2.4
	c-0.4,0-0.9,0.2-1.3,0.4c-13.7,8.6-27.4,17.3-41.2,25.9C121,205.3,122.2,207.5,124.4,206.5z"/>
<path class="st32" d="M120.8,188.5l18-29.4c0.2-0.3,0.3-0.6,0.3-0.9c0-0.8-0.1-2.4-1.3-3.2c-1-0.7-2.5-0.5-3.8,0.5
	c-0.2,0.2-0.5,0.4-0.6,0.8c-4.8,10.5-9.5,20.9-14.3,31.4C118.3,189.2,119.9,190,120.8,188.5z"/>
<path class="st32" d="M88.1,188.7l-18-29.4c-0.2-0.3-0.3-0.6-0.3-0.9c0-0.8,0.1-2.4,1.3-3.2c1-0.7,2.5-0.5,3.8,0.5
	c0.2,0.2,0.5,0.4,0.6,0.8c4.8,10.5,9.5,20.9,14.3,31.4C90.6,189.3,89,190.2,88.1,188.7z"/>
<path class="st31" d="M82.1,206.2l-43.9-20.8c-0.4-0.2-0.8-0.5-1-0.8c-0.7-1-1.8-3-1-4.8c0.7-1.6,2.6-2.5,4.9-2.4
	c0.4,0,0.9,0.2,1.3,0.4c13.7,8.6,27.4,17.3,41.2,25.9C85.6,205.1,84.4,207.3,82.1,206.2z"/>
<polygon class="st32" points="139.4,147.5 137.5,150.1 141.2,150.1 143.1,152.8 143.9,149.4 147.6,148.6 144.3,146.4 144.6,142.6 
	142,144.9 138.2,143.4 "/>
<polygon class="st32" points="63.1,148.3 61.2,151 64.9,151 66.8,153.6 67.6,150.2 71.3,149.5 67.9,147.2 68.3,143.4 65.7,145.7 
	61.9,144.2 "/>
<polygon class="st31" points="175.2,175 173.5,177.5 177,177.5 178.8,180 179.5,176.8 183,176.1 179.8,174 180.2,170.4 177.7,172.6 
	174.2,171.2 "/>
<polygon class="st31" points="28.4,174.2 26.6,176.7 30.2,176.7 31.9,179.2 32.7,176 36.2,175.3 33,173.1 33.4,169.6 30.9,171.7 
	27.4,170.3 "/>
<path class="st2" d="M723.5,629.5"/>
<path class="st33" d="M759,629"/>
</svg>
