<?xml version="1.0" encoding="utf-8"?>
<!-- Generator: Adobe Illustrator 24.0.1, SVG Export Plug-In . SVG Version: 6.00 Build 0)  -->
<svg version="1.1" id="Layer_1" xmlns="http://www.w3.org/2000/svg" xmlns:xlink="http://www.w3.org/1999/xlink" x="0px" y="0px"
	 viewBox="0 0 800 800" style="enable-background:new 0 0 800 800;" xml:space="preserve">
<style type="text/css">
	.st0{opacity:0.8;fill:none;stroke:#2962FF;stroke-width:2;stroke-linecap:round;stroke-linejoin:round;stroke-miterlimit:10;}
	.st1{opacity:0.8;fill:none;stroke:#263238;stroke-width:2.4908;stroke-miterlimit:10;}
	.st2{fill:none;stroke:#6CC5AC;stroke-width:3;stroke-linecap:round;stroke-linejoin:round;stroke-miterlimit:10;}
	.st3{fill:none;stroke:#616363;stroke-width:3;stroke-linecap:round;stroke-linejoin:round;stroke-miterlimit:10;}
	.st4{fill:#DFDFDF;stroke:#616363;stroke-width:3;stroke-linecap:round;stroke-linejoin:round;stroke-miterlimit:10;}
	.st5{fill:#FFFFFF;stroke:#F27A68;stroke-width:3;stroke-linecap:round;stroke-linejoin:round;stroke-miterlimit:10;}
	.st6{fill:#F27A68;stroke:#F27A68;stroke-width:3;stroke-miterlimit:10;}
	.st7{fill:#616363;}
	.st8{opacity:0.8;fill:none;stroke:#F85744;stroke-width:3;stroke-linecap:round;stroke-linejoin:round;stroke-miterlimit:10;}
	.st9{fill:none;stroke:#616363;stroke-width:2;stroke-linecap:round;stroke-linejoin:round;stroke-miterlimit:10;}
	.st10{fill:#616363;stroke:#616363;stroke-linecap:round;stroke-linejoin:round;stroke-miterlimit:10;}
	.st11{fill:none;stroke:#DFDFDF;stroke-width:2;stroke-miterlimit:10;}
	.st12{opacity:0.8;fill:#F85744;}
	.st13{opacity:0.7;fill:none;stroke:#2962FF;stroke-width:2;stroke-miterlimit:10;}
	.st14{fill:none;}
	.st15{fill:#FFFFFF;stroke:#DFDFDF;stroke-width:2;stroke-miterlimit:10;}
	.st16{fill:#6CC5AC;stroke:#6CC5AC;stroke-width:2;stroke-miterlimit:10;}
	.st17{fill:none;stroke:#6CC5AC;stroke-width:2;stroke-miterlimit:10;}
	.st18{fill:#2962FF;}
	.st19{fill:none;stroke:#DFDFDF;stroke-width:4;stroke-miterlimit:10;}
	.st20{fill:none;stroke:#6CC5AC;stroke-width:4;stroke-miterlimit:10;}
	.st21{opacity:0.7;fill:none;stroke:#FBC16B;stroke-width:5;stroke-miterlimit:10;}
	.st22{fill:none;stroke:#000000;stroke-miterlimit:10;}
	.st23{fill:#DFDFDF;stroke:#DFDFDF;stroke-width:5;stroke-miterlimit:10;}
	.st24{fill:none;stroke:#2962FF;stroke-width:3;stroke-miterlimit:10;}
	.st25{fill:#6CC5AC;stroke:#FFFFFF;stroke-width:7;stroke-miterlimit:10;}
	.st26{fill:none;stroke:#DFDFDF;stroke-width:5;stroke-miterlimit:10;}
	.st27{fill:#F85744;}
	.st28{opacity:0.8;fill:#6CC5AC;stroke:#5280FF;stroke-width:7;stroke-miterlimit:10;}
	.st29{fill:none;stroke:#616363;stroke-width:4;stroke-miterlimit:10;}
	.st30{fill:none;stroke:#2962FF;stroke-width:2;stroke-miterlimit:10;}
	.st31{opacity:0.7;fill:#E0E0E0;stroke:#E0E0E0;stroke-width:2;stroke-miterlimit:10;}
	.st32{opacity:0.7;fill:none;stroke:#2962FF;stroke-width:3;stroke-miterlimit:10;}
	.st33{fill:#52DEB8;stroke:#52DEB8;stroke-width:3;stroke-miterlimit:10;}
	.st34{fill:#E0E0E0;stroke:#E0E0E0;stroke-width:3;stroke-miterlimit:10;}
	.st35{opacity:0.8;fill:#2962FF;stroke:#2962FF;stroke-width:2;stroke-miterlimit:10;}
	.st36{fill:#F97A68;stroke:#F97A68;stroke-width:2;stroke-miterlimit:10;}
	.st37{opacity:0.8;}
	.st38{fill:#FCC26B;}
	.st39{opacity:0.8;fill:#2962FF;stroke:#2962FF;stroke-width:1.5;stroke-miterlimit:10;}
	.st40{opacity:0.4;fill:#2962FF;stroke:#2962FF;stroke-miterlimit:10;}
	.st41{fill:#2962FF;stroke:#2962FF;stroke-miterlimit:10;}
</style>
<path class="st0" d="M494.1,186.2v76.6c0,3.9,3.2,7.1,7.1,7.1h50.8c3.9,0,7.1-3.2,7.1-7.1v-76.6c0-3.9-3.2-7.1-7.1-7.1h-50.8
	C497.3,179.1,494.1,182.3,494.1,186.2z"/>
<line class="st1" x1="5" y1="667.3" x2="793.1" y2="667.3"/>
<g>
	<path class="st2" d="M179.2,314.5c0,0-47.7-9.2-110.3,58.7c-1.3,1.4-2.3,3.1-2.6,5c-0.6,3.1,0.3,6.3,10.6-0.7
		c15.8-10.9,33.9-20.1,29.8-16.1c-4,4-21.2,28.1-14.1,27s35.9-22.7,38.2-23.2s-15.3,18.9-8.1,20.7c7.2,1.7,62.5-33.1,62.5-33.1"/>
	<path class="st3" d="M314.8,303.9c8.3-5.6,73.8-48.9,98.1-28.1c4.2,3.6,6.1,8.1,7.3,12.3c12.6,46.5-8.4,129.6-25.1,134.5
		c-1.6-0.2-2.9-1.5-3.1-3.1c-0.2-1.7,0.8-3.3,2.4-3.9"/>
	<path class="st3" d="M185.1,445c0,0-83.2,172.6-87.1,186.8c-3.8,14.2,0,15.7,0,15.7"/>
	<path class="st4" d="M224.7,346.7c0,0-24.9-40.5-50.5-31c-25.6,9.6-3.4,37.9,22.6,39.4s21.4,1.5,21.4,1.5L224.7,346.7z"/>
	<path class="st5" d="M299.7,285.5c-1.1-0.4-95.6,44.4-130.4,151.9l39.4,18.7l16.1-36.7c0,0,55.5,18.7,72.7,36.7
		c0,0,65.8-22.2,110.9-11.1c0,0-63.5-84.2-98.3-101.8l26.4-21.4L299.7,285.5z"/>
	<path class="st6" d="M297.4,456.1c0,0-81.1,16.1-76.5,70.4c4.6,54.3,12.2,110.9,45.1,159.9h12.2c0,0-23.7-116.5-4.6-147
		c19.1-30.5,78.8-47.7,93.3-49.4c14.5-1.7,32.9,10.5,62.7,41.9s150.7,154.5,150.7,154.5l9.2-9.2c0,0-98.7-125.5-102.5-127.8
		s-33.7-55.9-38.3-62.7s-24.3-42.2-49.6-43.5C373.8,442,367.8,436.3,297.4,456.1z"/>
	<path class="st3" d="M271.9,681.2c0,0,6.3,40.5-36.4,20.9"/>
	<path class="st3" d="M581.7,677.4c0,0,23.8,46.8,43.3,6.6"/>
	<g>
		<g>
			<path class="st7" d="M182.2,327.7c-0.2,0.3-0.7,0.4-1,0.5c-0.4,0.2-0.8,0.5-1.2,0.9c-0.7,0.7-1.2,1.6-1.4,2.5
				c-0.6,2.1,0.1,4.4,1.3,6.1c0.3,0.4,0.9,0.6,1.4,0.4c0.4-0.3,0.7-0.9,0.4-1.4c-0.9-1.4-1.6-3.1-1.1-4.7c0.2-0.6,0.6-1.2,1.1-1.7
				c0.6-0.5,1.4-0.6,2-1.2C184.5,328.2,183.1,326.7,182.2,327.7L182.2,327.7z"/>
		</g>
	</g>
	<g>
		<g>
			<path class="st7" d="M187.7,312.1c-2.2,0.3-3.8,2.5-3.9,4.6c-0.1,1.1,0.3,2.3,1.1,3.1c1.1,1.1,2.6,0.9,4,0.8
				c3.3-0.3,6.6-0.4,9.9-0.4c1.6,0,3.2,0,4.8,0c0.8,0,1.6,0,2.4,0.1c0.3,0,0.8-0.1,1,0.1c-0.2-0.1,0-0.1-0.1,0.1c0,0.2,0,0.3,0,0.5
				c0.1,2.9-1.1,5.8-3.1,8c-0.9,0.9,0.5,2.3,1.4,1.4c1.8-1.9,3.1-4.3,3.5-6.9c0.2-1.2,0.4-2.7,0-3.8c-0.6-1.6-2.7-1.3-4-1.3
				c-3.2-0.1-6.4-0.1-9.6,0c-1.6,0.1-3.2,0.1-4.8,0.2c-0.7,0.1-1.5,0.1-2.2,0.2c-0.5,0-1.3,0.2-1.8-0.2c-0.7-0.7-0.7-1.9-0.3-2.7
				c0.4-1,1.2-1.6,2.2-1.8c0.5-0.1,0.8-0.8,0.7-1.2C188.8,312.2,188.3,312,187.7,312.1L187.7,312.1z"/>
		</g>
	</g>
</g>
<g>
	<path class="st8" d="M694.4,416.8c0,0-15.2,4.9-19.2,15.1c0,0-25.1-26.2-45.8-12.6c-20.7,13.5-5,56.5,19.9,71.2"/>
	<path class="st9" d="M703.9,437.3c-3.7-2-8.2-2.4-12-0.5c-2.8,1.4-5.5,4.1-6.3,9.1c-2.1,12.2-1.1,21.5-1.1,21.5s-21.1,6.8-23,18.6
		c-1.9,11.6,11.3,16.4,26.8,12.2C703.3,494,740,456.8,703.9,437.3z"/>
	
		<ellipse transform="matrix(0.5386 -0.8425 0.8425 0.5386 -27.23 787.1413)" class="st10" cx="705.1" cy="418.4" rx="6.3" ry="5.1"/>
	
		<ellipse transform="matrix(0.5386 -0.8425 0.8425 0.5386 -30.1356 800.0037)" class="st10" cx="715.4" cy="427.5" rx="5.8" ry="4.7"/>
	
		<ellipse transform="matrix(0.7071 -0.7071 0.7071 0.7071 -97.8746 640.6755)" class="st10" cx="724.4" cy="438.5" rx="4.9" ry="4"/>
	
		<ellipse transform="matrix(0.9688 -0.248 0.248 0.9688 -88.4591 194.5975)" class="st10" cx="728.2" cy="448.4" rx="3.8" ry="3.1"/>
	
		<ellipse transform="matrix(7.940274e-02 -0.9968 0.9968 7.940274e-02 214.1706 1147.2717)" class="st10" cx="728.2" cy="457.7" rx="2.4" ry="3"/>
</g>
<g>
	<path class="st11" d="M445.8,54.7l-9.3-4c-2.4,4.7-4.1,8.8-5.3,11.9c-2.5,6.5-3.6,11.1-5.3,18.6c-0.5,2.3-1.2,5.3-1.3,9.3
		c0,1.2-0.1,1.8,0,2.7c0.1,1.1,0.8,9.2,6.6,11.9c5.2,2.5,10.7-0.6,11.9-1.3c2.1-1.2,3.9-2.8,8-9.3c4.1-6.5,6.9-12.1,9.3-17.2
		c1.8-3.7,4-8.7,6.6-14.6c-3.5-1.8-7.1-3.5-10.6-5.3"/>
	<g>
		<path class="st12" d="M388.7,110.4c-1.2-1.5-6.6-8.2-15.9-9.3c-4.6-0.5-8.4,0.5-10.6,1.3c-2.5,1.4-6,3.9-9.3,8
			c-3.8,4.7-5.3,9.3-6.6,13.3c-1,3.2-2.2,7.7-2.7,13.3c0.9,9.8,4,25.2,14.6,39.8c2.6,3.6,5.3,6.6,8,9.3c2.1,0.9,12,4.8,21.2,0
			c2.2-1.2,4-2.6,5.3-4c1.8,1.6,4.4,3.6,8,5.3c3,1.4,5.8,2.2,8,2.7c2.7,0.1,7.3-0.2,11.9-2.7c4.4-2.4,7-5.8,9.3-9.3
			c9.8-15.1,13.3-30.5,13.3-30.5c2.3-10.1,4.2-18.7,1.3-29.2c-1.3-4.8-3.5-12.5-10.6-17.2c-4.8-3.2-10.1-3.8-11.9-4
			c-1.4-0.1-5.5-0.4-11.9,1.3C400.6,101.1,393.4,106.2,388.7,110.4z"/>
		<path class="st13" d="M387.4,115.7c1.1-2.1,3.9-8.2,2.7-15.9c-0.3-1.7-1.3-6.8-5.3-11.9c-3.9-4.9-8.4-7.1-10.6-8
			c-1.8-0.6-2.5-0.1-2.7,0c-1.4,1.2,0.8,5.7,1.3,6.6c0.2,0.4,1,2.1,2.7,4c1,1.2,1.9,2,2.7,2.7c1.3,0.9,3,2,5.3,2.7
			c1.2,0.4,5.5,1.6,6.6,0c0.2-0.3,0.3-0.8,0-2.7c-0.4-2.1-0.9-3.9-1.3-5.3c-0.7-2-2.6-8.3-6.6-27.9"/>
		<path class="st14" d="M375.5,78.6"/>
		<circle class="st15" cx="407.3" cy="151.5" r="13.3"/>
		<circle class="st16" cx="407.3" cy="151.5" r="5.3"/>
		<path class="st11" d="M343.6,136.9c-1.7,1.5-9.9,9-10.6,21.2c-0.1,2.4-0.5,11,5.3,18.6c7.3,9.4,19,10.3,22.6,10.6
			c23.6,1.8,40-22.2,41.1-23.9"/>
		<polyline class="st17" points="461.7,74.6 467,62.6 459,58.7 		"/>
		<g>
			<g>
				<path class="st18" d="M456.3,57.3C456.3,57.3,456.2,57.3,456.3,57.3c0-0.1,0-0.2,0-0.4c0,0.2-0.1,0.4-0.2,0.6
					c0.1-0.1,0.1-0.2,0.2-0.4c-0.2,0.5-0.5,1.1-0.7,1.6c-0.1,0.2-0.2,0.4-0.2,0.6c0,0.2,0,0.4,0,0.6c0.1,0.3,0.4,0.7,0.7,0.9
					c0.3,0.2,0.8,0.3,1.2,0.2c0.1-0.1,0.2-0.1,0.4-0.2c0.2-0.1,0.4-0.3,0.5-0.5c0.2-0.4,0.3-0.8,0.5-1.2c0.1-0.3,0.3-0.6,0.4-0.9
					c0.1-0.3,0.2-0.6,0.2-0.9c0-0.2,0-0.4-0.1-0.6c-0.1-0.2-0.2-0.3-0.3-0.5c-0.3-0.3-0.7-0.5-1.1-0.4c-0.4,0-0.8,0.1-1.1,0.4
					c-0.1,0.1-0.2,0.2-0.2,0.3C456.3,56.8,456.3,57,456.3,57.3L456.3,57.3z"/>
			</g>
		</g>
		<polyline class="st17" points="443.8,54 436.5,50.7 432.5,58.7 		"/>
		<g>
			<g>
				<path class="st18" d="M444.8,52.1c-0.2,0.3-0.4,0.6-0.6,0.9c0.1-0.1,0.2-0.2,0.2-0.3c-0.3,0.4-0.7,0.8-1,1.2
					c-0.4,0.6-0.6,1.4-0.4,2.2c0.1,0.4,0.4,0.7,0.7,0.9c0.3,0.2,0.8,0.3,1.2,0.2c0.4-0.1,0.7-0.3,0.9-0.7c0.2-0.4,0.3-0.8,0.2-1.2
					c0,0,0-0.1,0-0.1c0,0.1,0,0.3,0.1,0.4c0-0.1,0-0.2,0-0.2c0,0.1,0,0.3-0.1,0.4c0-0.1,0-0.2,0.1-0.3c-0.1,0.1-0.1,0.2-0.2,0.4
					c0.1-0.1,0.1-0.2,0.2-0.3c-0.1,0.1-0.2,0.2-0.2,0.3c0.2-0.3,0.5-0.6,0.8-0.9c0.3-0.4,0.6-0.8,0.9-1.2c0.2-0.3,0.3-0.8,0.2-1.2
					c-0.1-0.3-0.4-0.7-0.7-0.9c-0.3-0.2-0.8-0.3-1.2-0.2C445.3,51.5,445,51.7,444.8,52.1L444.8,52.1z"/>
			</g>
		</g>
	</g>
</g>
<g>
	<polygon class="st19" points="565.6,302.1 576.6,389.9 668,378.9 657,291.2 	"/>
	<line class="st20" x1="569.8" y1="316.8" x2="656.5" y2="305.8"/>
	<line class="st21" x1="580.2" y1="291.2" x2="580.2" y2="309.5"/>
	<path class="st22" d="M598.5,291.2"/>
	<line class="st21" x1="638.7" y1="282" x2="638.7" y2="300.3"/>
	<line class="st21" x1="616.8" y1="285.7" x2="616.8" y2="304"/>
	<line class="st21" x1="598.5" y1="289.3" x2="598.5" y2="307.6"/>
	
		<rect x="580.2" y="327.7" transform="matrix(0.9935 -0.114 0.114 0.9935 -33.9739 68.7286)" class="st23" width="7.3" height="7.3"/>
	
		<rect x="584.8" y="347.6" transform="matrix(0.9935 -0.114 0.114 0.9935 -36.2115 69.3771)" class="st23" width="7.3" height="7.3"/>
	<rect x="621.4" y="344" transform="matrix(0.9935 -0.114 0.114 0.9935 -35.5562 73.522)" class="st23" width="7.3" height="7.3"/>
	
		<rect x="639.6" y="340.3" transform="matrix(0.9935 -0.114 0.114 0.9935 -35.0201 75.5825)" class="st23" width="7.3" height="7.3"/>
	
		<rect x="588.4" y="369.6" transform="matrix(0.9935 -0.114 0.114 0.9935 -38.6889 69.937)" class="st23" width="7.3" height="7.3"/>
	
		<rect x="606.7" y="365.9" transform="matrix(0.9935 -0.114 0.114 0.9935 -38.1528 71.9975)" class="st23" width="7.3" height="7.3"/>
	<rect x="625" y="362.3" transform="matrix(0.9935 -0.114 0.114 0.9935 -37.6167 74.058)" class="st23" width="7.3" height="7.3"/>
	
		<rect x="643.3" y="358.6" transform="matrix(0.9935 -0.114 0.114 0.9935 -37.0806 76.1186)" class="st23" width="7.3" height="7.3"/>
	<rect x="636" y="318.4" transform="matrix(0.9935 -0.114 0.114 0.9935 -32.5427 75.0226)" class="st23" width="7.3" height="7.3"/>
	<rect x="617.7" y="322" transform="matrix(0.9935 -0.114 0.114 0.9935 -33.0788 72.9621)" class="st23" width="7.3" height="7.3"/>
	
		<rect x="599.4" y="325.7" transform="matrix(0.9935 -0.114 0.114 0.9935 -33.6149 70.9015)" class="st23" width="7.3" height="7.3"/>
	<polyline class="st24" points="598.5,349.7 605.8,357 613.2,335.1 	"/>
</g>
<path class="st25" d="M1724.5,76.5"/>
<path class="st26" d="M183,46.3v114.1c0,4.7,4.4,8.6,9.8,8.6h75.9c5.4,0,9.8-3.8,9.8-8.6V46.3c0-4.7-4.4-8.6-9.8-8.6h-75.9
	C187.4,37.7,183,41.6,183,46.3z"/>
<line class="st26" x1="189" y1="52.6" x2="272.5" y2="52.6"/>
<line class="st26" x1="189" y1="148.1" x2="272.5" y2="148.1"/>
<line class="st26" x1="257.7" y1="65.5" x2="269.6" y2="65.5"/>
<line class="st26" x1="228" y1="81.5" x2="269.6" y2="81.5"/>
<path class="st26" d="M215.8,118.3"/>
<g>
	<g>
		<path class="st27" d="M250.4,114.5h-4c1.7-3.8,1.5-6.8,0.9-8.9c-1.1-3.7-4.7-7.7-10.1-7.7c-1.4,0-2.9,0.3-4.4,0.8
			c-2.6,0.9-4.3,2-5,2.5c-0.8-0.5-2.4-1.6-5-2.5c-1.5-0.5-3-0.8-4.4-0.8c-5.4,0-9,4-10.1,7.7c-0.6,2.2-0.9,5.5,1.3,9.7h-4.8
			c-0.4,0-0.7,0.3-0.7,0.7c0,0.4,0.3,0.7,0.7,0.7h5.7c0.2,0.4,0.5,0.8,0.8,1.2c4.7,6.7,14.8,14,16.6,14.5v0c0,0,0,0,0.1,0
			c0,0,0.1,0,0.1,0v0c1.6-0.8,11.3-7,16.4-14.5c0.5-0.7,0.9-1.3,1.3-2h4.7c0.4,0,0.7-0.3,0.7-0.7S250.8,114.5,250.4,114.5z
			 M243.2,117.2c-4.8,7-13.5,12.6-15.4,13.8c-1.9-1.2-10.6-6.9-15.4-13.8c-0.1-0.1-0.2-0.3-0.3-0.4h6.6c0.3,0,0.5-0.1,0.7-0.4l3-5.9
			l4.7,12.1c0.1,0.3,0.4,0.4,0.7,0.4c0,0,0,0,0,0c0.3,0,0.6-0.2,0.7-0.5l4.1-14.1l2.2,7.1c0.1,0.3,0.3,0.4,0.6,0.5
			c0.3,0,0.5-0.1,0.7-0.3l1.8-2.6l1.5,2.5c0.1,0.2,0.4,0.4,0.6,0.4h4C243.8,116.3,243.5,116.7,243.2,117.2z M244.8,114.5h-4.4
			l-1.8-3.1c-0.1-0.2-0.4-0.4-0.6-0.4c-0.3,0-0.5,0.1-0.6,0.3l-1.5,2.2l-2.5-8c-0.1-0.3-0.4-0.5-0.7-0.5c-0.3,0-0.6,0.2-0.7,0.5
			l-4.2,14.4l-4.5-11.6c-0.1-0.3-0.4-0.4-0.6-0.4c-0.3,0-0.5,0.1-0.7,0.4l-3.5,7h-7.1c-1.8-3.3-2.3-6.4-1.5-9.2
			c0.9-3.2,4-6.6,8.7-6.6c1.3,0,2.6,0.3,3.9,0.7c3.3,1.2,5,2.6,5.1,2.6c0.3,0.2,0.6,0.2,0.9,0c0,0,1.8-1.4,5.1-2.6
			c1.3-0.5,2.6-0.7,3.9-0.7c4.6,0,7.8,3.4,8.7,6.6C246.7,108.6,246.3,111.5,244.8,114.5z"/>
	</g>
</g>
<g>
	<line class="st28" x1="201.5" y1="61" x2="201.5" y2="79.9"/>
	<line class="st28" x1="192.1" y1="70.9" x2="211" y2="70.9"/>
</g>
<g>
	<path class="st29" d="M698.8,617.6c-6.4,0-12.8,0-19.3,0l6.4-25.7c-1-5.1-4.9-9-9.6-9.6c-5.7-0.8-11.5,3.3-12.8,9.6"/>
	<path class="st29" d="M730.7,593.2c-1-5.1-4.9-9-9.6-9.6c-5.7-0.8-11.5,3.3-12.8,9.6"/>
	<path class="st29" d="M679.5,636.8c1.6,1.4,8.8,7,19.3,6.4c8.5-0.5,14.2-4.8,16.1-6.4"/>
	<line class="st20" x1="641" y1="566.2" x2="657" y2="575.8"/>
	<line class="st20" x1="666.7" y1="543.7" x2="676.3" y2="559.8"/>
	<line class="st20" x1="705.2" y1="534.1" x2="705.2" y2="556.5"/>
	<line class="st20" x1="730.9" y1="559.8" x2="743.7" y2="543.7"/>
	<line class="st20" x1="743.7" y1="575.8" x2="763" y2="575.8"/>
</g>
<g>
	<path class="st30" d="M92.4,95.1c4.7-4.5,6.4-8.6,7-11.7c3.3-15.2-11.8-34.7-8.6-38.2c0.2-0.2,0.4-0.4,0.4-0.4
		c2,0.6,4.9,1.1,8.3,0.5c1.3-0.2,2.2-0.5,2.5-0.6c4.2-1.5,6.7-4.5,7.5-5.6c0.9-1.1,3.8-5,3.7-10.6c0-6.3-4-10.8-5-11.9
		c-8.4-9.3-23.3-5.8-24-5.7"/>
	<path class="st31" d="M24.6,69.3c-0.3-0.5-1.1-0.7-1.5-0.3c-1.5,1.4-3.6,3.7-4.5,7.1c0,0.1-0.1,0.3-0.1,0.5
		c-0.8,3.6,0.1,6.9,0.8,8.7c2.2,6,7.2,11.7,12.9,21c0.8,1.3,2,3.3,3.4,5.9c3.6,6.8,5.5,12.1,6.1,13.8c1,2.7,8.7,23.7,25.7,30.8
		c4.9,2.1,9.8,2.2,19.6,2.6c24.9,1,29.8,1.1,31.8-2c0.7-1,1.3-2.7,0.9-5.6c-0.1-0.5-0.6-0.9-1.2-0.8c-3.3,0.6-7.5,1.3-12.6,1.8
		c-8.2,0.7-16.6,1.3-26.4-1.3c-4.9-1.3-8.7-2.2-12.9-5.2c-3.2-2.4-4.9-4.9-8.8-11.1c-5.9-9.4-8.9-14.1-10.2-16.4
		c-3.1-5.5-2.9-5.8-12.9-26.9c-2.4-5.1-3.4-7.2-4.7-10.5c-0.8-2.1-1.5-3.9-2.7-6.6C26.4,72.6,25.4,70.8,24.6,69.3z"/>
	<path class="st32" d="M119.6,152.1c-0.1-0.5-0.6-0.9-1.2-0.8c-3.3,0.6-7.5,1.3-12.6,1.8c-8.2,0.7-16.6,1.3-26.4-1.3
		c-2-0.5-9.8-3-12.9-5.2c-3.2-2.4-4.9-4.9-8.8-11.1c-5.9-9.4-8.9-14.1-10.2-16.4c-3.1-5.5-2.9-5.8-12.9-26.9
		C32.3,87,31.4,85,30,81.6c-0.8-2.1-1.5-3.9-2.7-6.6c-1-2.2-2-4.1-2.8-5.5c-0.3-0.5-1.1-0.7-1.5-0.3"/>
	<path class="st33" d="M117.3,146.4c-0.3,0.5-1,1.3-11.6,1.7c-11.4,0.4-17.2,0.7-24.4-1.2c-1.9-0.5-9-2.8-11.9-5
		c-3-2.3-4.5-4.7-8.1-10.6c-5.5-8.9-8.2-13.4-9.4-15.6c-2.8-5.3-2.7-5.5-11.9-25.6c-2.2-4.9-3.1-6.8-4.4-10c-0.8-2-1.4-3.7-2.5-6.2
		c-1.7-3.9-2.4-4.3-2.6-5.3C30.3,66,34,61.9,52,54.9c1.7,1.2,3.3,2.5,5,3.7c-0.6,2.6-0.9,6.1,0,10c1.8,7.6,7.8,16.5,17.5,18.1
		c6.7,1.1,12.2-1.8,14.4-3.1c2.3,2.5,4.6,5,6.9,7.5c-0.8,10.4-1.7,20.8-2.5,31.2C114.6,137.9,118.6,144,117.3,146.4z"/>
	<circle class="st34" cx="78.6" cy="109" r="2.2"/>
	<circle class="st34" cx="85.4" cy="130.2" r="2.2"/>
	<circle class="st34" cx="82.3" cy="120.8" r="2.2"/>
	<line class="st35" x1="83.7" y1="120.5" x2="99.5" y2="116.2"/>
	<line class="st35" x1="80.1" y1="108.7" x2="97.9" y2="108.7"/>
	<line class="st35" x1="101.2" y1="124.3" x2="86.8" y2="129.9"/>
	<path class="st30" d="M78.9,103c2.3-9.1,4.9-23.3,3.7-40.6C81.4,44.1,76.6,34,82,28c3.5-3.8,11.8-6.6,34.4,1.2l8.7,2.7l4.7,1.2"/>
	<line class="st36" x1="83.1" y1="11" x2="77.2" y2="13.3"/>
	<line class="st36" x1="131.6" y1="33.8" x2="137.4" y2="36.1"/>
</g>
<g class="st37">
	<g>
		<path class="st38" d="M489.9,224.9c3.5,0,6.9,0.1,10.4,0.1c1,0,2-0.9,2-2c0-1.1-0.9-2-2-2c-3.5,0-6.9-0.1-10.4-0.1c-1,0-2,0.9-2,2
			C488,224,488.8,224.9,489.9,224.9L489.9,224.9z"/>
	</g>
</g>
<line class="st39" x1="504.3" y1="165.6" x2="509.9" y2="148.6"/>
<line class="st39" x1="483.7" y1="178.8" x2="466.7" y2="173"/>
<line class="st39" x1="491" y1="169.3" x2="483.6" y2="152.9"/>
<g class="st37">
	<g>
		<path class="st38" d="M489,190.9c3.5,0,6.9,0.1,10.4,0.1c1,0,2-0.9,2-2c0-1.1-0.9-2-2-2c-3.5,0-6.9-0.1-10.4-0.1c-1,0-2,0.9-2,2
			C487,190,487.9,190.9,489,190.9L489,190.9z"/>
	</g>
</g>
<g class="st37">
	<g>
		<path class="st38" d="M489.4,208.4c3.5,0,6.9,0.1,10.4,0.1c1,0,2-0.9,2-2c0-1.1-0.9-2-2-2c-3.5,0-6.9-0.1-10.4-0.1c-1,0-2,0.9-2,2
			C487.5,207.5,488.3,208.4,489.4,208.4L489.4,208.4z"/>
	</g>
</g>
<g class="st37">
	<g>
		<path class="st38" d="M489.4,242.4c3.5,0,6.9,0.1,10.4,0.1c1,0,2-0.9,2-2c0-1.1-0.9-2-2-2c-3.5,0-6.9-0.1-10.4-0.1c-1,0-2,0.9-2,2
			C487.4,241.5,488.2,242.4,489.4,242.4L489.4,242.4z"/>
	</g>
</g>
<g class="st37">
	<g>
		<path class="st38" d="M489.6,260.3c3.5,0,6.9,0.1,10.4,0.1c1,0,2-0.9,2-2c0-1.1-0.9-2-2-2c-3.5,0-6.9-0.1-10.4-0.1c-1,0-2,0.9-2,2
			C487.7,259.4,488.5,260.3,489.6,260.3L489.6,260.3z"/>
	</g>
</g>
<rect x="509.2" y="198.4" class="st40" width="34.4" height="44"/>
<line class="st41" x1="520.1" y1="225.2" x2="532.2" y2="225.2"/>
<line class="st41" x1="520.1" y1="215.5" x2="532.2" y2="215.5"/>
</svg>
